<svg id="Layer_1" enable-background="new 0 0 512 512" height="512" viewBox="0 0 512 512" width="512" xmlns="http://www.w3.org/2000/svg"><g><g><g><g><g id="XMLID_1140_"><g id="XMLID_1141_"><g id="XMLID_1202_"><g id="XMLID_1203_"><g id="XMLID_1204_"><g id="XMLID_1205_"><g id="XMLID_1206_"><g id="XMLID_1207_"><g id="XMLID_1208_"><g id="XMLID_1285_"><g id="XMLID_1286_"><g id="XMLID_1287_"><g id="XMLID_1288_"><g id="XMLID_1289_"><g><path d="m512 256c0 67.83-26.39 129.5-69.45 175.31-46.69 49.67-113 26.593-186.55 26.593s-139.86 23.077-186.55-26.593c-43.06-45.81-69.45-107.48-69.45-175.31 0-141.38 114.62-256 256-256s256 114.62 256 256z" fill="#dd4571"/></g></g></g></g></g></g></g></g></g></g></g></g></g></g></g></g></g></g><path d="m442.55 431.31c43.06-45.81 69.45-107.48 69.45-175.31 0-7.907-.361-15.73-1.063-23.454l-172.263-172.263-180.058 242.135-10.539-1.743 6.788 6.788-41.766 56.166 96.528 96.527c15.04-1.183 30.539-2.253 46.374-2.253 73.549 0 139.859 23.077 186.549-26.593z" fill="#c12156"/><g><path d="m377.723 134.71c-20.755-108.691-116.013-102.424-121.723-101.949-5.71-.475-100.968-6.743-121.723 101.949-6.671 34.934-12.028 64.669-14.895 89.615-6.099 53.07 35.428 99.594 88.848 99.594h95.542c53.419 0 94.947-46.524 88.848-99.594-2.868-24.946-8.226-54.681-14.897-89.615z" fill="#515151"/><path d="m303.77 323.92h-47.77v-291.16c5.71-.47 100.97-6.74 121.72 101.95 6.67 34.93 12.03 64.67 14.9 89.61 6.1 53.07-35.43 99.6-88.85 99.6z" fill="#3d3d3d"/><path d="m199.97 237.874h112.06v118.84h-112.06z" fill="#eaa678"/><path d="m256 237.877h56.03v118.84h-56.03z" fill="#d38c5b"/><path d="m199.97 317.691h112.06v118.84h-112.06z" fill="#ffc397"/><path d="m256 317.691h56.03v118.84h-56.03z" fill="#eaa678"/><path d="m344.251 139.866c-3.728-56.6-49.511-77.517-88.251-77.517s-84.523 20.917-88.251 77.517c-10.018 1.938-17.134 15.077-16.014 25.701l1.717 24.177c1.175 11.157 10.982 19.301 21.79 18.089l1.864-.202c22.138 59.446 56.857 65.644 78.894 69.124 22.038-3.48 56.756-9.678 78.894-69.124l1.864.202c10.807 1.212 20.614-6.932 21.79-18.089l1.717-24.177c1.12-10.623-5.996-23.763-16.014-25.701z" fill="#ffc397"/><path d="m360.265 165.568-1.717 24.177c-1.175 11.157-10.982 19.301-21.79 18.089l-1.864-.202c-7.566 20.293-16.592 34.388-26.078 44.277-18.291 19.081-38.299 22.552-52.817 24.847v-214.407c38.74 0 84.523 20.917 88.251 77.517 10.019 1.938 17.135 15.078 16.015 25.702z" fill="#eaa678"/><path d="m256 50.805c-17.806 0-109.969.563-90.26 110.372 0 0 30.978-19.146 40.551-41.108 0 0 8.253 30.408 18.389 41.108 0 0 26.977-25.904 31.321-41.108 4.344 15.204 31.321 41.108 31.321 41.108 10.136-10.699 18.389-41.108 18.389-41.108 9.573 21.962 40.551 41.108 40.551 41.108 19.708-109.809-72.456-110.372-90.262-110.372z" fill="#515151"/><path d="m346.26 161.18s-30.98-19.15-40.55-41.11c0 0-8.25 30.41-18.39 41.11 0 0-26.98-25.91-31.32-41.11v-69.26c17.81 0 109.97.56 90.26 110.37z" fill="#3d3d3d"/><path d="m442.55 370.87v60.44c-46.69 49.67-113 80.69-186.55 80.69s-139.86-31.02-186.55-80.69v-60.44c0-22.4 14.99-42.03 36.6-47.93l93.92-25.65 56.03 98.71 56.03-98.71 93.92 25.65c21.61 5.9 36.6 25.53 36.6 47.93z" fill="#5bbc96"/><path d="m442.55 370.87v60.44c-46.69 49.67-113 80.69-186.55 80.69v-116l56.03-98.71 93.92 25.65c21.61 5.9 36.6 25.53 36.6 47.93z" fill="#399e73"/><path d="m157.33 419.645v72.625c-11.17-4.66-21.95-10.11-32.25-16.25v-56.375z" fill="#399e73"/><path d="m386.92 419.645v56.375c-10.3 6.14-21.08 11.59-32.25 16.25v-72.625z" fill="#258258"/><path d="m199.97 276.756-51.893 34.705 45.068 79.093 25.246-5.819 2.91 40.732 34.699 58.94v-113.187z" fill="#fbe280"/><path d="m312.03 276.756 51.894 34.705-45.069 79.093-25.246-5.819-2.91 40.732-34.699 58.94v-113.187z" fill="#edcb5f"/></g></g></svg>