<svg id="Layer_1" enable-background="new 0 0 512 512" height="512" viewBox="0 0 512 512" width="512" xmlns="http://www.w3.org/2000/svg"><g><g><g><g><g><g id="XMLID_620_"><g id="XMLID_621_"><g id="XMLID_622_"><g id="XMLID_623_"><g id="XMLID_624_"><g id="XMLID_625_"><g id="XMLID_626_"><g id="XMLID_627_"><g id="XMLID_628_"><g id="XMLID_629_"><g id="XMLID_630_"><g id="XMLID_631_"><g id="XMLID_632_"><g id="XMLID_633_"><g><path d="m512 256c0 68.69-27.06 131.06-71.09 177.05 0 0-138.171 28.387-184.91 28.387s-184.91-28.407-184.91-28.407c-44.04-45.98-71.09-108.34-71.09-177.03 0-141.38 114.62-256 256-256s256 114.62 256 256z" fill="#fbe280"/></g></g></g></g></g></g></g></g></g></g></g></g></g></g></g></g></g></g></g><path d="m511.965 251.926-219.597-219.596-3.803 183.305 139.564 219.979c8.031-1.589 12.781-2.565 12.781-2.565 44.03-45.989 71.09-108.359 71.09-177.049 0-1.361-.014-2.718-.035-4.074z" fill="#efc859"/><g><path d="m388.309 278.987c-26.018-40.545 7.279-48.804 4.985-87.096-2.904-48.49-52.428-81.834-52.428-81.834l-84.866-5.919-84.866 5.918s-49.524 33.345-52.429 81.834c-2.294 38.292 31.004 46.551 4.985 87.096-30.242 47.126-13.288 81.089-13.288 81.089h291.195c.001.001 16.955-33.962-13.288-81.088z" fill="#af5e22"/><path d="m401.6 360.08h-145.6v-255.94l84.87 5.92s4.22 2.85 10.28 8.08c14.67 12.69 40.09 39.42 42.14 73.75 2.3 38.29-31 46.55-4.98 87.1 30.24 47.12 13.29 81.09 13.29 81.09z" fill="#89491d"/><path d="m298.516 65.841h-85.031v-16.341c0-14.961 12.241-27.202 27.202-27.202h30.626c14.961 0 27.202 12.241 27.202 27.202v16.341z" fill="#dd4571"/><path d="m298.52 49.5v16.34h-42.52v-43.54h15.31c14.96 0 27.21 12.24 27.21 27.2z" fill="#c12156"/><path d="m199.97 250.232h112.06v118.84h-112.06z" fill="#eaa678"/><path d="m256 250.236h56.03v118.84h-56.03z" fill="#d38c5b"/><path d="m199.97 330.05h112.06v118.84h-112.06z" fill="#ffc397"/><path d="m256 330.05h56.03v118.84h-56.03z" fill="#eaa678"/><path d="m344.251 152.225c-3.728-56.6-49.511-77.517-88.251-77.517s-84.523 20.917-88.251 77.517c-10.018 1.938-17.134 15.077-16.014 25.701l1.717 24.177c1.175 11.157 10.982 19.301 21.79 18.089l1.864-.202c22.138 59.446 56.857 65.644 78.894 69.125 22.038-3.48 56.756-9.678 78.894-69.125l1.864.202c10.807 1.212 20.614-6.932 21.79-18.089l1.717-24.177c1.12-10.624-5.996-23.763-16.014-25.701z" fill="#ffc397"/><path d="m360.265 177.926-1.717 24.177c-1.175 11.157-10.982 19.301-21.79 18.089l-1.864-.202c-7.566 20.293-16.592 34.388-26.078 44.277-18.291 19.081-38.299 22.552-52.817 24.847v-214.406c38.74 0 84.523 20.917 88.251 77.517 10.019 1.938 17.135 15.077 16.015 25.701z" fill="#eaa678"/><path d="m256 50.134c-64.892 0-95.676 34.482-95.676 77.561s25.528 72.455 25.528 72.455c40.92-24.027 70.148-73.206 70.148-73.206s29.228 49.179 70.148 73.206c0 0 25.528-29.376 25.528-72.455s-30.784-77.561-95.676-77.561z" fill="#af5e22"/><path d="m351.68 127.7c0 43.07-25.53 72.45-25.53 72.45-40.92-24.03-70.15-73.21-70.15-73.21v-76.81c16.31 0 30.47 2.18 42.52 6.13 32.3 10.57 49.51 33.84 52.63 61.88.36 3.13.53 6.32.53 9.56z" fill="#89491d"/><path d="m440.91 373.711v59.339c-46.61 48.65-112.22 78.95-184.91 78.95-54.62 0-105.25-17.11-146.82-46.26l90.79-135.69 56.03 94.93 56.03-94.93h85.219c24.113 0 43.661 19.548 43.661 43.661z" fill="#17416b"/><path d="m313.207 315.214 50.807 14.836 3.855 67.191h-61.066l41.568 51.649h-139.11z" fill="#2fa8dd"/><path d="m302.74 448.89v58.85c-15.16 2.8-30.78 4.26-46.74 4.26-54.62 0-105.25-17.11-146.82-46.26-13.75-9.65-26.51-20.61-38.09-32.71v-59.319c0-24.113 19.548-43.661 43.661-43.661h85.219z" fill="#336b90"/><path d="m199.97 315.214-50.807 14.836-3.855 67.191h61.066l-41.568 51.649h137.933z" fill="#5de9f4"/><path d="m302.74 448.89v58.85c-15.16 2.8-30.78 4.26-46.74 4.26v-117.16z" fill="#1f5f87"/><path d="m302.74 448.89h-46.74v-60.8z" fill="#4bc5ef"/></g></g></svg>