<svg id="Layer_1" enable-background="new 0 0 512 512" height="512" viewBox="0 0 512 512" width="512" xmlns="http://www.w3.org/2000/svg"><g><g><g><g><g><g id="XMLID_432_"><g id="XMLID_433_"><g id="XMLID_434_"><g id="XMLID_437_"><g id="XMLID_439_"><g id="XMLID_455_"><g id="XMLID_456_"><g id="XMLID_481_"><g id="XMLID_482_"><g id="XMLID_483_"><g id="XMLID_484_"><g id="XMLID_485_"><g id="XMLID_489_"><g id="XMLID_490_"><g><path d="m512 256c0 68.29-26.74 130.33-70.31 176.23-7.72 8.13-15.97 12.84-24.69 15.03-43.98 11.05-100-41.81-161-41.81-73.1 0-139.04 75.91-185.69 26.78-43.57-45.9-70.31-107.94-70.31-176.23 0-141.38 114.62-256 256-256 137.66 0 249.95 108.67 255.76 244.9.16 3.68.24 7.38.24 11.1z" fill="#dd4571"/></g></g></g></g></g></g></g></g></g></g></g></g></g></g></g></g></g></g></g><path d="m512 256c0 68.29-26.74 130.33-70.31 176.23-7.72 8.13-15.97 12.84-24.69 15.03l-158.72-106.98-93.93-93.92 162.87-186 184.54 184.54c.16 3.68.24 7.38.24 11.1z" fill="#c12156"/><g><circle cx="185.425" cy="211.486" fill="#efefef" r="40.742"/><path d="m199.97 200.69h112.06v118.84h-112.06z" fill="#eaa678"/><path d="m256 200.693h56.03v118.84h-56.03z" fill="#d38c5b"/><path d="m327.704 330.488h-143.408v-29.204c0-9.995 8.103-18.098 18.098-18.098h107.213c9.995 0 18.098 8.103 18.098 18.098v29.204z" fill="#fbe280"/><path d="m327.7 301.28v29.21h-71.7v-47.3h53.61c9.99 0 18.09 8.1 18.09 18.09z" fill="#efc859"/><path d="m441.69 381.46v50.77c-46.65 49.13-112.59 79.77-185.69 79.77s-139.04-30.64-185.69-79.77v-50.77c0-29.92 24.25-54.17 54.17-54.17h131.52l30.583 9.47 21.608-9.47h79.329c29.92 0 54.17 24.25 54.17 54.17z" fill="#336b90"/><path d="m441.69 381.46v50.77c-46.65 49.13-112.59 79.77-185.69 79.77v-176.366l52.191-8.344h79.329c29.92 0 54.17 24.25 54.17 54.17z" fill="#205077"/><path d="m157.33 405.45v86.82c-11.17-4.66-21.95-10.11-32.25-16.25v-70.57z" fill="#205077"/><path d="m386.92 405.45v70.57c-10.3 6.14-21.08 11.59-32.25 16.25v-86.82z" fill="#163c66"/><path d="m344.878 122.25c-3.755-57.002-49.863-78.068-88.878-78.068s-85.123 21.066-88.878 78.067c-10.089 1.951-17.256 15.184-16.128 25.884l1.729 24.349c1.184 11.236 11.06 19.438 21.944 18.217l1.877-.203c22.296 59.868 57.261 66.11 79.455 69.615 22.194-3.505 57.159-9.747 79.455-69.615l1.877.203c10.884 1.221 20.761-6.982 21.944-18.217l1.729-24.349c1.13-10.699-6.037-23.932-16.126-25.883z" fill="#ffc397"/><path d="m361.005 148.133-1.729 24.349c-1.184 11.236-11.06 19.438-21.944 18.217l-1.877-.203c-7.62 20.437-16.71 34.632-26.263 44.591-18.421 19.217-38.572 22.713-53.192 25.024v-215.929c39.015 0 85.123 21.066 88.878 78.067 10.089 1.952 17.256 15.185 16.127 25.884z" fill="#eaa678"/><path d="m327.215 60.361c-24.871-25.961-71.215-17.43-71.215-17.43s-46.344-8.53-71.215 17.43c-42.494 44.355-16.425 102.221-16.425 102.221 70.327-18.432 87.64-49.336 87.64-49.336s17.313 30.904 87.64 49.336c0 0 26.069-57.867-16.425-102.221z" fill="#efefef"/><path d="m343.64 162.58c-70.33-18.43-87.64-49.33-87.64-49.33v-70.32s46.34-8.53 71.22 17.43c42.49 44.36 16.42 102.22 16.42 102.22z" fill="#cecece"/><path d="m256 327.29h52.191v137.454h-52.191z" fill="#d8a936"/></g></g></svg>