<svg id="Layer_1" enable-background="new 0 0 512 512" height="512" viewBox="0 0 512 512" width="512" xmlns="http://www.w3.org/2000/svg"><g><g><g><g><g><g id="XMLID_1965_"><g id="XMLID_1966_"><g id="XMLID_1967_"><g id="XMLID_1968_"><g id="XMLID_2029_"><g id="XMLID_2030_"><g id="XMLID_2031_"><g id="XMLID_2032_"><g id="XMLID_2033_"><g id="XMLID_2034_"><g id="XMLID_2035_"><g id="XMLID_2036_"><g id="XMLID_2037_"><g id="XMLID_2038_"><g><path d="m512 256c0 59.61-20.38 114.46-54.54 157.97-35.84 45.64-86.85 16.624-145.43 29.694-18.03 4.04-94.03 4.04-112.06 0-58.58-13.07-109.59 15.946-145.43-29.694-34.16-43.51-54.54-98.36-54.54-157.97 0-141.38 114.62-256 256-256s256 114.62 256 256z" fill="#5de9f4"/></g></g></g></g></g></g></g></g></g></g></g></g></g></g></g></g></g></g></g><path d="m331.78 82.31-2.617 16.583-73.163-73.163-95.353 189.98 88.935 88.935 150.519 136.243c21.763-.885 41.118-6.236 57.359-26.918 32.925-41.937 53.045-94.409 54.457-151.523z" fill="#4bc5ef"/><path d="m199.97 250.232h112.06v118.84h-112.06z" fill="#eaa678"/><path d="m256 250.236h56.03v118.84h-56.03z" fill="#d38c5b"/><path d="m344.251 152.225c-3.728-56.6-49.511-77.517-88.251-77.517s-84.523 20.917-88.251 77.517c-10.018 1.938-17.134 15.077-16.014 25.701l1.717 24.177c1.175 11.157 10.982 19.301 21.79 18.089l1.864-.202c22.139 59.446 56.857 65.644 78.894 69.124 22.037-3.48 56.756-9.678 78.894-69.124l1.864.202c10.807 1.212 20.614-6.932 21.79-18.089l1.717-24.177c1.12-10.624-5.996-23.763-16.014-25.701z" fill="#ffc397"/><path d="m360.265 177.926-1.717 24.177c-1.175 11.157-10.982 19.301-21.79 18.089l-1.864-.202c-7.566 20.293-16.592 34.388-26.078 44.277-18.291 19.081-38.299 22.552-52.817 24.847v-214.406c38.74 0 84.523 20.917 88.251 77.517 10.019 1.938 17.135 15.077 16.015 25.701z" fill="#eaa678"/><path d="m331.784 82.307c-15.829-14.95-75.784-56.576-75.784-56.576s-59.955 41.627-75.785 56.577-40.454 52.766-8.794 107.291h15.83l9.562-47.249c2.84-14.034 17.475-22.277 30.949-17.431l2.504.901c16.634 5.982 34.833 5.982 51.468 0l2.504-.901c13.474-4.845 28.108 3.397 30.949 17.431l9.562 47.249h15.83c31.659-54.525 7.035-92.341-8.795-107.292z" fill="#515151"/><path d="m199.97 324.824h112.06v118.84h-112.06z" fill="#ffc397"/><path d="m256 324.824h56.03v118.84h-56.03z" fill="#eaa678"/><path d="m345.92 495.75c-10.96 4.12-22.28 7.5-33.89 10.09-18.03 4.04-36.78 6.16-56.03 6.16s-38-2.12-56.03-6.16c-11.61-2.59-22.93-5.97-33.89-10.09l33.89-165.7c12.93 20.73 34.48 31.09 56.03 31.09s43.1-10.36 56.03-31.09z" fill="#fff"/><path d="m345.92 495.75c-10.96 4.12-22.28 7.5-33.89 10.09-18.03 4.04-36.78 6.16-56.03 6.16v-150.86c21.55 0 43.1-10.36 56.03-31.09z" fill="#cecece"/><path d="m199.97 324.82v181.02c-58.58-13.07-109.59-46.23-145.43-91.87v-32.737c0-31.156 25.257-56.413 56.413-56.413h33.684l33.036 9.312z" fill="#af5e22"/><path d="m457.46 381.233v32.737c-35.84 45.64-86.85 78.8-145.43 91.87v-181.02l26.883 6.121 28.45-6.121h33.684c31.156 0 56.413 25.257 56.413 56.413z" fill="#89491d"/><g><path d="m199.97 324.82h-55.333l17.456 67.501 15.58 4.13 22.297 47.213z" fill="#89491d"/><path d="m312.03 324.82h55.333l-17.456 67.501-15.58 4.13-22.297 47.213z" fill="#5b2e10"/></g><path d="m340.58 189.6h-15.83l-9.56-47.25c-2.84-14.03-17.48-22.28-30.95-17.43l-2.51.9c-8.31 2.99-17.02 4.48-25.73 4.48v-104.57s59.95 41.63 75.78 56.58 40.46 52.76 8.8 107.29z" fill="#3d3d3d"/></g></svg>