<svg id="Layer_1" enable-background="new 0 0 512 512" height="512" viewBox="0 0 512 512" width="512" xmlns="http://www.w3.org/2000/svg"><g><g><g><g><g><g id="XMLID_2068_"><g id="XMLID_2069_"><g id="XMLID_2128_"><g id="XMLID_2129_"><g id="XMLID_2130_"><g id="XMLID_2131_"><g id="XMLID_2132_"><g id="XMLID_2133_"><g id="XMLID_2134_"><g id="XMLID_2285_"><g id="XMLID_2286_"><g id="XMLID_2287_"><g id="XMLID_2288_"><g id="XMLID_2289_"><g><path d="m512 256c0 65.98-24.97 126.13-65.95 171.52-46.86 51.88-114.65-3.101-190.05-3.101s-143.19 54.981-190.05 3.101c-40.98-45.39-65.95-105.54-65.95-171.52 0-141.38 114.62-256 256-256s256 114.62 256 256z" fill="#5bbc96"/></g></g></g></g></g></g></g></g></g></g></g></g></g></g></g></g></g></g></g><path d="m510.901 232.171-186.751-186.751-33.518 16.79-7.428 78.908-83.234-49.753-52.114 7.993 91.274 91.274-75.675 27.049 105.297 105.297 9.702-9.624 152.181 127.144c5.358-3.277 10.503-7.538 15.416-12.978 40.979-45.39 65.949-105.54 65.949-171.52 0-8.035-.374-15.982-1.099-23.829z" fill="#309167"/><g><path d="m199.97 250.232h112.06v118.84h-112.06z" fill="#eaa678"/><path d="m256 250.236h56.03v118.84h-56.03z" fill="#d38c5b"/><path d="m344.251 152.225c-3.728-56.6-49.511-77.517-88.251-77.517s-84.523 20.917-88.251 77.517c-10.018 1.938-17.134 15.077-16.014 25.701l1.717 24.177c1.175 11.157 10.982 19.301 21.79 18.089l1.864-.202c22.138 59.446 56.857 65.644 78.894 69.124 22.038-3.48 56.756-9.678 78.894-69.124l1.864.202c10.807 1.212 20.614-6.932 21.79-18.089l1.717-24.177c1.12-10.624-5.996-23.763-16.014-25.701z" fill="#ffc397"/><path d="m360.265 177.926-1.717 24.177c-1.175 11.157-10.982 19.301-21.79 18.089l-1.864-.202c-7.566 20.293-16.592 34.388-26.078 44.277-18.291 19.081-38.299 22.552-52.817 24.847v-214.406c38.74 0 84.523 20.917 88.251 77.517 10.019 1.938 17.135 15.077 16.015 25.701z" fill="#eaa678"/><path d="m364.144 99.358c-19.813-20.913-49.268-31.237-49.268-31.237l9.275-22.698-5.443-.64c-21.083-2.48-42.452-.48-62.709 5.869-20.257-6.349-41.626-8.349-62.709-5.869l-5.443.64 9.275 22.698s-29.455 10.323-49.268 31.237l18.109 5.609s-9.854 49.151 12.435 76.944h12.383l10.456-52.834c34.599 16.691 74.921 16.691 109.52 0l10.457 52.834h12.383c22.289-27.793 12.435-76.944 12.435-76.944z" fill="#af5e22"/><path d="m346.03 104.97s9.86 49.15-12.43 76.94h-12.38l-10.46-52.83c-17.3 8.34-36.03 12.52-54.76 12.52v-90.95c20.26-6.35 41.63-8.35 62.71-5.87l5.44.64-9.27 22.7s29.45 10.32 49.26 31.24z" fill="#89491d"/><path d="m199.97 324.824h112.06v118.84h-112.06z" fill="#ffc397"/><path d="m256 324.824h56.03v118.84h-56.03z" fill="#eaa678"/><path d="m446.05 382.27v45.25c-46.86 51.88-114.65 84.48-190.05 84.48s-143.19-32.6-190.05-84.48v-45.25c0-31.73 25.72-57.45 57.45-57.45h76.57l56.03 87.935 56.03-87.935h76.57c31.73 0 57.45 25.72 57.45 57.45z" fill="#336b90"/><path d="m446.05 382.27v45.25c-46.86 51.88-114.65 84.48-190.05 84.48v-99.25l56.03-87.93h76.57c31.73 0 57.45 25.72 57.45 57.45z" fill="#205077"/><path d="m157.33 412.755v79.515c-11.17-4.66-21.95-10.11-32.25-16.25v-63.265z" fill="#205077"/><path d="m386.92 412.755v63.265c-10.3 6.14-21.08 11.59-32.25 16.25v-79.515z" fill="#17416b"/></g></g></svg>