<svg id="Layer_1" enable-background="new 0 0 512 512" height="512" viewBox="0 0 512 512" width="512" xmlns="http://www.w3.org/2000/svg"><g><g><g><g><g><g id="XMLID_1064_"><g id="XMLID_1065_"><g id="XMLID_1066_"><g id="XMLID_1067_"><g id="XMLID_1068_"><g id="XMLID_1069_"><g id="XMLID_1070_"><g id="XMLID_1071_"><g id="XMLID_1072_"><g id="XMLID_1073_"><g id="XMLID_1074_"><g id="XMLID_1075_"><g id="XMLID_1076_"><g id="XMLID_1077_"><g><path d="m512 256c0 65.18-24.36 124.67-64.47 169.86-38.59 43.48-344.47 43.48-383.06 0-40.11-45.19-64.47-104.68-64.47-169.86 0-141.38 114.62-256 256-256s256 114.62 256 256z" fill="#5bbc96"/></g></g></g></g></g></g></g></g></g></g></g></g></g></g></g></g></g></g></g><path d="m194.46 324.82 157.381 128.795c46.781-5.152 83.838-14.403 95.689-27.755 40.11-45.19 64.47-104.68 64.47-169.86 0-4.28-.107-8.534-.315-12.763l-166.576-166.576z" fill="#309167"/><g><path d="m376.106 173.603c1.889-8.121 1.875-15.854.556-23.106h.007c-.018-.095-.038-.185-.056-.28-.06-.319-.125-.636-.19-.953-24.054-125.167-120.423-107.994-120.423-107.994s-96.369-17.173-120.423 107.995c-.065.317-.13.634-.19.953-.018.095-.038.185-.056.28h.007c-1.319 7.252-1.333 14.985.556 23.106 11.262 48.428-38.292 63.633-33.787 105.866 4.505 42.234 46.739 58.001 46.739 58.001h214.308s42.234-15.767 46.739-58.001-45.05-57.438-33.787-105.867z" fill="#515151"/><path d="m409.89 279.47c-2.29 21.51-14.37 36.15-25.68 45.35-10.89 8.86-21.06 12.65-21.06 12.65h-107.15v-296.2s96.37-17.17 120.42 107.99c.07.32.13.64.19.96.02.09.04.18.06.28h-.01c1.32 7.25 1.33 14.98-.55 23.1-11.27 48.43 38.29 63.64 33.78 105.87z" fill="#3d3d3d"/><path d="m199.97 250.232h112.06v118.84h-112.06z" fill="#eaa678"/><path d="m256 250.236h56.03v118.84h-56.03z" fill="#d38c5b"/><path d="m199.97 324.824h112.06v118.84h-112.06z" fill="#ffc397"/><path d="m256 324.824h56.03v118.84h-56.03z" fill="#eaa678"/><path d="m447.53 362.17v63.69c-46.9 52.84-115.33 86.14-191.53 86.14s-144.63-33.3-191.53-86.14v-63.69c0-20.63 16.72-37.35 37.35-37.35h92.64l38.85 53.85 22.69 57.72 22.69-57.72 38.85-53.85h92.64c20.63 0 37.35 16.72 37.35 37.35z" fill="#efefef"/><path d="m447.53 362.17v63.69c-46.9 52.84-115.33 86.14-191.53 86.14v-75.61l22.69-57.72 29.72-41.2 9.13-12.65h92.64c20.63 0 37.35 16.72 37.35 37.35z" fill="#dbdbdb"/><path d="m295.67 376.7v132.24c-12.93 2.02-26.18 3.06-39.67 3.06v-75.61l22.69-57.72z" fill="#efc859"/><path d="m256 436.39v75.61c-13.49 0-26.74-1.04-39.67-3.06v-132.24l16.98 1.97z" fill="#fbe280"/><path d="m344.251 152.225c-3.728-56.6-49.511-77.517-88.251-77.517s-84.523 20.917-88.251 77.517c-10.018 1.938-17.134 15.077-16.014 25.701l1.717 24.177c1.175 11.157 10.982 19.301 21.79 18.089l1.864-.202c22.138 59.446 56.857 65.644 78.894 69.124 22.038-3.48 56.756-9.678 78.894-69.124l1.864.202c10.807 1.212 20.614-6.933 21.79-18.089l1.717-24.177c1.12-10.624-5.996-23.763-16.014-25.701z" fill="#ffc397"/><path d="m360.265 177.926-1.717 24.177c-1.175 11.157-10.982 19.301-21.79 18.089l-1.864-.202c-7.566 20.293-16.592 34.388-26.078 44.277-18.291 19.081-38.299 22.552-52.817 24.847v-214.406c38.74 0 84.523 20.917 88.251 77.517 10.019 1.938 17.135 15.077 16.015 25.701z" fill="#eaa678"/><path d="m345.246 130.991c.136-27.285-12.876-89.72-89.246-89.72s-89.382 62.435-89.246 89.72c-13.738 11.043-30.269 39.624-7.8 112.109l23.623 7.136v-78.8c0-17.667 8.483-34.34 22.954-44.474 26.333-18.441 50.469-36.526 50.469-36.526s24.136 18.085 50.469 36.525c14.471 10.133 22.954 26.807 22.954 44.474v78.8l23.623-7.136c22.469-72.485 5.938-101.065-7.8-112.108z" fill="#515151"/><path d="m353.05 243.1-23.63 7.14v-78.8c0-17.67-8.48-34.35-22.95-44.48-26.33-18.44-50.47-36.52-50.47-36.52v-49.17c76.37 0 89.38 62.44 89.25 89.72 13.73 11.04 30.27 39.62 7.8 112.11z" fill="#3d3d3d"/><path d="m199.97 299.273-50.654 25.551 39.605 76.289 44.393-22.44z" fill="#ea9611"/><g><g><path d="m312.03 299.273 50.654 25.551-39.605 76.289-44.393-22.44z" fill="#cc7a05"/></g></g></g></g></svg>