<svg id="Layer_1" enable-background="new 0 0 512 512" height="512" viewBox="0 0 512 512" width="512" xmlns="http://www.w3.org/2000/svg"><g><g><g><g><g><g id="XMLID_907_"><g id="XMLID_908_"><g id="XMLID_909_"><g id="XMLID_910_"><g id="XMLID_911_"><g id="XMLID_967_"><g id="XMLID_968_"><g id="XMLID_969_"><g id="XMLID_970_"><g id="XMLID_971_"><g id="XMLID_1662_"><g id="XMLID_1663_"><g id="XMLID_1664_"><g id="XMLID_1680_"><g><path d="m77.88 439.87c-48.03-46.53-77.88-111.72-77.88-183.87 0-141.38 114.62-256 256-256s256 114.62 256 256c0 72.15-29.85 137.34-77.88 183.87z" fill="#fbe280"/></g></g></g></g></g></g></g></g></g></g></g></g></g></g></g></g></g></g></g><path d="m512 256c0-9.305-.501-18.492-1.469-27.54l-149.409-149.408-69.272 258.419 58.757 102.399h83.513c48.03-46.53 77.88-111.72 77.88-183.87z" fill="#efc859"/><g><path d="m140.95 390.22v94.52c-23.28-11.72-44.53-26.91-63.07-44.87v-49.65z" fill="#ffc397"/><path d="m434.12 390.22v49.65c-18.54 17.96-39.79 33.15-63.07 44.87v-94.52z" fill="#eaa678"/></g><path d="m386.204 140.755c-18.085-114.891-119.062-95.138-130.204-92.595-11.142-2.544-112.119-22.296-130.204 92.594-16.894 85.879 10.1 174.531 71.989 236.42l.797.797h114.834l.797-.797c61.89-61.888 88.885-150.54 71.991-236.419z" fill="#af5e22"/><path d="m314.21 377.18-.79.79h-57.42v-329.81c11.14-2.54 112.12-22.3 130.2 92.59 16.9 85.88-10.1 174.54-71.99 236.43z" fill="#89491d"/><path d="m199.97 250.232h112.06v118.84h-112.06z" fill="#eaa678"/><path d="m256 250.236h56.03v118.84h-56.03z" fill="#d38c5b"/><path d="m405.562 424.076h-299.123v-28.742c0-37.578 33.376-68.042 70.954-68.042h160.127c37.578 0 68.042 30.463 68.042 68.042z" fill="#ffc397"/><path d="m405.566 390.088v33.983h-149.566v-96.781h78.607c26.092 0 56.625 15.921 66.104 38.571 3.129 7.457 4.855 15.635 4.855 24.227z" fill="#eaa678"/><path d="m344.251 152.225c-3.728-56.6-49.511-77.517-88.251-77.517s-84.523 20.917-88.251 77.517c-10.018 1.938-17.134 15.077-16.014 25.701l1.717 24.177c1.175 11.157 10.982 19.301 21.79 18.089l1.864-.202c22.139 59.446 56.857 65.644 78.894 69.124 22.037-3.48 56.756-9.678 78.894-69.124l1.864.202c10.807 1.212 20.614-6.933 21.79-18.089l1.717-24.177c1.12-10.624-5.996-23.763-16.014-25.701z" fill="#ffc397"/><path d="m360.265 177.926-1.717 24.177c-1.175 11.157-10.982 19.301-21.79 18.089l-1.864-.202c-7.566 20.293-16.592 34.388-26.078 44.277-18.291 19.081-38.299 22.552-52.817 24.847v-214.406c38.74 0 84.523 20.917 88.251 77.517 10.019 1.938 17.135 15.077 16.015 25.701z" fill="#eaa678"/><path d="m338.65 99.084c-18.768-35.382-66.156-34.454-82.65-32.967-16.494-1.487-63.882-2.415-82.65 32.967-22.9 43.172 2.252 96.857 2.252 96.857l32.286-58.94 14.266 36.79 33.846-32.285 33.846 32.286 14.266-36.79 32.286 58.94c-.001-.002 25.152-53.686 2.252-96.858z" fill="#af5e22"/><path d="m336.4 195.94-32.29-58.94-14.26 36.79-33.85-32.28v-75.39c16.49-1.49 63.88-2.42 82.65 32.96 22.9 43.18-2.25 96.86-2.25 96.86z" fill="#89491d"/><path d="m449.96 397.28-14.32 2.34c-3.8.62-7.17 2.48-9.68 5.15-2.52 2.66-4.18 6.13-4.57 9.97-.83 7.94-7.04 14.26-14.97 15.22l-3.12.38c-8.6 1.03-15.07 8.33-15.07 16.99v27.91c-5.59 3.38-11.32 6.55-17.18 9.5-34.59 17.44-73.67 27.26-115.05 27.26s-80.46-9.82-115.05-27.26c-5.86-2.95-11.59-6.12-17.18-9.5v-27.91c0-8.66-6.47-15.96-15.07-16.99l-3.12-.38c-3.96-.48-7.5-2.3-10.15-4.99s-4.41-6.26-4.82-10.23c-.79-7.68-6.63-13.87-14.25-15.12l-14.32-2.34 28.29-41.86c11.9-17.59 31.74-28.13 52.98-28.13h34.08l78.61 48.39 78.61-48.39h34.08c21.24 0 41.08 10.54 52.98 28.13z" fill="#5bbc96"/><path d="m449.96 397.28-14.32 2.34c-3.8.62-7.17 2.48-9.68 5.15-2.52 2.66-4.18 6.13-4.57 9.97-.83 7.94-7.04 14.26-14.97 15.22l-3.12.38c-8.6 1.03-15.07 8.33-15.07 16.99v27.91c-5.59 3.38-11.32 6.55-17.18 9.5-34.59 17.44-73.67 27.26-115.05 27.26v-136.32l78.61-48.39h34.08c21.24 0 41.08 10.54 52.98 28.13z" fill="#399e73"/></g></svg>