<svg id="Layer_1" enable-background="new 0 0 512 512" height="512" viewBox="0 0 512 512" width="512" xmlns="http://www.w3.org/2000/svg"><g><g><g><g><g><g id="XMLID_1034_"><g id="XMLID_1035_"><g id="XMLID_1036_"><g id="XMLID_1037_"><g id="XMLID_1038_"><g id="XMLID_1039_"><g id="XMLID_1040_"><g id="XMLID_1041_"><g id="XMLID_1042_"><g id="XMLID_1043_"><g id="XMLID_1044_"><g id="XMLID_1045_"><g id="XMLID_1046_"><g id="XMLID_1047_"><g><path d="m448.28 425.01c39.66-45.09 63.72-104.24 63.72-169.01 0-141.38-114.62-256-256-256s-256 114.62-256 256c0 64.77 24.06 123.92 63.72 169.01z" fill="#336b90"/></g></g></g></g></g></g></g></g></g></g></g></g></g></g></g></g></g></g></g><path d="m512 256c0-.598-.007-1.194-.011-1.791l-179.502-179.501-180.868 209.803 140.499 140.499h156.162c39.66-45.09 63.72-104.24 63.72-169.01z" fill="#205077"/><path d="m332.811 203.329-76.811-3.379-76.811 3.379s-35.101 21.398-35.101 59.691c0 34.538 36.79 39.981 111.912 39.981s111.912-5.443 111.912-39.981c0-38.293-35.101-59.691-35.101-59.691z" fill="#fbe280"/><path d="m367.91 263.02c0 34.54-36.79 39.98-111.91 39.98v-103.05l76.81 3.38s35.1 21.4 35.1 59.69z" fill="#efc859"/><path d="m199.97 250.232h112.06v118.84h-112.06z" fill="#eaa678"/><path d="m256 250.236h56.03v118.84h-56.03z" fill="#d38c5b"/><path d="m345.92 495.75c-10.96 4.12-22.28 7.5-33.89 10.09-18.03 4.04-36.78 6.16-56.03 6.16s-38-2.12-56.03-6.16c-11.61-2.59-22.93-5.97-33.89-10.09v-165.7h89.92l35.892 12.02 20.138-12.02h33.89z" fill="#fff"/><path d="m345.92 495.75c-10.96 4.12-22.28 7.5-33.89 10.09-18.03 4.04-36.78 6.16-56.03 6.16v-181.95h93.907z" fill="#cecece"/><path d="m344.251 152.225c-3.728-56.6-49.511-77.517-88.251-77.517s-84.523 20.917-88.251 77.517c-10.018 1.938-17.134 15.077-16.014 25.701l1.717 24.177c1.175 11.157 10.982 19.301 21.79 18.089l1.864-.202c22.139 59.446 56.857 65.644 78.894 69.124 22.037-3.48 56.756-9.678 78.894-69.124l1.864.202c10.807 1.212 20.614-6.933 21.79-18.089l1.717-24.177c1.12-10.624-5.996-23.763-16.014-25.701z" fill="#ffc397"/><path d="m360.265 177.926-1.717 24.177c-1.175 11.157-10.982 19.301-21.79 18.089l-1.864-.202c-7.566 20.293-16.592 34.388-26.078 44.277-18.291 19.081-38.299 22.552-52.817 24.847v-214.406c38.74 0 84.523 20.917 88.251 77.517 10.019 1.938 17.135 15.077 16.015 25.701z" fill="#eaa678"/><path d="m162.093 124.706s.845 34.167 14.359 57.206l23.517-57.206s44.057 35.477 89.67 38.011v-38.011l41.389 57.206s22.806-30.176 17.738-72.41-52.92-66.73-92.767-66.73c-39.846 0-93.061 18.583-93.906 81.934z" fill="#fbe280"/><path d="m331.03 181.91-41.39-57.2v38.01c-11.54-.64-22.98-3.39-33.64-7.15v-112.8c39.85 0 87.7 24.5 92.77 66.73 5.07 42.24-17.74 72.41-17.74 72.41z" fill="#efc859"/><g><g><path d="m198.09 505.42c-52.98-12.25-99.65-40.94-134.37-80.41v-47.124c0-26.419 21.417-47.836 47.836-47.836h52.014z" fill="#dd4571"/><path d="m198.72 505.56c-.21-.04-.42-.09-.63-.14-13.4-3.1-26.4-7.25-38.9-12.36l10.01-49.72-41.67-29.28 36.04-84.01h6.76z" fill="#5bbc96"/></g><g><path d="m448.28 377.886v47.124c-34.72 39.47-81.39 68.16-134.37 80.41l34.52-175.37h52.014c26.419 0 47.836 21.417 47.836 47.836z" fill="#c12156"/><path d="m342.8 443.34 10.01 49.72c-12.5 5.11-25.5 9.26-38.9 12.36-.21.05-.42.1-.63.14l28.39-175.51h6.76l36.04 84.01z" fill="#399e73"/></g></g></g></svg>