<svg id="Layer_1" enable-background="new 0 0 512 512" height="512" viewBox="0 0 512 512" width="512" xmlns="http://www.w3.org/2000/svg"><g><g><g><g><g><g id="XMLID_825_"><g id="XMLID_826_"><g id="XMLID_827_"><g id="XMLID_942_"><g id="XMLID_943_"><g id="XMLID_944_"><g id="XMLID_945_"><g id="XMLID_946_"><g id="XMLID_947_"><g id="XMLID_948_"><g id="XMLID_949_"><g id="XMLID_950_"><g id="XMLID_951_"><g id="XMLID_952_"><g><path d="m512 256c0 56.15-18.08 108.07-48.73 150.27-41.36 56.96-371.41 58.23-413.09 1.98-31.53-42.55-50.18-95.22-50.18-152.25 0-141.38 114.62-256 256-256s256 114.62 256 256z" fill="#5de9f4"/></g></g></g></g></g></g></g></g></g></g></g></g></g></g></g></g></g></g></g><path d="m463.27 406.27c30.65-42.2 48.73-94.12 48.73-150.27 0-7.349-.314-14.624-.921-21.816l-159.895-159.895.034.246-20.547-20.547-4.777 20.156-34.903-34.904-135.163 109.319 24.061 24.061-18.124 43.96 105.397 105.397-11.162 47.098 145.8 66.309c30.094-7.09 52.529-16.8 61.47-29.114z" fill="#4bc5ef"/><path d="m199.97 250.232h112.06v118.84h-112.06z" fill="#eaa678"/><path d="m256 250.236h56.03v118.84h-56.03z" fill="#d38c5b"/><path d="m199.97 250.232h112.06v118.84h-112.06z" fill="#fff"/><path d="m256 250.236h56.03v118.84h-56.03z" fill="#cecece"/><path d="m367.46 327.29v159.24c-33.69 16.32-71.51 25.47-111.46 25.47s-77.77-9.15-111.46-25.47v-159.24z" fill="#e0e0e0"/><path d="m229.44 475.25v35.39c-73.39-7.57-137.58-46.14-179.26-102.39v-32.89c0-26.55 21.52-48.07 48.07-48.07h46.29l37.97 18.72z" fill="#af5e22"/><path d="m367.46 327.29v159.24c-33.69 16.32-71.51 25.47-111.46 25.47v-184.71z" fill="#bfbfbf"/><path d="m463.27 375.36v30.91c-41.36 56.96-105.62 96.2-179.26 104.21v-35.23l46.93-129.24 37.98-18.72h46.28c26.55 0 48.07 21.52 48.07 48.07z" fill="#89491d"/><path d="m344.251 152.225c-3.728-56.6-49.511-77.517-88.251-77.517s-84.523 20.917-88.251 77.517c-10.018 1.938-17.134 15.077-16.014 25.701l1.717 24.177c1.175 11.157 10.982 19.301 21.79 18.089l1.864-.202c22.138 59.446 56.857 65.644 78.894 69.124 22.038-3.48 56.756-9.678 78.894-69.124l1.864.202c10.807 1.212 20.614-6.933 21.79-18.089l1.717-24.177c1.12-10.624-5.996-23.763-16.014-25.701z" fill="#ffc397"/><path d="m360.265 177.926-1.717 24.177c-1.175 11.157-10.982 19.301-21.79 18.089l-1.864-.202c-7.566 20.293-16.592 34.388-26.078 44.277-18.291 19.081-38.299 22.552-52.817 24.847v-214.406c38.74 0 84.523 20.917 88.251 77.517 10.019 1.938 17.135 15.077 16.015 25.701z" fill="#eaa678"/><path d="m366.646 127.073c0-9.085-4.412-17.115-11.166-22.002 1.855-3.686 2.909-7.861 2.909-12.288 0-13.367-9.543-24.457-22.064-26.595-2.318-12.485-13.073-21.93-25.998-21.93-4.786 0-9.272 1.301-13.145 3.566-4.207-9.222-13.371-15.618-24.007-15.618-6.557 0-12.552 2.435-17.175 6.459-4.623-4.024-10.618-6.459-17.175-6.459-9.911 0-18.544 5.556-23.079 13.774-2.898-1.111-6.035-1.722-9.313-1.722-12.798 0-23.475 9.258-25.933 21.562-.141-.002-.28-.011-.421-.011-14.617 0-26.467 12.076-26.467 26.973 0 4.428 1.053 8.602 2.909 12.288-6.754 4.888-11.166 12.917-11.166 22.002 0 12.617 8.501 23.208 19.984 26.155.957 3.561 2.061 7.367 3.324 11.295 4.075 12.674 12.26 23.562 23.13 30.988l6.543-48.162c3.014-16.462 19.098-26.862 34.996-22.628 14.863 3.958 30.475 3.958 45.339 0 15.898-4.234 31.982 6.166 34.996 22.628l6.543 48.162c10.87-7.426 19.055-18.314 23.13-30.988 1.262-3.927 2.367-7.733 3.323-11.295 11.482-2.946 19.983-13.537 19.983-26.154z" fill="#515151"/><path d="m366.65 127.07c0 12.62-8.51 23.21-19.99 26.16-.95 3.56-2.06 7.37-3.32 11.29-2.04 6.34-5.1 12.23-9.02 17.46-3.91 5.24-8.68 9.82-14.11 13.53l-6.54-48.16c-2.56-13.97-14.53-23.57-27.82-23.57-2.37 0-4.77.3-7.18.94-7.43 1.98-15.05 2.97-22.67 2.97v-89.02c4.62-4.03 10.62-6.46 17.18-6.46 10.63 0 19.8 6.39 24 15.61 3.88-2.26 8.36-3.56 13.15-3.56 12.92 0 23.68 9.44 26 21.93 12.52 2.14 22.06 13.23 22.06 26.59 0 4.43-1.05 8.6-2.91 12.29 6.75 4.89 11.17 12.92 11.17 22z" fill="#3d3d3d"/><path d="m199.97 305.561-55.43 21.729 16.94 56.515 31.306 5.669-14.402 28.261 51.056 57.513z" fill="#ea9611"/><path d="m312.03 305.561 55.43 21.729-16.94 56.515-31.306 5.669 14.402 28.261-51.056 57.513z" fill="#cc7a05"/></g></svg>