<svg id="Layer_1" enable-background="new 0 0 512 512" height="512" viewBox="0 0 512 512" width="512" xmlns="http://www.w3.org/2000/svg"><g><g><g><g><g><g id="XMLID_997_"><g id="XMLID_998_"><g id="XMLID_999_"><g id="XMLID_1000_"><g id="XMLID_1001_"><g id="XMLID_1356_"><g id="XMLID_1357_"><g id="XMLID_1358_"><g id="XMLID_1430_"><g id="XMLID_1431_"><g id="XMLID_1432_"><g id="XMLID_1434_"><g id="XMLID_1435_"><g id="XMLID_1436_"><g id="XMLID_1437_"><path d="m0 256c0-141.385 114.615-256 256-256s256 114.615 256 256c0 65.978-24.96 126.127-65.952 171.519-46.849 51.878-114.641 42.661-190.048 42.661s-143.199 9.218-190.048-42.661c-40.992-45.392-65.952-105.541-65.952-171.519z" fill="#dd4571"/></g></g></g></g></g></g></g></g></g></g></g></g></g></g></g></g></g></g></g><path d="m354.184 469.162c35.31-3.479 66.626-13.696 91.864-41.643 40.992-45.392 65.952-105.541 65.952-171.519 0-6.656-.254-13.252-.753-19.779l-161.513-161.513s-208.744 17.765-215.501 45.707l32.535 32.535-38.106 31.728 153.707 153.707-7.919 30.996z" fill="#c12156"/><path d="m199.97 250.232h112.06v118.84h-112.06z" fill="#eaa678"/><path d="m256 250.236h56.03v118.84h-56.03z" fill="#d38c5b"/><path d="m344.251 152.225c-3.728-56.6-49.511-77.517-88.251-77.517s-84.523 20.917-88.251 77.517c-10.018 1.938-17.134 15.077-16.014 25.701l1.717 24.177c1.175 11.157 10.982 19.301 21.79 18.089l1.864-.202c22.138 59.446 56.857 65.644 78.894 69.124 22.038-3.48 56.756-9.678 78.894-69.124l1.864.202c10.807 1.212 20.614-6.933 21.79-18.089l1.717-24.177c1.12-10.624-5.996-23.763-16.014-25.701z" fill="#ffc397"/><path d="m360.265 177.926-1.717 24.177c-1.175 11.157-10.982 19.301-21.79 18.089l-1.864-.202c-7.566 20.293-16.592 34.388-26.078 44.277-18.291 19.081-38.299 22.552-52.817 24.847v-214.406c38.74 0 84.523 20.917 88.251 77.517 10.019 1.938 17.135 15.077 16.015 25.701z" fill="#eaa678"/><path d="m346.529 445.735-217.868-8.779c0-37.578 71.309-112.135 71.309-112.135h112.06s78.422 83.337 78.422 120.915h-43.923z" fill="#ffc397"/><path d="m390.45 445.74h-43.92l-90.53-3.65v-117.27h56.03s78.42 83.34 78.42 120.92z" fill="#eaa678"/><path d="m446.05 382.27v45.25c-46.86 51.88-114.65 84.48-190.05 84.48s-143.19-32.6-190.05-84.48v-45.25c0-31.73 25.72-57.45 57.45-57.45h76.57v12.46c0 30.95 25.09 56.03 56.03 56.03 15.47 0 29.48-6.27 39.62-16.41s16.41-24.14 16.41-39.62v-12.46h76.57c31.73 0 57.45 25.72 57.45 57.45z" fill="#5de9f4"/><path d="m446.05 382.27v45.25c-46.86 51.88-114.65 84.48-190.05 84.48v-118.69c15.47 0 29.48-6.27 39.62-16.41s16.41-24.14 16.41-39.62v-12.46h76.57c31.73 0 57.45 25.72 57.45 57.45z" fill="#4bc5ef"/><path d="m157.33 419.645v72.625c-11.17-4.66-21.95-10.11-32.25-16.25v-56.375z" fill="#4bc5ef"/><path d="m386.92 419.645v56.375c-10.3 6.14-21.08 11.59-32.25 16.25v-72.625z" fill="#2fa8dd"/><path d="m324.423 148.55c25.595 19.08 58.916 36.128 58.916 36.128-4.223-32.494-30.408-72.209-30.408-72.209l24.837 7.946c-9.292-43.36-57.097-75.07-82.356-80.459-20.71-4.417-39.412-2.379-39.412-2.379s-18.702-2.038-39.411 2.38c-25.259 5.388-73.065 37.099-82.356 80.459l24.837-7.946s-26.185 39.715-30.408 72.209c0 0 33.321-17.048 58.916-36.128v23.364l38.593-23.402c9.429 11.348 21.143 24.455 29.83 30.873 8.687-6.419 20.401-19.525 29.83-30.873l38.593 23.402v-23.365z" fill="#515151"/><path d="m383.34 184.68s-33.32-17.05-58.92-36.13v23.36l-38.59-23.4c-9.43 11.35-21.14 24.46-29.83 30.88v-141.81s18.7-2.04 39.41 2.38c25.26 5.38 73.07 37.1 82.36 80.46l-24.84-7.95s26.19 39.71 30.41 72.21z" fill="#3d3d3d"/></g></svg>