<svg id="Layer_1" enable-background="new 0 0 512 512" height="512" viewBox="0 0 512 512" width="512" xmlns="http://www.w3.org/2000/svg"><g><g><g><g><g><g id="XMLID_1782_"><g id="XMLID_1783_"><g id="XMLID_1784_"><g id="XMLID_1785_"><g id="XMLID_1786_"><g id="XMLID_1787_"><g id="XMLID_1788_"><g id="XMLID_1789_"><g id="XMLID_1790_"><g id="XMLID_1791_"><g id="XMLID_1792_"><g id="XMLID_1793_"><g id="XMLID_1794_"><g id="XMLID_1795_"><g><path d="m512 256c0 70.13-28.2 133.67-73.87 179.91-19.63 19.87-42.48 24.32-67.71 22.83-34.44-2.01-73.3-15.08-114.42-15.08-70.69 0-134.69 39.69-181.02-6.64s-74.98-110.33-74.98-181.02c0-141.38 114.62-256 256-256 138.86 0 251.9 110.57 255.89 248.46.07 2.51.11 5.02.11 7.54z" fill="#336b90"/></g></g></g></g></g></g></g></g></g></g></g></g></g></g></g></g></g></g></g><path d="m512 256c0 70.13-28.2 133.67-73.87 179.91-19.63 19.87-42.48 24.32-67.71 22.83l-97.35-130.79-111.51-111.52 176.58-141.72 173.75 173.75c.07 2.51.11 5.02.11 7.54z" fill="#205077"/><path d="m199.97 250.232h112.06v118.84h-112.06z" fill="#eaa678"/><path d="m256 250.236h56.03v118.84h-56.03z" fill="#d38c5b"/><path d="m199.97 324.824h112.06v118.84h-112.06z" fill="#ffc397"/><path d="m256 324.824h56.03v118.84h-56.03z" fill="#eaa678"/><path d="m438.12 378.51v57.39c-22.58 22.86-49.43 41.49-79.26 54.59-31.48 13.83-66.27 21.51-102.86 21.51-37.24 0-72.62-7.95-104.54-22.25l160.57-164.93h72.4c29.65 0 53.69 24.04 53.69 53.69z" fill="#990541"/><g><g><g><path d="m358.86 490.49c-31.48 13.83-66.27 21.51-102.86 21.51-71.25 0-135.71-29.11-182.12-76.09v-57.396c0-29.65 24.04-53.69 53.69-53.69h72.4z" fill="#dd4571"/></g></g></g><g><g><g><path d="m358.86 490.49c-31.48 13.83-66.27 21.51-102.86 21.51v-128.76z" fill="#c12156"/></g></g></g><path d="m344.251 152.225c-3.728-56.6-49.511-77.517-88.251-77.517s-84.523 20.917-88.251 77.517c-10.018 1.938-17.134 15.077-16.014 25.701l1.717 24.177c1.175 11.157 10.982 19.301 21.79 18.089l1.864-.202c22.138 59.446 56.857 65.644 78.894 69.125 22.038-3.48 56.756-9.678 78.894-69.125l1.864.202c10.807 1.212 20.614-6.932 21.79-18.089l1.717-24.177c1.12-10.624-5.996-23.763-16.014-25.701z" fill="#ffc397"/><path d="m360.265 177.926-1.717 24.177c-1.175 11.157-10.982 19.301-21.79 18.089l-1.864-.202c-7.566 20.293-16.592 34.388-26.078 44.277-18.291 19.081-38.299 22.552-52.817 24.847v-214.406c38.74 0 84.523 20.917 88.251 77.517 10.019 1.938 17.135 15.077 16.015 25.701z" fill="#eaa678"/><path d="m246.195 53.937-14.33-2.354c-38.682-6.353-73.1 25.196-70.129 64.284l3.953 52.003 19.441 14.04 12.963-50.648c2.258-8.82 11.518-13.879 20.159-11.013l10.914 3.62c17.423 5.779 36.245 5.779 53.668 0l10.914-3.62c8.642-2.866 17.902 2.193 20.159 11.013l12.963 50.648 19.441-14.04 3.953-52.003c2.971-39.088-31.446-70.637-70.129-64.284l-14.331 2.354c-6.492 1.066-13.116 1.066-19.609 0z" fill="#fbe280"/><path d="m350.26 115.87-3.95 52-19.44 14.04-12.96-50.65c-2.26-8.82-11.52-13.88-20.16-11.01l-10.92 3.62c-8.71 2.89-17.77 4.33-26.83 4.33v-73.46c3.28 0 6.56-.27 9.8-.8l14.34-2.36c38.68-6.35 73.1 25.2 70.12 64.29z" fill="#efc859"/></g></svg>