<svg id="Layer_1" enable-background="new 0 0 512 512" height="512" viewBox="0 0 512 512" width="512" xmlns="http://www.w3.org/2000/svg"><g><g><g><g><path d="m129.48 418.53v60.07c-11.32-6.45-22.1-13.74-32.25-21.77v-38.3z" fill="#efc859"/></g><g><path d="m414.77 418.53v38.3c-10.15 8.03-20.93 15.32-32.25 21.77v-60.07z" fill="#d8a936"/></g></g></g><g><g><g><g><g><g id="XMLID_1184_"><g id="XMLID_1185_"><g id="XMLID_1186_"><g id="XMLID_1187_"><g id="XMLID_1188_"><g id="XMLID_1189_"><g id="XMLID_1190_"><g id="XMLID_1191_"><g id="XMLID_1192_"><g id="XMLID_1193_"><g id="XMLID_1194_"><g id="XMLID_1195_"><g id="XMLID_1196_"><g id="XMLID_1197_"><g><path d="m512 256c0 61.62-21.78 118.16-58.05 162.34-46.95 57.18-118.19 42.977-197.95 42.977s-151 14.203-197.95-42.977c-36.27-44.18-58.05-100.72-58.05-162.34 0-141.38 114.62-256 256-256s256 114.62 256 256z" fill="#5de9f4"/></g></g></g></g></g></g></g></g></g></g></g></g></g></g></g></g></g></g></g><path d="m453.95 418.34c36.27-44.18 58.05-100.72 58.05-162.34 0-7.251-.307-14.43-.898-21.529l-150.721-150.721-78.987 146.436c-20.078-22.062-35.05-38.024-36.107-37.759-3.379.846-104.337 88.116-104.337 88.116l157.197 157.197 24.957-21.073 35.84 45.349c37.111-2.705 69.612-12.749 95.006-43.676z" fill="#4bc5ef"/><path d="m382.394 166.09c4.143-64.935-29.159-98.144-62.613-115.09-40.196-20.361-87.367-20.361-127.563 0-33.454 16.946-66.756 50.155-62.613 115.09 0 0-13.828 31.527-11.639 68.194 2.035 34.096 29.247 60.591 61.942 60.591h152.183c32.695 0 59.907-26.495 61.942-60.591 2.189-36.667-11.639-68.194-11.639-68.194z" fill="#af5e22"/><path d="m394.03 234.28c-2.03 34.1-29.24 60.59-61.94 60.59h-76.09v-259.14c21.84 0 43.68 5.09 63.78 15.27 33.46 16.95 66.76 50.16 62.61 115.09 0 0 13.83 31.53 11.64 68.19z" fill="#89491d"/><path d="m199.97 250.232h112.06v118.84h-112.06z" fill="#eaa678"/><path d="m256 250.236h56.03v118.84h-56.03z" fill="#d38c5b"/><path d="m199.97 324.824h112.06v118.84h-112.06z" fill="#ffc397"/><path d="m256 324.824h56.03v118.84h-56.03z" fill="#eaa678"/><path d="m453.95 377.72v40.62c-11.64 14.18-24.78 27.09-39.18 38.49-10.15 8.03-20.93 15.32-32.25 21.77-37.32 21.26-80.5 33.4-126.52 33.4s-89.2-12.14-126.52-33.4c-11.32-6.45-22.1-13.74-32.25-21.77-14.4-11.4-27.54-24.31-39.18-38.49v-40.62c0-29.21 23.68-52.9 52.9-52.9h89.02l38.56 55.41 17.47 48.05 17.47-48.05 38.56-55.41h89.02c29.22 0 52.9 23.69 52.9 52.9z" fill="#fbe280"/><path d="m453.95 377.72v40.62c-46.95 57.18-118.19 93.66-197.95 93.66v-83.72l17.47-48.05 38.56-55.41h89.02c29.22 0 52.9 23.69 52.9 52.9z" fill="#efc859"/><path d="m206.62 384.244 49.38 44.037-17.47-48.053z" fill="#399e73"/><path d="m305.38 384.244-49.38 44.037 17.47-48.053z" fill="#207f54"/><path d="m344.251 152.225c-3.728-56.6-49.511-77.517-88.251-77.517s-84.523 20.917-88.251 77.517c-10.018 1.938-17.134 15.077-16.014 25.701l1.717 24.177c1.175 11.157 10.982 19.301 21.79 18.089l1.864-.202c22.139 59.446 56.857 65.644 78.894 69.125 22.037-3.48 56.756-9.678 78.894-69.125l1.864.202c10.807 1.212 20.614-6.932 21.79-18.089l1.717-24.177c1.12-10.624-5.996-23.763-16.014-25.701z" fill="#ffc397"/><path d="m360.265 177.926-1.717 24.177c-1.175 11.157-10.982 19.301-21.79 18.089l-1.864-.202c-7.566 20.293-16.592 34.388-26.078 44.277-18.291 19.081-38.299 22.552-52.817 24.847v-214.406c38.74 0 84.523 20.917 88.251 77.517 10.019 1.938 17.135 15.077 16.015 25.701z" fill="#eaa678"/><path d="m347.775 110.4c-6.078-47.864-62.695-61.555-85.504-51.533-35.229-3.438-100.889-.423-100.889 69.834 0 16.236 5.068 34.913 15.496 57.339l28.499-34.409c10.536 10.036 20.053 16.547 20.053 16.547s47.168-9.632 75.043-37.506l17.738 55.368c0 .001 36.321-22.425 29.564-75.64z" fill="#af5e22"/><path d="m318.21 186.04-17.74-55.37c-12.88 12.89-29.9 21.88-44.47 27.82v-100.13c2.18.14 4.27.32 6.27.51 22.81-10.02 79.43 3.67 85.51 51.53 6.75 53.22-29.57 75.64-29.57 75.64z" fill="#89491d"/><path d="m199.97 301.955-40.84 25.337 33.224 83.908 46.176-30.972z" fill="#5bbc96"/><path d="m312.03 301.955 40.84 25.337-33.224 83.908-46.176-30.972z" fill="#399e73"/></g></g></svg>