<svg id="Layer_1" enable-background="new 0 0 512 512" height="512" viewBox="0 0 512 512" width="512" xmlns="http://www.w3.org/2000/svg"><g><g><g><g><g><g id="XMLID_1164_"><g id="XMLID_1165_"><g id="XMLID_1166_"><g id="XMLID_1167_"><g id="XMLID_1168_"><g id="XMLID_1169_"><g id="XMLID_1170_"><g id="XMLID_1171_"><g id="XMLID_1198_"><g id="XMLID_1199_"><g id="XMLID_1200_"><g id="XMLID_1201_"><g id="XMLID_1450_"><g id="XMLID_1451_"><g id="XMLID_1452_"><path d="m0 256c0-141.385 114.615-256 256-256s256 114.615 256 256c0 68.129-26.613 130.041-70.01 175.91-46.664 49.32-112.733 13.077-185.99 13.077s-139.326 36.243-185.99-13.077c-43.397-45.869-70.01-107.781-70.01-175.91z" fill="#dd4571"/></g></g></g></g></g></g></g></g></g></g></g></g></g></g></g></g></g></g></g><path d="m288.158 35.73-44.73 175.924-36.848-16.692-44.807 21.623 64.103 64.103-19.295 75.889 156.629 100.718c29.798 2.205 56.501-1.838 78.781-25.386 42.643-45.071 69.078-105.634 69.984-172.364z" fill="#c12156"/><ellipse cx="256" cy="63.38" fill="#3d3d3d" rx="42.422" ry="42.422" transform="matrix(.707 -.707 .707 .707 30.164 199.583)"/><path d="m298.42 63.38c0 3.64-.46 7.17-1.33 10.54-4.68 18.33-21.3 31.88-41.09 31.88v-84.84c23.43 0 42.42 18.99 42.42 42.42z" fill="#242625"/><path d="m199.97 250.232h112.06v118.84h-112.06z" fill="#eaa678"/><path d="m256 250.236h56.03v118.84h-56.03z" fill="#d38c5b"/><path d="m418.045 432.155h-324.09v-36.821c0-37.578 30.463-68.042 68.042-68.042h188.007c37.578 0 68.042 30.463 68.042 68.042v36.821z" fill="#ffc397"/><path d="m418.05 395.33v36.82h-162.05v-104.86h94c28.27 0 52.52 17.25 62.79 41.79 3.39 8.08 5.26 16.94 5.26 26.25z" fill="#eaa678"/><path d="m441.99 379.35v41.82l-9.036 7.486c-6.42 6.78-4.164 16.464-11.284 22.514-14.68 12.47-30.77 23.31-48.02 32.25-35.23 18.26-75.23 28.58-117.65 28.58s-82.42-10.32-117.65-28.58c-17.25-8.94-33.34-19.78-48.02-32.25-7.12-6.05-3.469-14.607-9.889-21.387l-10.431-8.613v-32.25c7.428-7.566 4.16-30 4.16-30 7.95-18.6 26.4-31.63 47.9-31.63h39.93l27.76 31.63 16.98 19.35c3.62 4.12 7.63 7.68 11.92 10.65 22.35 15.55 52.33 15.55 74.68 0 4.29-2.97 8.3-6.53 11.92-10.65l16.98-19.35 27.76-31.63h39.93c21.5 0 39.95 13.03 47.9 31.63 2.68 6.27 4.16 13.18 4.16 20.43z" fill="#fff"/><path d="m431.828 379.724 10.162 9.196v32.25l-15.794 15c-6.417 6.781 2.593 8.952-4.526 15-14.676 12.468-30.775 23.312-48.019 32.251-15.362 7.963-41.843 9.543-58.826 14.289-21.963 6.137-34.906 0-58.825 0v-97.13c18.1 0 36.21-7.44 49.26-22.31l8.07-9.19 36.67-41.79h39.93c9.21 0 17.87 2.39 25.37 6.6 10.017 5.597 17.991 14.404 22.529 25.03 2.679 6.272-6.001 13.551-6.001 20.804z" fill="#dbdbdb"/><path d="m344.251 152.225c-3.728-56.6-49.511-77.517-88.251-77.517s-84.523 20.917-88.251 77.517c-10.018 1.938-17.134 15.077-16.014 25.701l1.717 24.177c1.175 11.157 10.982 19.301 21.79 18.089l1.864-.202c22.139 59.446 56.857 65.644 78.894 69.125 22.037-3.48 56.756-9.678 78.894-69.125l1.864.202c10.807 1.212 20.614-6.932 21.79-18.089l1.717-24.177c1.12-10.624-5.996-23.763-16.014-25.701z" fill="#ffc397"/><path d="m360.265 177.926-1.717 24.177c-1.175 11.157-10.982 19.301-21.79 18.089l-1.864-.202c-7.566 20.293-16.592 34.388-26.078 44.277-18.291 19.081-38.299 22.552-52.817 24.847v-214.406c38.74 0 84.523 20.917 88.251 77.517 10.019 1.938 17.135 15.077 16.015 25.701z" fill="#eaa678"/><path d="m294.326 72.97c-6.654-5.787-17.268-9.591-33.674-9.591-99.016 0-102.5 87.099-86.503 129.046 0 0 65.092-4.813 113.62-58.844 17.306 37.963 56.041 58.844 56.041 58.844 15.542-86.566-23.394-110.853-49.484-119.455z" fill="#515151"/><path d="m343.81 192.43s-38.73-20.88-56.04-58.85c-10.12 11.27-20.96 20.39-31.77 27.77v-97.9c1.53-.05 3.08-.07 4.65-.07 16.41 0 27.02 3.8 33.68 9.59.91.3 1.83.62 2.76.95 25.97 9.41 61.72 34.94 46.72 118.51z" fill="#3d3d3d"/><g><g><path d="m218.66 388.92h-148.65v-9.57c0-7.25 1.48-14.16 4.16-20.43h115.59l16.98 19.35c3.62 4.12 7.63 7.68 11.92 10.65z" fill="#5bbc96"/><g><path d="m441.99 379.35v9.57h-148.65c4.29-2.97 8.3-6.53 11.92-10.65l16.98-19.35h115.59c2.68 6.27 4.16 13.18 4.16 20.43z" fill="#399e73"/></g></g></g><g><g><path d="m441.99 421.17v10.74c-6.42 6.78-13.2 13.21-20.32 19.26h-331.34c-7.12-6.05-13.9-12.48-20.32-19.26v-10.74z" fill="#5bbc96"/></g></g><g><g><path d="m373.65 483.42c-35.23 18.26-75.23 28.58-117.65 28.58s-82.42-10.32-117.65-28.58z" fill="#5bbc96"/></g></g><g><g><path d="m441.99 421.17v10.74c-6.42 6.78-13.2 13.21-20.32 19.26h-165.67v-30z" fill="#399e73"/></g></g><g><g><path d="m373.65 483.42c-35.23 18.26-75.23 28.58-117.65 28.58v-28.58z" fill="#399e73"/></g></g></g></svg>