<svg id="Layer_1" enable-background="new 0 0 512 512" height="512" viewBox="0 0 512 512" width="512" xmlns="http://www.w3.org/2000/svg"><g><g><g><g><g><g id="XMLID_721_"><g id="XMLID_722_"><g id="XMLID_723_"><g id="XMLID_724_"><g id="XMLID_725_"><g id="XMLID_726_"><g id="XMLID_727_"><g id="XMLID_728_"><g id="XMLID_729_"><g id="XMLID_730_"><g id="XMLID_731_"><g id="XMLID_732_"><g id="XMLID_733_"><g id="XMLID_734_"><g><path d="m454.1 418.15c36.18-44.15 57.9-100.62 57.9-162.15 0-141.38-114.62-256-256-256s-256 114.62-256 256c0 61.53 21.72 118 57.9 162.15z" fill="#5bbc96"/></g><g><path d="m512 256c0-4.097-.101-8.171-.291-12.221l-160.409-160.409-.645 1.885-43.275-43.275-5.421 27.729-45.959-45.959 12.9 82.504-64.277-64.278 13.726 141.283-57.182 32.875 152.155 154.821 37.438 47.195h103.34c36.18-44.15 57.9-100.62 57.9-162.15z" fill="#309167"/></g><g><path d="" fill="#5bbc96"/></g></g></g></g></g></g></g></g></g></g></g></g></g></g></g></g></g></g></g><path d="m199.97 250.232h112.06v118.84h-112.06z" fill="#eaa678"/><path d="m256 250.236h56.03v118.84h-56.03z" fill="#d38c5b"/><g fill="#fff"><path d="m210.36 330.05v177.89c-61.1-10.99-114.68-43.68-152.46-89.79v-44.976c0-23.817 19.307-43.124 43.124-43.124z"/><path d="m454.1 373.185v44.965c-37.78 46.11-91.36 78.8-152.46 89.79v-177.89h109.326c23.822 0 43.134 19.312 43.134 43.135z"/></g><path d="m199.97 330.05h112.06v118.84h-112.06z" fill="#ffc397"/><path d="m256 330.05h56.03v118.84h-56.03z" fill="#eaa678"/><path d="m380.99 330.05v149.42c-24.28 13.6-51.01 23.37-79.35 28.47-14.81 2.67-30.06 4.06-45.64 4.06s-30.83-1.39-45.64-4.06c-28.34-5.1-55.07-14.87-79.35-28.47v-149.42h34.891l90.099 93.49 90.099-93.49z" fill="#4bc5ef"/><path d="m380.99 330.05v149.42c-24.28 13.6-51.01 23.37-79.35 28.47-14.81 2.67-30.06 4.06-45.64 4.06v-88.46l90.1-93.49z" fill="#2fa8dd"/><path d="m344.251 152.225c-3.728-56.6-49.511-77.517-88.251-77.517s-84.523 20.917-88.251 77.517c-10.018 1.938-17.134 15.077-16.014 25.701l1.717 24.177c1.175 11.157 10.982 19.301 21.79 18.089l1.864-.202c22.138 59.446 56.857 65.644 78.894 69.125 22.038-3.48 56.756-9.678 78.894-69.125l1.864.202c10.807 1.212 20.614-6.932 21.79-18.089l1.717-24.177c1.12-10.624-5.996-23.763-16.014-25.701z" fill="#ffc397"/><path d="m360.265 177.926-1.717 24.177c-1.175 11.157-10.982 19.301-21.79 18.089l-1.864-.202c-7.566 20.293-16.592 34.388-26.078 44.277-18.291 19.081-38.299 22.552-52.817 24.847v-214.406c38.74 0 84.523 20.917 88.251 77.517 10.019 1.938 17.135 15.077 16.015 25.701z" fill="#eaa678"/><path d="m351.3 83.365-16.893 5.068-27.03-46.457-19.428 22.806-31.949-41.036s-31.949 41.037-31.949 41.037l-19.428-22.806-27.03 46.457-16.893-5.069c-13.515 39.7 16.893 98.546 16.893 98.546h16.049l4.385-42.185c1.108-9.499 9.154-16.661 18.717-16.661h78.512c9.563 0 17.609 7.163 18.717 16.661l4.385 42.185h16.049s30.408-58.846 16.893-98.546z" fill="#515151"/><path d="m334.41 181.91h-16.05l-4.39-42.18c-1.1-9.5-9.15-16.66-18.71-16.66h-39.26v-99.32l31.95 41.03 19.43-22.8 27.03 46.45 16.89-5.06c13.52 39.7-16.89 98.54-16.89 98.54z" fill="#3d3d3d"/><g><g><g><path d="m410.99 330.05v129.71c-9.5 7.25-19.52 13.83-30 19.71v-149.42z" fill="#17416b"/></g></g><g><g><path d="m131.01 330.05v149.42c-10.48-5.88-20.5-12.46-30-19.71v-129.71z" fill="#336b90"/></g></g></g><path d="m199.97 330.05h-37.785l75.839 124.283c8.515 12.897 27.439 12.897 35.953 0l75.839-124.283h-37.786l-56.03 88.945z" fill="#336b90"/><path d="m349.82 330.05-75.84 124.28c-4.26 6.45-11.12 9.67-17.98 9.67v-45.01l56.03-88.94z" fill="#17416b"/></g></svg>