<svg id="Layer_1" enable-background="new 0 0 512 512" height="512" viewBox="0 0 512 512" width="512" xmlns="http://www.w3.org/2000/svg"><g><g><g><g><g><g id="XMLID_1225_"><g id="XMLID_1226_"><g id="XMLID_1227_"><g id="XMLID_1228_"><g id="XMLID_1229_"><g id="XMLID_1230_"><g id="XMLID_1231_"><g id="XMLID_1232_"><g id="XMLID_1233_"><g id="XMLID_1234_"><g id="XMLID_1264_"><g id="XMLID_1267_"><g id="XMLID_1268_"><g id="XMLID_1269_"><g><path d="m512 256c0 68.28-26.74 130.33-70.31 176.23-46.65 49.13-112.59 9.353-185.69 9.353s-139.04 39.777-185.69-9.353c-43.57-45.9-70.31-107.95-70.31-176.23 0-141.38 114.62-256 256-256s256 114.62 256 256z" fill="#fbe280"/></g></g></g></g></g></g></g></g></g></g></g></g></g></g></g></g></g></g></g><path d="m511.265 236.465-79.235-79.235-.709 1.645-105.1-105.1-67.538 84.875-178.71 18.576 214.653 214.653 21.282-22.267 59.526 107.081c24.77.876 47.134-4.323 66.257-24.462 43.569-45.901 70.309-107.951 70.309-176.231 0-6.573-.249-13.087-.735-19.535z" fill="#efc859"/><g><path d="m256 49.649c-32.956 0-101.938 20.273-92.928 106.993v186.956h185.856v-186.956c9.01-86.721-59.972-106.993-92.928-106.993z" fill="#515151"/><path d="m348.93 156.64v186.96h-92.93v-293.95c32.96 0 101.94 20.27 92.93 106.99z" fill="#3d3d3d"/><path d="m204.569 255.11h102.861v109.084h-102.861z" fill="#eaa678"/><path d="m256 255.113h51.431v109.084h-51.431z" fill="#d38c5b"/><path d="m338.617 441.586h-165.958l27.311-114.294h112.06z" fill="#ffc397"/><path d="m312.03 327.292 26.587 114.291h-82.618v-114.291z" fill="#eaa678"/><path d="m344.251 152.225c-3.728-56.6-49.511-77.517-88.251-77.517s-84.523 20.917-88.251 77.517c-10.018 1.938-17.134 15.077-16.014 25.701l1.717 24.177c1.175 11.157 10.982 19.301 21.79 18.089l1.864-.202c22.138 59.446 56.857 65.644 78.894 69.125 22.038-3.48 56.756-9.678 78.894-69.125l1.864.202c10.807 1.212 20.614-6.932 21.79-18.089l1.717-24.177c1.12-10.624-5.996-23.763-16.014-25.701z" fill="#ffc397"/><path d="m360.265 177.926-1.717 24.177c-1.175 11.157-10.982 19.301-21.79 18.089l-1.864-.202c-7.566 20.293-16.592 34.388-26.078 44.277-18.291 19.081-38.299 22.552-52.817 24.847v-214.406c38.74 0 84.523 20.917 88.251 77.517 10.019 1.938 17.135 15.077 16.015 25.701z" fill="#eaa678"/><g><path d="m170.298 157.481 6.466 31.474 24.496-28.437z" fill="#515151"/><path d="m341.702 157.481-6.466 31.474-24.496-28.437z" fill="#3d3d3d"/></g><path d="m441.69 395.33v36.9c-46.65 49.13-112.59 79.77-185.69 79.77s-139.04-30.64-185.69-79.77v-36.9c0-37.57 30.47-68.04 68.04-68.04h66.219l51.431 77.72 56.03-77.72h61.62c37.57 0 68.04 30.47 68.04 68.04z" fill="#dd4571"/><path d="m441.69 395.33v36.9c-46.65 49.13-112.59 79.77-185.69 79.77v-106.99l51.431-77.718 66.219-.002c37.57 0 68.04 30.47 68.04 68.04z" fill="#c12156"/><path d="m157.33 405.45v86.82c-11.17-4.66-21.95-10.11-32.25-16.25v-70.57z" fill="#c12156"/><path d="m386.92 405.45v70.57c-10.3 6.14-21.08 11.59-32.25 16.25v-86.82z" fill="#990541"/><path d="m348.77 126.32h-185.54l18.868-13.574c.67-7.05-12.928-15.169-12.928-21.966 0-34.909 42.51-64.191 78.37-64.191h16.92c35.86 0 78.37 29.282 78.37 64.191 0 6.797-11.049 13.79-10.379 20.84z" fill="#dd4571"/><path d="m348.77 126.32h-92.77v-99.73h8.46c35.86 0 78.37 29.28 78.37 64.19 0 6.8-11.05 13.79-10.38 20.84z" fill="#c12156"/><path d="m348.407 126.319-92.407-7.378-92.407 7.378-83.621 30.907s29.001 21.406 65.603 9.58c36.603-11.826 53.215-3.575 65.604 3.562s31.535 10.234 44.821 10.234 32.432-3.097 44.821-10.234 29.001-15.388 65.603-3.562c36.603 11.826 65.603-9.58 65.603-9.58z" fill="#dd4571"/><path d="m432.03 157.23s-29 21.4-65.61 9.58c-36.6-11.83-53.21-3.58-65.6 3.56s-31.53 10.23-44.82 10.23v-61.66l92.41 7.38z" fill="#c12156"/><path d="m348.77 126.32h-185.54l1.45-15.32c.67-7.05 2.2-13.82 4.49-20.22h173.66c2.29 6.4 3.82 13.18 4.49 20.23z" fill="#efefef"/><path d="m348.77 126.32h-92.77v-35.54h86.83c2.29 6.4 3.82 13.18 4.49 20.23z" fill="#cecece"/></g></g></svg>