<svg id="Layer_1" enable-background="new 0 0 512 512" height="512" viewBox="0 0 512 512" width="512" xmlns="http://www.w3.org/2000/svg"><g><g><g><g><g><g id="XMLID_1497_"><g id="XMLID_1498_"><g id="XMLID_1499_"><g id="XMLID_1500_"><g id="XMLID_1501_"><g id="XMLID_1502_"><g id="XMLID_1503_"><g id="XMLID_1504_"><g id="XMLID_1505_"><g id="XMLID_1506_"><g id="XMLID_1507_"><g id="XMLID_1508_"><g id="XMLID_1509_"><g id="XMLID_1681_"><g><path d="m512 256c0 59.61-20.37 114.46-54.54 157.97-10.81 13.76-22.99 19.6-36.35 20.43-44.57 2.79-102.19-50.16-165.11-50.16-81.77 0-154.59 89.42-201.46 29.73-34.17-43.51-54.54-98.36-54.54-157.97 0-141.38 114.62-256 256-256 114.36 0 211.21 74.99 244.05 178.48 7.76 24.45 11.95 50.5 11.95 77.52z" fill="#fbe280"/></g></g></g></g></g></g></g></g></g></g></g></g></g></g></g></g></g></g></g><path d="m512 256c0 59.61-20.37 114.46-54.54 157.97-10.81 13.76-22.99 19.6-36.35 20.43l-195-153.53-64.17-64.17 18.87-16.44-44.19-44.19 216.98-124.04 146.45 146.45c7.76 24.45 11.95 50.5 11.95 77.52z" fill="#efc859"/><path d="m199.97 250.232h112.06v118.84h-112.06z" fill="#eaa678"/><path d="m256 250.236h56.03v118.84h-56.03z" fill="#d38c5b"/><path d="m199.97 324.824h112.06v118.84h-112.06z" fill="#ffc397"/><path d="m256 324.824h56.03v118.84h-56.03z" fill="#eaa678"/><path d="m345.92 495.75c-10.96 4.12-22.28 7.5-33.89 10.09-18.03 4.04-36.78 6.16-56.03 6.16s-38-2.12-56.03-6.16c-11.61-2.59-22.93-5.97-33.89-10.09l33.89-170.926 56.03 36.316 56.03-36.316z" fill="#fff"/><path d="m199.97 324.82-21.842 37.724 43.924 39.043 33.948-40.447z" fill="#cecece"/><path d="m345.92 495.75c-10.96 4.12-22.28 7.5-33.89 10.09-18.03 4.04-36.78 6.16-56.03 6.16v-150.86l56.03-36.316z" fill="#cecece"/><path d="m312.03 324.82 21.842 37.724-43.924 39.043-33.948-40.447z" fill="#aaa"/><path d="m199.97 324.82v181.02c-58.58-13.07-109.59-46.23-145.43-91.87v-32.737c0-31.156 25.257-56.413 56.413-56.413z" fill="#515151"/><path d="m457.46 381.233v32.737c-35.84 45.64-86.85 78.8-145.43 91.87v-181.02h55.333 33.684c31.156 0 56.413 25.257 56.413 56.413z" fill="#3d3d3d"/><path d="m146.16 425.84v61.45c-11.23-5.33-22-11.46-32.25-18.32v-43.13z" fill="#3d3d3d"/><path d="m398.53 425.84v42.84c-10.25 6.88-21.02 13.04-32.25 18.4v-61.24z" fill="#242625"/><path d="m344.251 152.225c-3.728-56.6-49.511-77.517-88.251-77.517s-84.523 20.917-88.251 77.517c-10.018 1.938-17.134 15.077-16.014 25.701l1.717 24.177c1.175 11.157 10.982 19.301 21.79 18.089l1.864-.202c22.138 59.446 56.857 65.644 78.894 69.125 22.038-3.48 56.756-9.678 78.894-69.125l1.864.202c10.807 1.212 20.614-6.932 21.79-18.089l1.717-24.177c1.12-10.624-5.996-23.763-16.014-25.701z" fill="#ffc397"/><path d="m360.265 177.926-1.717 24.177c-1.175 11.157-10.982 19.301-21.79 18.089l-1.864-.202c-7.566 20.293-16.592 34.388-26.078 44.277-18.291 19.081-38.299 22.552-52.817 24.847v-214.406c38.74 0 84.523 20.917 88.251 77.517 10.019 1.938 17.135 15.077 16.015 25.701z" fill="#eaa678"/><path d="m333.901 104.908s-17.388 28.755-84.456 28.755c-53.82 0-71.208 54.896-71.208 54.896s-29.994-55.724-13.299-99.41c8.592-22.481 33.11-40.554 62.151-46.318 31.771-6.306 68.718 1.637 90.319 22.811 10.602 10.393 13.789 20.059 16.493 39.266z" fill="#af5e22"/><path d="m311.361 71.738s73.416 3.834 23.184 116.821c0 0-32.805-54.315-29.926-78.713z" fill="#89491d"/><path d="m158.398 32.027h195.204v99.45h-195.204z" fill="#3d3d3d"/><path d="m256 32.03h97.6v99.45h-97.6z" fill="#242625"/><path d="m136.617 114.642h238.766v41.424h-238.766z" fill="#515151"/><path d="m256 114.64h119.38v41.43h-119.38z" fill="#3d3d3d"/></g></svg>