<svg id="Layer_1" enable-background="new 0 0 512 512" height="512" viewBox="0 0 512 512" width="512" xmlns="http://www.w3.org/2000/svg"><g><g><g><g><g><g id="XMLID_1697_"><g id="XMLID_1698_"><g id="XMLID_1699_"><g id="XMLID_1700_"><g id="XMLID_1701_"><g id="XMLID_1702_"><g id="XMLID_1703_"><g id="XMLID_1704_"><g id="XMLID_1705_"><g id="XMLID_1706_"><g id="XMLID_1707_"><g id="XMLID_1708_"><g id="XMLID_1725_"><g id="XMLID_1726_"><g><path d="m512 256c0 66.8-25.59 127.63-67.49 173.21 0 0-113.93-50.523-188.51-50.523s-188.51 50.523-188.51 50.523c-41.9-45.58-67.49-106.41-67.49-173.21 0-141.38 114.62-256 256-256s256 114.62 256 256z" fill="#dd4571"/></g></g></g></g></g></g></g></g></g></g></g></g></g></g></g></g></g></g></g><path d="m444.51 429.21c41.9-45.58 67.49-106.41 67.49-173.21 0-12.855-.952-25.488-2.781-37.834l-146.428-146.428-72.504 215.513-180.015 4.679 92.916 92.916c18.415-3.757 36.549-6.16 52.812-6.16 74.58.001 188.51 50.524 188.51 50.524z" fill="#c12156"/><g><path d="m380.611 131.477c1.689-105.303-124.611-105.866-124.611-105.866s-126.3.563-124.611 105.866-21.117 160.453-21.117 160.453l145.728 20.541 145.728-20.54c0-.001-22.807-55.15-21.117-160.454z" fill="#515151"/><path d="m401.73 291.926-145.73 20.55v-286.86s126.3.56 124.61 105.86 21.12 160.45 21.12 160.45z" fill="#3d3d3d"/><path d="m203.669 250.232h104.663v110.995h-104.663z" fill="#eaa678"/><path d="m256 250.235h52.331v110.995h-52.331z" fill="#d38c5b"/><path d="m308.331 344.27h-104.662l-3.699 118.84h112.06z" fill="#ffc397"/><path d="m308.331 344.27 3.699 118.84h-56.03v-118.84z" fill="#eaa678"/><path d="m344.251 152.225c-3.728-56.6-49.511-77.517-88.251-77.517s-84.523 20.917-88.251 77.517c-10.018 1.938-17.134 15.077-16.014 25.701l1.717 24.177c1.175 11.157 10.982 19.301 21.79 18.089l1.864-.202c22.139 59.446 56.857 65.644 78.894 69.125 22.037-3.48 56.756-9.678 78.894-69.125l1.864.202c10.807 1.212 20.614-6.932 21.79-18.089l1.717-24.177c1.12-10.624-5.996-23.763-16.014-25.701z" fill="#ffc397"/><path d="m360.265 177.926-1.717 24.177c-1.175 11.157-10.982 19.301-21.79 18.089l-1.864-.202c-7.566 20.293-16.592 34.388-26.078 44.277-18.291 19.081-38.299 22.552-52.817 24.847v-214.406c38.74 0 84.523 20.917 88.251 77.517 10.019 1.938 17.135 15.077 16.015 25.701z" fill="#eaa678"/><path d="m161.097 149.305 14.267 32.606 45.049-65.638 46.176 40.545 19.166-28.156 47.282 53.25s28.156-39.735 23.651-78.027c-4.504-38.293-53.225-66.158-100.688-66.158-25.957 0-53 7.66-74.209 24.733-25.782 20.754-33.96 56.523-20.694 86.845z" fill="#515151"/><path d="m355.62 128.66c-5.35 28.93-22.58 53.25-22.58 53.25l-47.28-53.25-19.17 28.16-10.59-9.3v-109.79c47.46 0 96.18 27.86 100.69 66.15.98 8.33.41 16.74-1.07 24.78z" fill="#3d3d3d"/><path d="m444.51 408.75v13.17s-27.45 33.99-43.23 44.89c-41.28 28.5-91.33 45.19-145.28 45.19s-104.01-16.69-145.29-45.2c-15.78-10.89-43.22-44.88-43.22-44.88v-13.17c0-35.61 28.87-64.48 64.49-64.48h71.69l6.67 18.26c7.01 19.17 25.25 31.92 45.66 31.92 10.2 0 19.87-3.19 27.86-8.77 7.98-5.58 14.3-13.56 17.8-23.15l6.67-18.26h71.69c35.62 0 64.49 28.87 64.49 64.48z" fill="#ea9611"/><path d="m444.51 408.75v13.17s-26.6 32.94-42.48 44.36c-.25.18-.5.36-.75.53-41.28 28.5-91.33 45.19-145.28 45.19v-117.55c10.2 0 19.87-3.19 27.86-8.77 7.98-5.58 14.3-13.56 17.8-23.15l6.67-18.26h71.69c35.62 0 64.49 28.87 64.49 64.48z" fill="#cc7a05"/><g><path d="m444.51 421.92v7.29c-12.95 14.08-27.45 26.7-43.23 37.6l-44.6-17.72-50.34 20-50.35-20-50.34 20-50.34-20-44.6 17.71c-15.78-10.89-30.28-23.51-43.22-37.59v-7.29l37.47 14.89 50.35-20 50.34 20 50.34-20 50.35 20 50.34-20 50.35 20z" fill="#fbe280"/></g><g><g><g><path d="m444.51 421.92v7.29c-12.74 13.86-26.99 26.3-42.48 37.07-.25.18-.5.36-.75.53l-44.6-17.72-50.34 20-50.34-20v-32.28l50.34 20 50.34-20 50.35 20z" fill="#efc859"/></g></g></g></g></g></svg>