<svg id="Layer_1" enable-background="new 0 0 512 512" height="512" viewBox="0 0 512 512" width="512" xmlns="http://www.w3.org/2000/svg"><g><g><g><g><g><g id="XMLID_634_"><g id="XMLID_635_"><g id="XMLID_636_"><g id="XMLID_637_"><g id="XMLID_680_"><g id="XMLID_681_"><g id="XMLID_694_"><g id="XMLID_695_"><g id="XMLID_742_"><g id="XMLID_743_"><g id="XMLID_744_"><g id="XMLID_745_"><g id="XMLID_746_"><g id="XMLID_747_"><g><path d="m512 256c0 63.71-23.28 121.98-61.79 166.78-46.94 54.62-116.54 26.11-194.21 26.11s-147.27 28.51-194.21-26.11c-38.51-44.8-61.79-103.07-61.79-166.78 0-141.38 114.62-256 256-256s256 114.62 256 256z" fill="#336b90"/></g></g></g></g></g></g></g></g></g></g></g></g></g></g></g></g></g></g></g><path d="m511.987 253.979-177.891-176.119-174.237 137.154 175.464 175.464 81.852 57.007c11.95-5.169 23.01-13.04 33.035-24.706 38.51-44.799 61.79-103.069 61.79-166.779 0-.675-.008-1.348-.013-2.021z" fill="#205077"/><g><path d="m199.97 250.232h112.06v118.84h-112.06z" fill="#eaa678"/><path d="m256 250.236h56.03v118.84h-56.03z" fill="#d38c5b"/><path d="m199.97 330.05h112.06v118.84h-112.06z" fill="#ffc397"/><path d="m256 330.05h56.03v118.84h-56.03z" fill="#eaa678"/><path d="m450.21 382.88v39.9c-15.06 17.52-32.44 32.98-51.68 45.9-5.241 3.518-10.618-5.53-16.123-2.4-5.261 2.992-10.639 18.18-16.127 20.799-33.4 15.981-70.79 24.921-110.28 24.921-39.31 0-76.56-8.86-109.84-24.71-5.488-2.605-10.866-17.778-16.127-20.757-5.505-3.117-10.882 5.944-16.123 2.437-19.41-12.98-36.95-28.54-52.12-46.19v-39.9c0-35.65 28.91-64.56 64.57-64.56h62.69l66.95 20.04 66.95-20.04h62.69c35.66 0 64.57 28.91 64.57 64.56z" fill="#ea9611"/><path d="m450.21 382.88v39.9c-46.94 54.62-116.54 89.22-194.21 89.22v-173.64l66.95-20.04h62.69c35.66 0 64.57 28.91 64.57 64.56z" fill="#cc7a05"/><path d="m146.16 408.45v78.84c-11.23-5.33-22-11.46-32.25-18.32v-60.52z" fill="#cc7a05"/><path d="m398.53 408.45v60.23c-10.25 6.88-21.02 13.04-32.25 18.4v-78.63z" fill="#af5e22"/><path d="m195.465 330.05s22.524 66.01 60.535 85.11c38.011-19.1 60.535-85.11 60.535-85.11z" fill="#af5e22"/><path d="m256 330.05h62.288v120.16h-62.288z" fill="#bfbfbf"/><path d="m310.113 342.307h-108.226c-17.472 0-31.637-14.164-31.637-31.637v-19.092c0-17.472 14.164-31.637 31.637-31.637h108.225c17.472 0 31.637 14.164 31.637 31.637v19.092c0 17.473-14.164 31.637-31.636 31.637z" fill="#fff"/><path d="m341.75 291.58v19.09c0 2.64-.32 5.2-.94 7.65-3.42 13.78-15.87 23.99-30.7 23.99h-54.11v-82.37h54.11c17.47 0 31.64 14.17 31.64 31.64z" fill="#dbdbdb"/><path d="m344.251 152.225c-3.728-56.6-49.511-77.517-88.251-77.517s-84.523 20.917-88.251 77.517c-10.018 1.938-17.134 15.077-16.014 25.701l1.717 24.177c1.175 11.157 10.982 19.301 21.79 18.089l1.864-.202c22.138 59.446 56.857 65.644 78.894 69.125 22.038-3.48 56.756-9.678 78.894-69.125l1.864.202c10.807 1.212 20.614-6.932 21.79-18.089l1.717-24.177c1.12-10.624-5.996-23.763-16.014-25.701z" fill="#ffc397"/><path d="m360.265 177.926-1.717 24.177c-1.175 11.157-10.982 19.301-21.79 18.089l-1.864-.202c-7.566 20.293-16.592 34.388-26.078 44.277-18.291 19.081-38.299 22.552-52.817 24.847v-214.406c38.74 0 84.523 20.917 88.251 77.517 10.019 1.938 17.135 15.077 16.015 25.701z" fill="#eaa678"/><path d="m291.759 52.465c-46.176-10.981-118.537-13.515-118.537-13.515-2.771 21.581-.827 38.518 4.346 51.775-14.129 19.228-23.771 50.317-2.375 96.325h16.672s-3.722-41.999 20.292-60.728c26.551 11.97 60.306 10.279 81.922 7.315 11.863-1.627 22.689 6.953 23.857 18.87l3.387 34.544h19.991l6.476-36.04c9.009-54.623-13.695-88.478-56.031-98.546z" fill="#fbe280"/><path d="m347.79 151.01-6.48 36.04h-19.99l-3.38-34.54c-1.17-11.92-12-20.5-23.86-18.87-10.55 1.44-23.99 2.59-38.08 1.98v-89.59c12.51 1.72 24.86 3.84 35.76 6.43 42.34 10.07 65.04 43.93 56.03 98.55z" fill="#efc859"/></g></g></svg>