<svg id="Layer_1" enable-background="new 0 0 512 512" height="512" viewBox="0 0 512 512" width="512" xmlns="http://www.w3.org/2000/svg"><g><g><g><g><g><g id="XMLID_1120_"><g id="XMLID_1121_"><g id="XMLID_1122_"><g id="XMLID_1123_"><g id="XMLID_1124_"><g id="XMLID_1125_"><g id="XMLID_1126_"><g id="XMLID_1127_"><g id="XMLID_1128_"><g id="XMLID_1129_"><g id="XMLID_1130_"><g id="XMLID_1131_"><g id="XMLID_1132_"><g id="XMLID_1133_"><g><path d="m512 256c0 65.9-24.9 125.98-65.8 171.35-29.41 32.63-333.54 51.98-380.4 0-40.9-45.37-65.8-105.45-65.8-171.35 0-141.38 114.62-256 256-256s256 114.62 256 256z" fill="#5de9f4"/></g></g></g></g></g></g></g></g></g></g></g></g></g></g></g></g></g></g></g><path d="m446.2 427.35c40.9-45.37 65.8-105.45 65.8-171.35 0-4.723-.132-9.414-.384-14.074l-156.946-156.946-252.83 199.678s118.451 117.434 174.657 173.933c80.494-3.357 155.799-15.815 169.703-31.241z" fill="#4bc5ef"/><path d="m366.237 106.524c-23.369-65.04-110.237-63.069-110.237-63.069s-86.868-1.971-110.237 63.069c-25.451 70.835-2.628 121.07-43.923 178.133 0 0 61.111 24.995 154.16 24.995s154.16-24.995 154.16-24.995c-41.295-57.062-18.471-107.298-43.923-178.133z" fill="#af5e22"/><path d="m410.16 284.66s-61.11 24.99-154.16 24.99v-266.2s86.87-1.97 110.24 63.07c25.45 70.84 2.62 121.07 43.92 178.14z" fill="#89491d"/><path d="m199.97 250.232h112.06v118.84h-112.06z" fill="#eaa678"/><path d="m256 250.236h56.03v118.84h-56.03z" fill="#d38c5b"/><path d="m199.97 330.05h112.06v118.84h-112.06z" fill="#ffc397"/><path d="m256 330.05h56.03v118.84h-56.03z" fill="#eaa678"/><path d="m446.2 370.78v56.57c-46.86 51.98-114.72 84.65-190.2 84.65s-143.34-32.67-190.2-84.65v-56.57c0-22.49 18.23-40.73 40.73-40.73h31.07l118.4 123.01 118.4-123.01h31.08c22.49 0 40.72 18.24 40.72 40.73z" fill="#ea9611"/><path d="m446.2 370.78v56.57c-46.86 51.98-114.72 84.65-190.2 84.65v-58.94l118.4-123.01h31.08c22.49 0 40.72 18.24 40.72 40.73z" fill="#cc7a05"/><path d="m157.33 436.531v55.739c-11.17-4.66-21.95-10.11-32.25-16.25v-39.489z" fill="#cc7a05"/><path d="m386.92 436.531v39.489c-10.3 6.14-21.08 11.59-32.25 16.25v-55.739z" fill="#af5e22"/><path d="m312.03 330.05-90.047 111.536 46.769 37.114 118.456-148.647z" fill="#e5ba42"/><path d="m344.251 152.225c-3.728-56.6-49.511-77.517-88.251-77.517s-84.523 20.917-88.251 77.517c-10.018 1.938-17.134 15.077-16.014 25.701l1.717 24.177c1.175 11.157 10.982 19.301 21.79 18.089l1.864-.202c22.139 59.446 56.857 65.644 78.894 69.125 22.037-3.48 56.756-9.678 78.894-69.125l1.864.202c10.807 1.212 20.614-6.932 21.79-18.089l1.717-24.177c1.12-10.624-5.996-23.763-16.014-25.701z" fill="#ffc397"/><path d="m360.265 177.926-1.717 24.177c-1.175 11.157-10.982 19.301-21.79 18.089l-1.864-.202c-7.566 20.293-16.592 34.388-26.078 44.277-18.291 19.081-38.299 22.552-52.817 24.847v-214.406c38.74 0 84.523 20.917 88.251 77.517 10.019 1.938 17.135 15.077 16.015 25.701z" fill="#eaa678"/><path d="m323.722 79.494c-23.651-23.513-67.722-16.33-67.722-16.33s-44.071-7.183-67.722 16.331c-40.409 40.174-15.62 97.056-15.62 97.056 66.878-16.695 83.342-44.686 83.342-44.686s16.464 27.992 83.341 44.686c0-.001 24.789-56.883-15.619-97.057z" fill="#af5e22"/><path d="m336.45 499.1c-21.22 7.02-43.67 11.34-66.94 12.55l-144.72-181.6h75.18z" fill="#fbe280"/><path d="m336.45 499.1c-21.22 7.02-43.67 11.34-66.94 12.55l-13.51-16.95v-95.25z" fill="#efc859"/><path d="m339.34 176.55c-66.88-16.69-83.34-44.69-83.34-44.69v-68.7s44.07-7.18 67.72 16.33c40.41 40.18 15.62 97.06 15.62 97.06z" fill="#89491d"/></g></svg>