<svg id="Layer_1" enable-background="new 0 0 512 512" height="512" viewBox="0 0 512 512" width="512" xmlns="http://www.w3.org/2000/svg"><g><g><g><g><g><g id="XMLID_1377_"><g id="XMLID_1378_"><g id="XMLID_1379_"><g id="XMLID_1380_"><g id="XMLID_1381_"><g id="XMLID_1382_"><g id="XMLID_1383_"><g id="XMLID_1384_"><g id="XMLID_1385_"><g id="XMLID_1386_"><g id="XMLID_1387_"><g id="XMLID_1388_"><g id="XMLID_1389_"><g id="XMLID_1390_"><g><path d="m512 256c0 68.29-26.74 130.33-70.31 176.23-27.6 29.06-61.94 15.42-100.53-.58-26.64-11.04-55.3-23.2-85.16-23.2-73.1 0-139.04 72.91-185.69 23.78-43.57-45.9-70.31-107.94-70.31-176.23 0-141.38 114.62-256 256-256 124.6 0 228.41 89.02 251.3 206.93 3.08 15.88 4.7 32.29 4.7 49.07z" fill="#5bbc96"/></g></g></g></g></g></g></g></g></g></g></g></g></g></g></g></g></g></g></g><path d="m512 256c0 68.29-26.74 130.33-70.31 176.23-27.6 29.06-61.94 15.42-100.53-.58l-46.64-32.61-155.32-155.32 209.65-191.75 38.52 38.53 1.36-2.14 118.57 118.57c3.08 15.88 4.7 32.29 4.7 49.07z" fill="#309167"/><g><path d="m402.625 171.89c0-11.376-4.188-21.74-11.055-29.532 4.823-7.118 7.655-15.787 7.655-25.14 0-22.841-16.881-41.601-38.436-43.651-4.395-19.361-21.191-33.776-41.242-33.776-3.41 0-6.727.418-9.904 1.205-7.771-9.578-19.428-15.668-32.46-15.668-7.716 0-14.951 2.135-21.182 5.865-6.231-3.73-13.466-5.865-21.182-5.865-13.032 0-24.689 6.089-32.46 15.668-3.177-.788-6.494-1.205-9.904-1.205-20.051 0-36.848 14.415-41.242 33.776-21.555 2.051-38.436 20.811-38.436 43.651 0 9.353 2.832 18.022 7.655 25.14-6.867 7.791-11.055 18.155-11.055 29.532 0 15.32 7.594 28.805 19.1 36.643-.229 1.846-.348 3.728-.348 5.639 0 24.211 18.967 43.838 42.364 43.838h171.016c23.397 0 42.364-19.627 42.364-43.838 0-1.911-.118-3.793-.347-5.639 11.504-7.838 19.099-21.322 19.099-36.643z" fill="#af5e22"/><path d="m383.52 208.53c.23 1.85.35 3.73.35 5.64 0 24.21-18.97 43.84-42.36 43.84h-85.51v-226.82c6.23-3.73 13.47-5.86 21.18-5.86 13.03 0 24.69 6.09 32.46 15.67 3.18-.79 6.5-1.21 9.91-1.21 20.05 0 36.84 14.42 41.24 33.78 21.55 2.05 38.43 20.81 38.43 43.65 0 9.35-2.83 18.02-7.65 25.14 6.87 7.79 11.05 18.15 11.05 29.53 0 15.32-7.59 28.81-19.1 36.64z" fill="#89491d"/><path d="m199.97 250.232h112.06v118.84h-112.06z" fill="#205077"/><path d="m256 250.236h56.03v118.84h-56.03z" fill="#17416b"/><path d="m441.69 381.46v50.77c-8.666 9.126-23.299 7.948-33.218 15.72-10.105 7.918-15.519 24.76-26.762 31.11-37.132 20.971-80.022 32.94-125.71 32.94-45.02 0-87.33-11.62-124.08-32.03-12.451-6.907-19.741-20.388-30.805-29.204-9.312-7.42-22.615-9.912-30.805-18.536v-50.77c0-29.92 24.25-54.17 54.17-54.17h263.04c29.92 0 54.17 24.25 54.17 54.17z" fill="#336b90"/><path d="m441.69 381.46v50.77c-10.194 10.735-21.309 6.877-33.218 15.72-9.025 6.702-18.506 26.536-28.392 32.02-36.75 20.41-79.06 32.03-124.08 32.03v-184.71h131.52c29.92 0 54.17 24.25 54.17 54.17z" fill="#205077"/><path d="m344.251 152.225c-3.728-56.6-49.511-77.517-88.251-77.517s-84.523 20.917-88.251 77.517c-10.018 1.938-17.134 15.077-16.014 25.701l1.717 24.177c1.175 11.157 10.982 19.301 21.79 18.089l1.864-.202c22.138 59.446 56.857 65.644 78.894 69.125 22.038-3.48 56.756-9.678 78.894-69.125l1.864.202c10.807 1.212 20.614-6.932 21.79-18.089l1.717-24.177c1.12-10.624-5.996-23.763-16.014-25.701z" fill="#ffc397"/><path d="m360.265 177.926-1.717 24.177c-1.175 11.157-10.982 19.301-21.79 18.089l-1.864-.202c-7.566 20.293-16.592 34.388-26.078 44.277-18.291 19.081-38.299 22.552-52.817 24.847v-214.406c38.74 0 84.523 20.917 88.251 77.517 10.019 1.938 17.135 15.077 16.015 25.701z" fill="#eaa678"/><path d="m212.82 63.667c-57.071 28.005-45.071 88.558-45.071 88.558 62.235 2.165 88.251-38.204 88.251-38.204s26.016 40.369 88.251 38.204c0 0 12.001-60.553-45.071-88.558-27.162-13.329-59.198-13.329-86.36 0z" fill="#af5e22"/><path d="m344.25 152.22c-62.23 2.17-88.25-38.2-88.25-38.2v-60.35c14.8 0 29.6 3.33 43.18 10 57.07 28 45.07 88.55 45.07 88.55z" fill="#89491d"/><path d="m131.92 412.662v67.308c-22.93-12.72-43.69-28.87-61.61-47.74v-33.91z" fill="#ffc397"/><path d="m441.69 398.32v33.91c-17.92 18.87-38.68 35.02-61.61 47.74v-67.308z" fill="#eaa678"/></g></g></svg>