<svg id="Layer_1" enable-background="new 0 0 512 512" height="512" viewBox="0 0 512 512" width="512" xmlns="http://www.w3.org/2000/svg"><g><g><g><g><g><g id="XMLID_1826_"><g id="XMLID_1827_"><g id="XMLID_1828_"><g id="XMLID_1829_"><g id="XMLID_1830_"><g id="XMLID_1831_"><g id="XMLID_2039_"><g id="XMLID_2040_"><g id="XMLID_2041_"><g id="XMLID_2042_"><g id="XMLID_2195_"><g id="XMLID_2196_"><g id="XMLID_2197_"><g id="XMLID_2198_"><g id="XMLID_2199_"><path d="m0 256c0-141.385 114.615-256 256-256s256 114.615 256 256c0 68.286-26.736 130.328-70.312 176.228-46.647 49.134-112.589-12.583-185.688-12.583-73.098 0-139.041 61.717-185.688 12.583-43.576-45.9-70.312-107.942-70.312-176.228z" fill="#336b90"/></g></g></g></g></g></g></g></g></g></g></g></g></g></g></g></g></g></g></g><path d="m510.831 231.436-156.727-156.728-266.171 230.534 121.413 121.413c15.128-4.077 30.721-7.01 46.654-7.01 73.099 0 139.041 61.717 185.688 12.583 43.575-45.9 70.312-107.942 70.312-176.228 0-8.286-.399-16.48-1.169-24.564z" fill="#205077"/><g><path d="m376.025 147.055c0-120.69-120.025-110.145-120.025-110.145s-120.025-10.545-120.025 110.145-48.042 158.187-48.042 158.187 58.954 50.385 168.067 50.385 168.067-50.385 168.067-50.385-48.042-37.497-48.042-158.187z" fill="#fbe280"/><path d="m424.07 305.24s-58.96 50.39-168.07 50.39v-318.72s120.03-10.55 120.03 110.15c0 120.69 48.04 158.18 48.04 158.18z" fill="#efc859"/><path d="m204.569 251.57h102.861v130.261h-102.861z" fill="#eaa678"/><path d="m256 251.573h51.431v130.261h-51.431z" fill="#d38c5b"/><path d="m204.569 327.29h102.861v116.374h-102.861z" fill="#ffc397"/><path d="m256 327.29h51.431v116.374h-51.431z" fill="#eaa678"/><path d="m412.668 409.806c-18.83 19.83-11.758 59.064-36.068 72.064-35.94 19.23-76.99 30.13-120.6 30.13s-84.66-10.9-120.6-30.13c-24.31-13-13.715-51.389-32.545-71.219l32.545-83.361h69.169l51.431 52.389 51.431-52.389h69.169z" fill="#dd4571"/><path d="m429.28 415.437c-18.822 19.823-28.374 53.428-52.68 66.433-35.936 19.227-76.994 30.13-120.6 30.13v-132.321l51.431-52.389h69.169z" fill="#c12156"/><path d="m344.251 152.225c-3.728-56.6-49.511-77.517-88.251-77.517s-84.523 20.917-88.251 77.517c-10.018 1.938-17.134 15.077-16.014 25.701l1.717 24.177c1.175 11.157 10.982 19.301 21.79 18.089l1.864-.202c22.138 59.446 56.857 65.644 78.894 69.125 22.038-3.48 56.756-9.678 78.894-69.125l1.864.202c10.807 1.212 20.614-6.932 21.79-18.089l1.717-24.177c1.12-10.624-5.996-23.763-16.014-25.701z" fill="#ffc397"/><path d="m360.265 177.926-1.717 24.177c-1.175 11.157-10.982 19.301-21.79 18.089l-1.864-.202c-7.566 20.293-16.592 34.388-26.078 44.277-18.291 19.081-38.299 22.552-52.817 24.847v-214.406c38.74 0 84.523 20.917 88.251 77.517 10.019 1.938 17.135 15.077 16.015 25.701z" fill="#eaa678"/><path d="m164.798 153.149 20.383 41.426 34.913-74.332s29.858 42.797 63.92 46.176v-28.156s30.684 18.771 39.694 56.312l20.543-42.35s19.733-110.819-88.251-99.556c0 0-19.73-4.201-40.129.704-35.47 8.529-77.187 36.059-51.073 99.776z" fill="#fbe280"/><path d="m344.25 152.22-20.54 42.35c-9.01-37.54-39.69-56.31-39.69-56.31v28.16c-9.91-.98-19.46-5.3-28.02-10.93v-102.82c107.98-11.26 88.25 99.55 88.25 99.55z" fill="#efc859"/><g><path d="m135.4 327.29v154.58c-24.31-13-46.26-29.81-65.09-49.64v-50.77c0-29.92 24.25-54.17 54.17-54.17z" fill="#fff"/><path d="m441.69 381.46v50.77c-18.83 19.83-40.78 36.64-65.09 49.64v-154.58h10.92c29.92 0 54.17 24.25 54.17 54.17z" fill="#dbdbdb"/></g></g></g></svg>