<svg id="Layer_1" enable-background="new 0 0 512 512" height="512" viewBox="0 0 512 512" width="512" xmlns="http://www.w3.org/2000/svg"><g><g><g><g><g><g id="XMLID_1651_"><g id="XMLID_1652_"><g id="XMLID_1653_"><g id="XMLID_1654_"><g id="XMLID_1655_"><g id="XMLID_1656_"><g id="XMLID_1657_"><g id="XMLID_1658_"><g id="XMLID_1659_"><g id="XMLID_1660_"><g id="XMLID_1661_"><g id="XMLID_1727_"><g id="XMLID_1728_"><g id="XMLID_1729_"><g><path d="m512 256c0 65.98-24.96 126.13-65.95 171.52-4.13 4.57-8.42 8.43-12.86 11.67-46 33.51-108.42.43-177.19.43-75.41 0-143.2 39.78-190.05-12.1-40.99-45.39-65.95-105.54-65.95-171.52 0-141.38 114.62-256 256-256 130.67 0 238.48 97.91 254.06 224.37 1.28 10.36 1.94 20.92 1.94 31.63z" fill="#5de9f4"/></g></g></g></g></g></g></g></g></g></g></g></g></g></g></g></g></g></g></g><path d="m512 256c0 65.98-24.96 126.13-65.95 171.52-4.13 4.57-8.42 8.43-12.86 11.67l-85.89-31.07-61.87-117.35-64.01-14.2-61.53-61.53 45.87-16.67-49.57-49.58s81.8-6.14 133.56-4.14l38.24-102.34 182.07 182.06c1.28 10.36 1.94 20.92 1.94 31.63z" fill="#4bc5ef"/><path d="m199.97 250.232h112.06v118.84h-112.06z" fill="#eaa678"/><path d="m256 250.236h56.03v118.84h-56.03z" fill="#d38c5b"/><path d="m199.97 324.82h112.06v121.31h-112.06z" fill="#ffc397"/><path d="m256 324.82h56.03v121.31h-56.03z" fill="#eaa678"/><path d="m446.05 382.27v45.25c-46.86 51.88-114.65 84.48-190.05 84.48s-143.19-32.6-190.05-84.48v-45.25c0-31.73 25.72-57.45 57.45-57.45h76.57v12.46c0 30.95 25.09 56.03 56.03 56.03 15.47 0 29.48-6.27 39.62-16.41s16.41-24.14 16.41-39.62v-12.46h76.57c31.73 0 57.45 25.72 57.45 57.45z" fill="#dd4571"/><path d="m446.05 382.27v45.25c-46.86 51.88-114.65 84.48-190.05 84.48v-118.69c15.47 0 29.48-6.27 39.62-16.41s16.41-24.14 16.41-39.62v-12.46h76.57c31.73 0 57.45 25.72 57.45 57.45z" fill="#c12156"/><path d="m157.33 419.645v72.625c-11.17-4.66-21.95-10.11-32.25-16.25v-56.375z" fill="#c12156"/><path d="m386.92 419.645v56.375c-10.3 6.14-21.08 11.59-32.25 16.25v-72.625z" fill="#990541"/><path d="m344.251 152.225c-3.728-56.6-49.511-77.517-88.251-77.517s-84.523 20.917-88.251 77.517c-10.018 1.938-17.134 15.077-16.014 25.701l1.717 24.177c1.175 11.157 10.982 19.301 21.79 18.089l1.864-.202c22.139 59.446 56.857 65.644 78.894 69.125 22.037-3.48 56.756-9.678 78.894-69.125l1.864.202c10.807 1.212 20.614-6.932 21.79-18.089l1.717-24.177c1.12-10.624-5.996-23.763-16.014-25.701z" fill="#ffc397"/><path d="m360.265 177.926-1.717 24.177c-1.175 11.157-10.982 19.301-21.79 18.089l-1.864-.202c-7.566 20.293-16.592 34.388-26.078 44.277-18.291 19.081-38.299 22.552-52.817 24.847v-214.406c38.74 0 84.523 20.917 88.251 77.517 10.019 1.938 17.135 15.077 16.015 25.701z" fill="#eaa678"/><path d="m345.479 99.932c-7.02-19.086-23.096-33.414-42.861-38.201-30.636-7.419-62.6-7.419-93.235 0-19.765 4.786-35.841 19.114-42.861 38.201-3.979 10.818-4.809 22.543-2.394 33.814l8.484 39.594 13.535 10.449 18.678-63.235c33.051 12.063 69.3 12.063 102.35 0l18.678 63.235 13.535-10.449 8.484-39.594c2.416-11.271 1.586-22.995-2.393-33.814z" fill="#515151"/><path d="m347.87 133.75-4.38 20.45-4.1 19.14-13.54 10.45-8.73-29.58-9.94-33.66c-16.53 6.03-33.86 9.05-51.18 9.05v-73.44c15.65 0 31.3 1.86 46.62 5.57 19.76 4.79 35.84 19.12 42.86 38.2.28.77.55 1.54.8 2.32.38 1.17.72 2.35 1.02 3.53 2.35 9.13 2.56 18.7.57 27.97z" fill="#3d3d3d"/><path d="m164.704 116.609v-24.267c0-41.127 33.34-74.467 74.467-74.467h33.658c41.127 0 74.467 33.34 74.467 74.467v24.267z" fill="#dd4571"/><path d="m347.3 92.34v24.27h-91.3v-98.74h16.83c41.13 0 74.47 33.34 74.47 74.47z" fill="#c12156"/><path d="m342.902 154.212h-173.804c-9.998 0-18.104-8.105-18.104-18.104v-16.075c0-9.998 8.105-18.104 18.104-18.104h173.805c9.998 0 18.104 8.105 18.104 18.104v16.075c-.001 9.999-8.106 18.104-18.105 18.104z" fill="#5bbc96"/><path d="m361.01 120.03v16.08c0 9.8-7.79 17.78-17.52 18.09-.19.01-.39.01-.59.01h-86.9v-52.28h86.9c1.16 0 2.29.11 3.38.32.34.06.68.13 1.02.22 7.87 1.96 13.71 9.08 13.71 17.56z" fill="#399e73"/></g></svg>