<svg id="Layer_1" enable-background="new 0 0 512 512" height="512" viewBox="0 0 512 512" width="512" xmlns="http://www.w3.org/2000/svg"><g><g><g><g><g><g><g id="XMLID_1557_"><g id="XMLID_1558_"><g id="XMLID_1559_"><g id="XMLID_1560_"><g id="XMLID_1561_"><g id="XMLID_1562_"><g id="XMLID_1563_"><g id="XMLID_1564_"><g id="XMLID_1565_"><g id="XMLID_1566_"><g id="XMLID_1567_"><g id="XMLID_1568_"><g id="XMLID_1569_"><g id="XMLID_1570_"><g id="XMLID_1586_"><path d="m0 256c0-141.385 114.615-256 256-256s256 114.615 256 256c0 68.286-26.736 130.328-70.312 176.228-46.647 49.134-112.589 15.307-185.688 15.307s-139.041 33.827-185.688-15.307c-43.576-45.9-70.312-107.942-70.312-176.228z" fill="#dd4571"/></g></g></g></g></g></g></g></g></g></g></g></g></g></g></g></g></g></g></g><path d="m511.092 234.348-165.747-165.748-28.675 210.281 82.652 177.436c15.4-3.415 29.605-10.648 42.366-24.089 43.576-45.9 70.312-107.942 70.312-176.228 0-7.293-.31-14.514-.908-21.652z" fill="#c12156"/><g><path d="m406.594 283.667c-28.344-30.033-24.59-47.02-14.453-83.342 10.136-36.321-30.476-108.096-30.476-108.096h-211.33s-40.612 71.775-30.476 108.096 13.89 53.309-14.453 83.342c-22.972 24.341-9.198 69.545-9.198 69.545h319.583c.001 0 13.774-45.204-9.197-69.545z" fill="#fbe280"/><path d="m415.79 353.21h-159.79v-260.98h105.67c.01.01.01.03.02.04 1.1 1.95 40.45 72.23 30.45 108.06-10.14 36.32-13.89 53.3 14.45 83.34 22.98 24.34 9.2 69.54 9.2 69.54z" fill="#efc859"/><path d="m199.97 250.232h112.06v118.84h-112.06z" fill="#eaa678"/><path d="m256 250.236h56.03v118.84h-56.03z" fill="#d38c5b"/><path d="m199.97 327.29h112.06v118.84h-112.06z" fill="#ffc397"/><path d="m256 327.29h56.03v118.84h-56.03z" fill="#eaa678"/><path d="m441.69 381.46v50.77c-42.24 44.48-100.28 73.81-165.14 78.95-6.78.55-13.63.82-20.55.82s-13.77-.27-20.55-.82c-64.86-5.14-122.9-34.47-165.14-78.95v-50.77c0-29.92 24.25-54.17 54.17-54.17h45.15s48.01 78.16 86.37 78.16 86.37-78.16 86.37-78.16h45.15c29.92 0 54.17 24.25 54.17 54.17z" fill="#336b90"/><path d="m441.69 381.46v50.77c-46.65 49.13-112.59 79.77-185.69 79.77v-111.62c52.191 10.552 86.373-73.09 86.373-73.09h45.147c29.92 0 54.17 24.25 54.17 54.17z" fill="#205077"/><path d="m276.55 411.5v99.68c-6.78.55-13.63.82-20.55.82s-13.77-.27-20.55-.82v-99.68z" fill="#dbdbdb"/><path d="m276.55 411.5v99.68c-6.78.55-13.63.82-20.55.82v-100.5z" fill="#bfbfbf"/><path d="m157.33 419.645v72.625c-11.17-4.66-21.95-10.11-32.25-16.25v-56.375z" fill="#205077"/><path d="m386.92 419.645v56.375c-10.3 6.14-21.08 11.59-32.25 16.25v-72.625z" fill="#17416b"/><path d="m344.251 152.225c-3.728-56.6-49.511-77.517-88.251-77.517s-84.523 20.917-88.251 77.517c-10.018 1.938-17.134 15.077-16.014 25.701l1.717 24.177c1.175 11.157 10.982 19.301 21.79 18.089l1.864-.202c22.139 59.446 56.857 65.644 78.894 69.125 22.037-3.48 56.756-9.678 78.894-69.125l1.864.202c10.807 1.212 20.614-6.932 21.79-18.089l1.717-24.177c1.12-10.624-5.996-23.763-16.014-25.701z" fill="#ffc397"/><path d="m360.265 177.926-1.717 24.177c-1.175 11.157-10.982 19.301-21.79 18.089l-1.864-.202c-7.566 20.293-16.592 34.388-26.078 44.277-18.291 19.081-38.299 22.552-52.817 24.847v-214.406c38.74 0 84.523 20.917 88.251 77.517 10.019 1.938 17.135 15.077 16.015 25.701z" fill="#eaa678"/><path d="m361.665 92.229c-13.922-32.494-61.876-65.156-105.665-42.256-43.789-22.9-91.743 9.762-105.665 42.256-13.019 30.386 6.677 67.419 6.677 67.419s44.36 11.959 52.383-24.081c7.165-32.182 46.605-12.201 46.605-12.201s39.44-19.981 46.605 12.201c8.023 36.04 52.383 24.081 52.383 24.081s19.696-37.033 6.677-67.419z" fill="#fbe280"/><path d="m354.99 159.65s-44.36 11.96-52.39-24.08c-7.16-32.19-46.6-12.2-46.6-12.2v-73.4c43.79-22.9 91.74 9.76 105.67 42.26.01.01.01.03.02.04 12.97 30.38-6.7 67.38-6.7 67.38z" fill="#efc859"/><g><path d="m256 417.392c-47.627 0-86.373-38.747-86.373-86.373v-3.729h30.343v3.729c0 31.084 24.946 56.373 56.03 56.373s56.03-25.289 56.03-56.373v-3.729h30.343v3.729c0 47.626-38.747 86.373-86.373 86.373z" fill="#fff"/></g><g><path d="m342.37 327.29v3.73c0 40.54-28.08 74.66-65.82 83.89-6.59 1.62-13.47 2.48-20.55 2.48v-30c31.08 0 56.03-25.29 56.03-56.37v-3.73z" fill="#dbdbdb"/></g></g></g><path d="" fill="#4bc5ef"/></g></svg>