<svg id="Layer_1" enable-background="new 0 0 512 512" height="512" viewBox="0 0 512 512" width="512" xmlns="http://www.w3.org/2000/svg"><g><g><g><g><g><g id="XMLID_1596_"><g id="XMLID_1597_"><g id="XMLID_1598_"><g id="XMLID_1599_"><g id="XMLID_1600_"><g id="XMLID_1601_"><g id="XMLID_1632_"><g id="XMLID_1633_"><g id="XMLID_1634_"><g id="XMLID_1635_"><g id="XMLID_1636_"><g id="XMLID_1637_"><g id="XMLID_1638_"><g id="XMLID_1724_"><g id="XMLID_1740_"><path d="m0 256c0-141.385 114.615-256 256-256s256 114.615 256 256c0 65.978-24.96 126.127-65.952 171.519-46.85 51.879-114.642-29.538-190.048-29.538s-143.199 81.417-190.048 29.538c-40.993-45.392-65.952-105.541-65.952-171.519z" fill="#5bbc96"/></g></g></g></g></g></g></g></g></g></g></g></g></g></g></g></g></g></g></g><path d="m510.12 224.862-174.446-174.447-201.126 113.754 43.748 43.748-16.552 8.647 139.103 139.104 26.769-20.448 94.211 107.887c8.58-2.336 16.673-7.23 24.221-15.589 40.992-45.391 65.952-105.54 65.952-171.518 0-10.541-.642-20.931-1.88-31.138z" fill="#309167"/><g><path d="m199.97 250.232h112.06v118.84h-112.06z" fill="#eaa678"/><path d="m256 250.236h56.03v118.84h-56.03z" fill="#d38c5b"/><path d="m199.97 324.824h112.06v118.84h-112.06z" fill="#ffc397"/><path d="m256 324.824h56.03v118.84h-56.03z" fill="#eaa678"/><path d="m446.05 382.27v45.25c-46.86 51.88-114.65 84.48-190.05 84.48s-143.19-32.6-190.05-84.48v-45.25c0-31.73 25.72-57.45 57.45-57.45h76.57v12.46c0 30.95 25.09 56.03 56.03 56.03 15.47 0 29.48-6.27 39.62-16.41s16.41-24.14 16.41-39.62v-12.46h76.57c31.73 0 57.45 25.72 57.45 57.45z" fill="#515151"/><path d="m446.05 382.27v45.25c-46.86 51.88-114.65 84.48-190.05 84.48v-118.69c15.47 0 29.48-6.27 39.62-16.41s16.41-24.14 16.41-39.62v-12.46h76.57c31.73 0 57.45 25.72 57.45 57.45z" fill="#3d3d3d"/><path d="m157.33 419.645v72.625c-11.17-4.66-21.95-10.11-32.25-16.25v-56.375z" fill="#3d3d3d"/><path d="m386.92 419.645v56.375c-10.3 6.14-21.08 11.59-32.25 16.25v-72.625z" fill="#242625"/><g><path d="m344.251 152.225c-3.728-56.6-49.511-77.517-88.251-77.517s-84.523 20.917-88.251 77.517c-10.018 1.938-17.134 15.077-16.014 25.701l1.717 24.177c1.175 11.157 10.982 19.301 21.79 18.089l1.864-.202c22.138 59.446 56.857 65.644 78.894 69.125 22.038-3.48 56.756-9.678 78.894-69.125l1.864.202c10.807 1.212 20.614-6.932 21.79-18.089l1.717-24.177c1.12-10.624-5.996-23.763-16.014-25.701z" fill="#ffc397"/><path d="m360.265 177.926-1.717 24.177c-1.175 11.157-10.982 19.301-21.79 18.089l-1.864-.202c-7.566 20.293-16.592 34.388-26.078 44.277-18.291 19.081-38.299 22.552-52.817 24.847v-214.406c38.74 0 84.523 20.917 88.251 77.517 10.019 1.938 17.135 15.077 16.015 25.701z" fill="#eaa678"/><path d="m343.185 83.113c-19.611-34.59-58.438-44.027-87.185-44.027s-67.574 9.437-87.185 44.027c-26.546 46.821 9.125 111.957 9.125 111.957h16.591l-3.509-59.366 51.013-34.944c.036.202.073.403.11.606 0 0 12.829 36.63 43.905 50.26 12.89 5.653 24.566 5.745 33.818 3.917l-2.4 39.527h16.591c.001 0 35.672-65.136 9.126-111.957z" fill="#515151"/><path d="m334.06 195.074h-16.59l2.4-39.53c-9.25 1.83-20.93 1.73-33.82-3.92-13.14-5.77-23.02-15.64-30.05-25.12v-87.42c28.75 0 67.57 9.44 87.19 44.03 26.54 46.82-9.13 111.96-9.13 111.96z" fill="#3d3d3d"/><path d="m286.909 26.885h-61.819c-29.466 0-54.902 20.643-60.967 49.478l-6.648 31.612 98.525 11.845 98.524-11.845-6.648-31.612c-6.064-28.835-31.501-49.478-60.967-49.478z" fill="#336b90"/><path d="m354.52 107.98-98.52 11.84v-92.94h30.91c29.47 0 54.9 20.65 60.97 49.48z" fill="#205077"/></g><path d="m354.524 107.975h-197.048l-22.928 56.194h242.905z" fill="#fbe280"/><path d="m377.45 164.17h-121.45v-56.19h98.52z" fill="#efc859"/><path d="m365.151 324.82c0-40.402-53.121-35.705-53.121-35.705 0 79.95-56.02 95.126-56.03 95.129-.01-.003-56.03-15.179-56.03-95.129 0 0-53.121-4.696-53.121 35.705 0 36.121 33.974 90.021 109.151 92.572s0 0 0 0c75.177-2.551 109.151-56.451 109.151-92.572z" fill="#fbe280"/><path d="m365.15 324.82c0 18.06-8.49 40.56-26.38 58.87s-45.18 32.43-82.77 33.7v-33.15c.01 0 56.03-15.18 56.03-95.13 0 0 53.12-4.69 53.12 35.71z" fill="#efc859"/></g></g></svg>