<svg id="Layer_1" enable-background="new 0 0 512 512" height="512" viewBox="0 0 512 512" width="512" xmlns="http://www.w3.org/2000/svg"><g><g><g><g><g><g id="XMLID_1517_"><g id="XMLID_1518_"><g id="XMLID_1519_"><g id="XMLID_1771_"><g id="XMLID_1772_"><g id="XMLID_1773_"><g id="XMLID_1774_"><g id="XMLID_1775_"><g id="XMLID_1776_"><g id="XMLID_1777_"><g id="XMLID_1778_"><g id="XMLID_1779_"><g id="XMLID_1780_"><g id="XMLID_1781_"><g><path d="m512 256c0 68.29-26.74 130.33-70.31 176.23-41.75 43.97-98.94 10.9-162.9 3.46-7.5-.87-15.11-1.39-22.79-1.39-73.1 0-139.04 47.06-185.69-2.07-43.57-45.9-70.31-107.94-70.31-176.23 0-141.38 114.62-256 256-256 136.13 0 247.45 106.26 255.53 240.36.31 5.17.47 10.39.47 15.64z" fill="#fbe280"/></g></g></g></g></g></g></g></g></g></g></g></g></g></g></g></g></g></g></g><path d="m512 256c0 68.29-26.74 130.33-70.31 176.23-41.75 43.97-98.94 10.9-162.9 3.46l-5.87-40.58-121.3-121.3 178.24-215.11 181.67 181.66c.31 5.17.47 10.39.47 15.64z" fill="#efc859"/><path d="m378.835 134.99c-35.646-110.781-122.835-100.377-122.835-100.377s-87.189-10.404-122.835 100.377c0 0-53.468 141.996 75.449 164.03h94.771c128.917-22.034 75.45-164.03 75.45-164.03z" fill="#af5e22"/><path d="m303.39 299.02h-47.39v-264.41s87.19-10.4 122.83 100.38c0 0 53.47 142-75.44 164.03z" fill="#89491d"/><path d="m204.569 255.11h102.861v109.084h-102.861z" fill="#eaa678"/><path d="m256 255.113h51.431v109.084h-51.431z" fill="#d38c5b"/><path d="m199.97 327.29h112.06v116.374h-112.06z" fill="#ffc397"/><path d="m256 327.29h56.03v116.374h-56.03z" fill="#eaa678"/><path d="m441.69 381.46v50.77c-16.12 16.98-34.54 31.74-54.77 43.8-10.3 6.15-21.07 11.59-32.25 16.26-24.36 10.18-50.63 16.71-78.12 18.89-6.78.55-13.63.82-20.55.82s-13.77-.27-20.55-.82c-27.49-2.18-53.76-8.71-78.12-18.89-11.18-4.67-21.95-10.11-32.25-16.26-20.23-12.06-38.65-26.82-54.77-43.8v-50.77c0-29.92 24.25-54.17 54.17-54.17h45.15s48.01 78.16 86.37 78.16 86.37-78.16 86.37-78.16h45.15c29.92 0 54.17 24.25 54.17 54.17z" fill="#fff"/><path d="m441.69 381.46v50.77c-46.65 49.13-112.59 79.77-185.69 79.77v-111.62c52.191 10.552 86.373-73.09 86.373-73.09h45.147c29.92 0 54.17 24.25 54.17 54.17z" fill="#dbdbdb"/><path d="m157.33 424.64v67.65c-11.18-4.67-21.95-10.11-32.25-16.26v-51.39z" fill="#dbdbdb"/><path d="m386.92 424.64v51.39c-10.3 6.15-21.07 11.59-32.25 16.26v-67.65z" fill="#bfbfbf"/><g><path d="m256 417.392c-47.626 0-86.373-38.747-86.373-86.373v-3.729h30.343v3.729c0 31.084 24.946 56.373 56.03 56.373s56.03-25.289 56.03-56.373v-3.729h30.343v3.729c0 47.626-38.747 86.373-86.373 86.373z" fill="#bfbfbf"/></g><g><path d="m342.37 327.29v3.73c0 40.54-28.08 74.66-65.82 83.89-6.59 1.62-13.47 2.48-20.55 2.48v-30c31.08 0 56.03-25.29 56.03-56.37v-3.73z" fill="#898989"/></g><path d="m344.251 152.225c-3.728-56.6-49.511-77.517-88.251-77.517s-84.523 20.917-88.251 77.517c-10.018 1.938-17.134 15.077-16.014 25.701l1.717 24.177c1.175 11.157 10.982 19.301 21.79 18.089l1.864-.202c22.138 59.446 56.857 65.644 78.894 69.125 22.038-3.48 56.756-9.678 78.894-69.125l1.864.202c10.807 1.212 20.614-6.932 21.79-18.089l1.717-24.177c1.12-10.624-5.996-23.763-16.014-25.701z" fill="#ffc397"/><path d="m360.265 177.926-1.717 24.177c-1.175 11.157-10.982 19.301-21.79 18.089l-1.864-.202c-7.566 20.293-16.592 34.388-26.078 44.277-18.291 19.081-38.299 22.552-52.817 24.847v-214.406c38.74 0 84.523 20.917 88.251 77.517 10.019 1.938 17.135 15.077 16.015 25.701z" fill="#eaa678"/><path d="m166.221 149.683 10.86 30.201 33.227-64.183s23.201 55.282 80.202 48.98l-11.171-32.94 54.709 48.142s7.241-16.274 11.732-30.201c0 0 16.638-90.983-89.779-90.983s-89.78 90.984-89.78 90.984z" fill="#af5e22"/><path d="m345.78 149.68c-4.49 13.93-11.73 30.2-11.73 30.2l-54.71-48.14 11.17 32.94c-13.3 1.47-24.76-.41-34.51-4.17v-101.81c106.42 0 89.78 90.98 89.78 90.98z" fill="#89491d"/></g></svg>