<svg id="Layer_1" enable-background="new 0 0 512 512" height="512" viewBox="0 0 512 512" width="512" xmlns="http://www.w3.org/2000/svg"><g><g><g><g><g><g id="XMLID_1290_"><g id="XMLID_1291_"><g id="XMLID_1292_"><g id="XMLID_1293_"><g id="XMLID_1294_"><g id="XMLID_1309_"><g id="XMLID_1310_"><g id="XMLID_1311_"><g id="XMLID_1312_"><g id="XMLID_1313_"><g id="XMLID_1314_"><g id="XMLID_1420_"><g id="XMLID_1421_"><g id="XMLID_1422_"><g><path d="m512 256c0 58.11-19.36 111.7-51.99 154.66-25.59 33.7-92.69 35.6-143.08 31.96-32.21-2.33-57.59-6.93-60.93-6.93-8.56 0-159.5 31.72-201.46-21.72-34.16-43.51-54.54-98.36-54.54-157.97 0-141.38 114.62-256 256-256 135.9 0 247.08 105.91 255.49 239.7.34 5.39.51 10.82.51 16.3z" fill="#5bbc96"/></g></g></g></g></g></g></g></g></g></g></g></g></g></g></g></g></g></g></g><path d="m512 256c0 58.11-19.36 111.7-51.99 154.66-25.59 33.7-92.69 35.6-143.08 31.96l-86.29-117.8 10.01-29.1-80.05-80.05 50.45-48.11-30.67-43.11 6.61-71.94 102.17 102.17 35.14-102.17 187.19 187.19c.34 5.39.51 10.82.51 16.3z" fill="#309167"/><g><path d="m199.97 250.232h112.06v118.84h-112.06z" fill="#eaa678"/><path d="m256 250.236h56.03v118.84h-56.03z" fill="#d38c5b"/><path d="m457.46 383.21v30.76c-46.87 59.69-119.69 98.03-201.46 98.03s-154.59-38.34-201.46-98.03v-30.76c0-24.04 19.49-43.53 43.53-43.53h64.36l93.79 29.4 93.79-29.4h63.92c24.04 0 43.53 19.49 43.53 43.53z" fill="#fff"/><path d="m457.46 383.21v30.76c-46.87 59.69-119.69 98.03-201.46 98.03v-142.99l.22.07 93.79-29.4h63.92c24.04 0 43.53 19.49 43.53 43.53z" fill="#dbdbdb"/><path d="m281.36 369.1v141.66c-8.34.82-16.8 1.24-25.36 1.24s-17.02-.42-25.36-1.24v-141.66z" fill="#205077"/><path d="m281.36 369.1v141.66c-8.34.82-16.8 1.24-25.36 1.24v-142.9z" fill="#163c66"/><path d="m146.16 425.84v61.45c-11.23-5.33-22-11.46-32.25-18.32v-43.13z" fill="#dbdbdb"/><path d="m398.53 425.84v42.84c-10.25 6.88-21.02 13.04-32.25 18.4v-61.24z" fill="#bfbfbf"/><path d="m199.97 309.655-37.541 30.029 46.785 57.438 46.786-28.047z" fill="#336b90"/><path d="m312.117 309.655 37.542 30.029-46.786 57.438-46.786-28.047z" fill="#0e385b"/><path d="m344.251 152.225c-3.728-56.6-49.511-77.517-88.251-77.517s-84.523 20.917-88.251 77.517c-10.018 1.938-17.134 15.077-16.014 25.701l1.717 24.177c1.175 11.157 10.982 19.301 21.79 18.089l1.864-.202c22.138 59.446 56.857 65.644 78.894 69.125 22.038-3.48 56.756-9.678 78.894-69.125l1.864.202c10.807 1.212 20.614-6.932 21.79-18.089l1.717-24.177c1.12-10.624-5.996-23.763-16.014-25.701z" fill="#ffc397"/><path d="m360.265 177.926-1.717 24.177c-1.175 11.157-10.982 19.301-21.79 18.089l-1.864-.202c-7.566 20.293-16.592 34.388-26.078 44.277-18.291 19.081-38.299 22.552-52.817 24.847v-214.406c38.74 0 84.523 20.917 88.251 77.517 10.019 1.938 17.135 15.077 16.015 25.701z" fill="#eaa678"/><path d="m324.3 52.51-15.487 22.198c-16.049-15.113-52.813-42.607-52.813-42.607s-36.764 27.494-52.813 42.607l-16.193-22.198s-42.934 82.078-19.283 122.623h20.272l11.987-60.817 20.298 15.204 19.428-15.204 16.304 15.204 16.304-15.204 19.428 15.204 20.298-15.204 11.987 60.817h20.272c23.651-40.544-19.989-122.623-19.989-122.623z" fill="#515151"/><path d="m272.304 114.316 19.428 15.204 20.298-15.204 11.987 60.817h20.272c23.651-40.544-19.989-122.623-19.989-122.623l-15.487 22.198c-16.049-15.113-52.813-42.607-52.813-42.607v97.42z" fill="#3d3d3d"/></g></g></svg>