<svg id="Layer_1" enable-background="new 0 0 512 512" height="512" viewBox="0 0 512 512" width="512" xmlns="http://www.w3.org/2000/svg"><g><g><g><g><g><g id="XMLID_1857_"><g id="XMLID_1858_"><g id="XMLID_1859_"><g id="XMLID_1860_"><g id="XMLID_1861_"><g id="XMLID_1862_"><g id="XMLID_1863_"><g id="XMLID_1864_"><g id="XMLID_1865_"><g id="XMLID_1866_"><g id="XMLID_1867_"><g id="XMLID_1868_"><g id="XMLID_1869_"><g id="XMLID_1870_"><g><path d="m512 255.4v.6c0 65.98-24.96 126.13-65.95 171.52-27.78 30.76-62.92 24.45-102.65 14.22-27.27-7.02-56.71-15.9-87.4-15.9-75.41 0-143.2 53.56-190.05 1.68-40.99-45.39-65.95-105.54-65.95-171.52 0-141.38 114.62-256 256-256 141.18 0 255.68 114.3 256 255.4z" fill="#fbe280"/></g></g></g></g></g></g></g></g></g></g></g></g></g></g></g></g></g></g></g><path d="m512 255.4v.6c0 65.98-24.96 126.13-65.95 171.52-27.78 30.76-62.92 24.45-102.65 14.22l-81.78-169.12 76.89-190.71z" fill="#efc859"/><path d="m384.968 244.96c14.641-44.487-53.496-73.769-53.496-73.769l-26.467-64.759h-98.01l-26.467 64.759s-68.137 29.282-53.496 73.769c14.641 44.486-50.681 64.084-11.826 124.112h281.587c38.855-60.028-26.466-79.626-11.825-124.112z" fill="#cc7a05"/><path d="m396.79 369.07h-140.79v-262.64h49l26.47 64.76s1.03.44 2.8 1.3c12.67 6.11 63.54 33.44 50.7 72.47-14.64 44.49 50.68 64.08 11.82 124.11z" fill="#af5e22"/><path d="m204.569 255.11h102.861v109.084h-102.861z" fill="#eaa678"/><path d="m256 255.113h51.431v109.084h-51.431z" fill="#d38c5b"/><path d="m199.97 324.82h112.06v121.31h-112.06z" fill="#ffc397"/><path d="m256 324.82h56.03v121.31h-56.03z" fill="#eaa678"/><path d="m446.05 382.27v45.25c-46.86 51.88-114.65 84.48-190.05 84.48s-143.19-32.6-190.05-84.48v-45.25c0-31.73 25.72-57.45 57.45-57.45h76.57v12.46c0 30.95 25.09 56.03 56.03 56.03 15.47 0 29.48-6.27 39.62-16.41s16.41-24.14 16.41-39.62v-12.46h76.57c31.73 0 57.45 25.72 57.45 57.45z" fill="#515151"/><path d="m446.05 382.27v45.25c-46.86 51.88-114.65 84.48-190.05 84.48v-118.69c15.47 0 29.48-6.27 39.62-16.41s16.41-24.14 16.41-39.62v-12.46h76.57c31.73 0 57.45 25.72 57.45 57.45z" fill="#3d3d3d"/><path d="m157.33 419.645v72.625c-11.17-4.66-21.95-10.11-32.25-16.25v-56.375z" fill="#3d3d3d"/><path d="m386.92 419.645v56.375c-10.3 6.14-21.08 11.59-32.25 16.25v-72.625z" fill="#242625"/><path d="m344.251 152.225c-3.728-56.6-49.511-77.517-88.251-77.517s-84.523 20.917-88.251 77.517c-10.018 1.938-17.134 15.077-16.014 25.701l1.717 24.177c1.175 11.157 10.982 19.301 21.79 18.089l1.864-.202c22.139 59.446 56.857 65.644 78.894 69.125 22.037-3.48 56.756-9.678 78.894-69.125l1.864.202c10.807 1.212 20.614-6.932 21.79-18.089l1.717-24.177c1.12-10.624-5.996-23.763-16.014-25.701z" fill="#ffc397"/><path d="m360.265 177.926-1.717 24.177c-1.175 11.157-10.982 19.301-21.79 18.089l-1.864-.202c-7.566 20.293-16.592 34.388-26.078 44.277-18.291 19.081-38.299 22.552-52.817 24.847v-214.406c38.74 0 84.523 20.917 88.251 77.517 10.019 1.938 17.135 15.077 16.015 25.701z" fill="#eaa678"/><path d="m346.048 97.402c-18.06-54.759-90.048-44.479-90.048-44.479s-71.988-10.28-90.048 44.479c-13.569 41.143 17.566 84.51 17.566 84.51l33.282-44.479 39.2 44.479 39.2-44.479 33.282 44.479c0-.001 31.135-43.367 17.566-84.51z" fill="#cc7a05"/><path d="m334.27 172.49c-3.29 5.93-5.79 9.42-5.79 9.42l-33.28-44.48-39.2 44.48v-128.99s71.99-10.28 90.05 44.48c9.72 29.48-3.51 60.1-11.78 75.09z" fill="#af5e22"/></g></svg>