<svg id="Layer_1" enable-background="new 0 0 512 512" height="512" viewBox="0 0 512 512" width="512" xmlns="http://www.w3.org/2000/svg"><g><g><g><g><g><g id="XMLID_1617_"><g id="XMLID_1618_"><g id="XMLID_1619_"><g id="XMLID_1620_"><g id="XMLID_1621_"><g id="XMLID_1622_"><g id="XMLID_1623_"><g id="XMLID_1624_"><g id="XMLID_1625_"><g id="XMLID_1626_"><g id="XMLID_1627_"><g id="XMLID_1628_"><g id="XMLID_1629_"><g id="XMLID_1630_"><g id="XMLID_1631_"><path d="m0 256c0-141.385 114.615-256 256-256s256 114.615 256 256c0 59.61-20.374 114.462-54.539 157.971-46.867 59.687-119.686 17.234-201.461 17.234s-154.594 42.454-201.462-17.233c-34.164-43.51-54.538-98.362-54.538-157.972z" fill="#5bbc96"/></g></g></g></g></g></g></g></g></g></g></g></g></g></g></g></g></g></g></g><path d="m511.548 240.739-158.83-158.83c-1.509.574-2.989 1.223-4.443 1.936l-33.168-33.208-154.64 164.915 113.371 113.371c-1.641 36.717-1.722 72.367-1.163 102.834 74.956 4.786 141.131 37.812 184.787-17.786 34.164-43.509 54.538-98.361 54.538-157.971 0-5.124-.155-10.212-.452-15.261z" fill="#309167"/><path d="m199.97 250.232h112.06v118.84h-112.06z" fill="#eaa678"/><path d="m256 250.236h56.03v118.84h-56.03z" fill="#d38c5b"/><path d="m457.46 383.21v30.76c-46.87 59.69-119.69 98.03-201.46 98.03s-154.59-38.34-201.46-98.03v-30.76c0-24.04 19.49-43.53 43.53-43.53h64.36l93.79 29.4 93.79-29.4h63.92c24.04 0 43.53 19.49 43.53 43.53z" fill="#336b90"/><path d="m457.46 383.21v30.76c-46.87 59.69-119.69 98.03-201.46 98.03v-142.99l.22.07 93.79-29.4h63.92c24.04 0 43.53 19.49 43.53 43.53z" fill="#205077"/><path d="m146.16 425.84v61.45c-11.23-5.33-22-11.46-32.25-18.32v-43.13z" fill="#205077"/><path d="m398.53 425.84v42.84c-10.25 6.88-21.02 13.04-32.25 18.4v-61.24z" fill="#163c66"/><path d="m199.97 309.655-37.541 30.029 46.785 57.438 46.786-28.047z" fill="#ea9611"/><path d="m312.117 309.655 37.542 30.029-46.786 57.438-46.786-28.047z" fill="#cc7a05"/><path d="m344.251 152.225c-3.728-56.6-49.511-77.517-88.251-77.517s-84.523 20.917-88.251 77.517c-10.018 1.938-17.134 15.077-16.014 25.701l1.717 24.177c1.175 11.157 10.982 19.301 21.79 18.089l1.864-.202c22.139 59.446 56.857 65.644 78.894 69.125 22.037-3.48 56.756-9.678 78.894-69.125l1.864.202c10.807 1.212 20.614-6.932 21.79-18.089l1.717-24.177c1.12-10.624-5.996-23.763-16.014-25.701z" fill="#ffc397"/><path d="m360.265 177.926-1.717 24.177c-1.175 11.157-10.982 19.301-21.79 18.089l-1.864-.202c-7.566 20.293-16.592 34.388-26.078 44.277-18.291 19.081-38.299 22.552-52.817 24.847v-214.406c38.74 0 84.523 20.917 88.251 77.517 10.019 1.938 17.135 15.077 16.015 25.701z" fill="#eaa678"/><path d="m350.559 112.106c3.631-4.587 5.805-10.381 5.805-16.686 0-14.864-12.049-26.913-26.913-26.913-2.253 0-4.439.281-6.53.802-.665-15.576-13.499-28.001-29.238-28.001-5.488 0-10.62 1.513-15.009 4.141-5.187-6.858-13.411-11.292-22.673-11.292s-17.486 4.434-22.673 11.292c-4.389-2.627-9.522-4.141-15.009-4.141-15.74 0-28.573 12.425-29.238 28.001-2.091-.521-4.278-.802-6.53-.802-14.864 0-26.913 12.049-26.913 26.913 0 6.305 2.174 12.098 5.805 16.686-5.899 4.937-9.653 12.351-9.653 20.645 0 14.864 12.049 26.913 26.913 26.913s26.913-12.049 26.913-26.913c0-.309-.013-.616-.023-.923 2.23.598 4.572.923 6.991.923 10.703 0 19.945-6.248 24.282-15.295 5.049 4.604 11.764 7.412 19.136 7.412 7.371 0 14.086-2.808 19.136-7.412 4.337 9.047 13.579 15.295 24.282 15.295 2.419 0 4.762-.324 6.992-.923-.01.307-.023.613-.023.923 0 14.864 12.049 26.913 26.913 26.913s26.913-12.049 26.913-26.913c-.003-8.294-3.757-15.708-9.656-20.645z" fill="#515151"/><path d="m360.21 132.75c0 14.87-12.05 26.91-26.91 26.91s-26.91-12.04-26.91-26.91c0-.31.01-.61.02-.92-2.23.6-4.57.92-6.99.92-10.71 0-19.95-6.25-24.28-15.29-5.05 4.6-11.77 7.41-19.14 7.41v-90.71c9.26 0 17.49 4.43 22.67 11.29 4.39-2.63 9.52-4.14 15.01-4.14 15.74 0 28.58 12.42 29.24 28 2.09-.52 4.28-.8 6.53-.8 14.86 0 26.91 12.05 26.91 26.91 0 6.31-2.17 12.1-5.8 16.69 5.9 4.93 9.65 12.35 9.65 20.64z" fill="#3d3d3d"/></g></svg>