<svg id="Layer_1" enable-background="new 0 0 512 512" height="512" viewBox="0 0 512 512" width="512" xmlns="http://www.w3.org/2000/svg"><g><g><g><g><g><g id="XMLID_1270_"><g id="XMLID_1271_"><g id="XMLID_1272_"><g id="XMLID_1273_"><g id="XMLID_1274_"><g id="XMLID_1275_"><g id="XMLID_1276_"><g id="XMLID_1277_"><g id="XMLID_1278_"><g id="XMLID_1279_"><g id="XMLID_1280_"><g id="XMLID_1281_"><g id="XMLID_1282_"><g id="XMLID_1283_"><g><path d="m512 256c0 68.28-26.74 130.33-70.31 176.23-46.65 49.13-112.59-11.205-185.69-11.205s-139.04 60.335-185.69 11.205c-43.57-45.9-70.31-107.95-70.31-176.23 0-141.38 114.62-256 256-256s256 114.62 256 256z" fill="#336b90"/></g></g></g></g></g></g></g></g></g></g></g></g></g></g></g></g></g></g></g><path d="m441.69 432.23c43.57-45.9 70.31-107.95 70.31-176.23 0-6.357-.236-12.66-.691-18.901l-154.039-154.039-199.672 278.696 63.333 63.333c11.466-2.464 23.173-4.063 35.07-4.063 73.099-.001 139.039 60.334 185.689 11.204z" fill="#205077"/><path d="m387.512 205.558c8.514-31.017 10.165-78.996-30.245-122.497-39.794-42.837-101.267-39.613-101.267-39.613s-61.473-3.225-101.267 39.613c-40.41 43.501-38.759 91.48-30.245 122.497 11.099 40.432-19.685 53.197-17.151 91.864 2.47 37.694 33.787 60.817 102.206 60.817h92.914c68.419 0 99.736-23.122 102.206-60.817 2.534-38.668-28.25-51.432-17.151-91.864z" fill="#fbe280"/><path d="m404.66 297.42c-2.47 37.7-33.78 60.82-102.2 60.82h-46.46v-314.79s61.47-3.23 101.27 39.61c40.41 43.5 38.76 91.48 30.24 122.5-11.1 40.43 19.69 53.19 17.15 91.86z" fill="#efc859"/><path d="m199.97 250.232h112.06v118.84h-112.06z" fill="#dd4571"/><path d="m256 250.236h56.03v118.84h-56.03z" fill="#c12156"/><path d="m441.69 381.46v50.77c-46.65 49.13-112.59 79.77-185.69 79.77s-139.04-30.64-185.69-79.77v-50.77c0-29.92 24.25-54.17 54.17-54.17h263.04c29.92 0 54.17 24.25 54.17 54.17z" fill="#f47199"/><path d="m344.251 152.225c-3.728-56.6-49.511-77.517-88.251-77.517s-84.523 20.917-88.251 77.517c-10.018 1.938-17.134 15.077-16.014 25.701l1.717 24.177c1.175 11.157 10.982 19.301 21.79 18.089l1.864-.202c22.138 59.446 56.857 65.644 78.894 69.125 22.038-3.48 56.756-9.678 78.894-69.125l1.864.202c10.807 1.212 20.614-6.932 21.79-18.089l1.717-24.177c1.12-10.624-5.996-23.763-16.014-25.701z" fill="#ffc397"/><path d="m360.265 177.926-1.717 24.177c-1.175 11.157-10.982 19.301-21.79 18.089l-1.864-.202c-7.566 20.293-16.592 34.388-26.078 44.277-18.291 19.081-38.299 22.552-52.817 24.847v-214.406c38.74 0 84.523 20.917 88.251 77.517 10.019 1.938 17.135 15.077 16.015 25.701z" fill="#eaa678"/><path d="m344.251 101.831c-3.707-4.906-8.801-9.616-14.469-13.97-29.666-22.789-68.451-30.52-104.611-20.934-18.179 4.819-38.394 13.513-57.299 28.898-33.559 27.312-31.535 85.031-23.088 110.371s36.272 23.545 36.272 23.545c39.087-9.115 28.487-40.439 32.992-59.585s12.952-31.159 46.176-30.033c16.612.563 27.893-6.705 33.083-14.453.962-1.437 3.459-4.879 3.801-5.631 7.061 16.347 18.35 35.969 47.143 32.186 0 0 16.453-28.62 0-50.394z" fill="#fbe280"/><path d="m344.25 152.22c-28.79 3.79-40.08-15.83-47.14-32.18-.34.75-2.84 4.19-3.8 5.63-5.19 7.75-16.47 15.02-33.09 14.45-1.45-.05-2.86-.07-4.22-.07v-77.15c26.4-.03 52.45 8.57 73.78 24.96 5.67 4.36 10.76 9.07 14.47 13.97 16.45 21.78 0 50.39 0 50.39z" fill="#efc859"/><path d="m441.69 381.46v50.77c-46.65 49.13-112.59 79.77-185.69 79.77v-184.71h131.52c29.92 0 54.17 24.25 54.17 54.17z" fill="#dd4571"/><path d="m157.33 405.45v86.82c-11.17-4.66-21.95-10.11-32.25-16.25v-70.57z" fill="#dd4571"/><path d="m386.92 405.45v70.57c-10.3 6.14-21.08 11.59-32.25 16.25v-86.82z" fill="#c12156"/></g></svg>