<svg id="Layer_1" enable-background="new 0 0 512 512" height="512" viewBox="0 0 512 512" width="512" xmlns="http://www.w3.org/2000/svg"><g><g><g><g><g><g id="XMLID_1328_"><g id="XMLID_1329_"><g id="XMLID_1330_"><g id="XMLID_1331_"><g id="XMLID_1332_"><g id="XMLID_1333_"><g id="XMLID_1334_"><g id="XMLID_1335_"><g id="XMLID_1336_"><g id="XMLID_1337_"><g id="XMLID_1338_"><g id="XMLID_1339_"><g id="XMLID_1340_"><g id="XMLID_1512_"><g><path d="m512 256c0 67.32-25.99 128.58-68.48 174.28-46.75 50.27-113.46 20.89-187.52 20.89s-140.77 29.38-187.52-20.89c-42.49-45.7-68.48-106.96-68.48-174.28 0-141.38 114.62-256 256-256s256 114.62 256 256z" fill="#336b90"/></g></g></g></g></g></g></g></g></g></g></g></g></g></g></g></g></g></g></g><path d="m512 256c0-10.801-.672-21.444-1.971-31.893l-149.399-149.399-196.895 191.262 148.287 148.287 65.207 45.179c24.846-1.403 47.228-8.657 66.291-29.155 42.49-45.701 68.48-106.961 68.48-174.281z" fill="#205077"/><path d="m256 29.968c-48.455 0-137.714 32.379-137.714 135.334 0 114.876 137.714 152.983 137.714 152.983s137.714-38.107 137.714-152.983c0-102.955-89.259-135.334-137.714-135.334z" fill="#fbe280"/><path d="m393.71 165.3c0 114.88-137.71 152.99-137.71 152.99v-288.32c48.46 0 137.71 32.38 137.71 135.33z" fill="#efc859"/><path d="m307.431 255.11h-102.862v60.711l54.085 34.502 48.777-34.502z" fill="#eaa678"/><path d="m307.431 255.113v60.708l-51.431 48.376v-109.084z" fill="#d38c5b"/><path d="m344.251 152.225c-3.728-56.6-49.511-77.517-88.251-77.517s-84.523 20.917-88.251 77.517c-10.018 1.938-17.134 15.077-16.014 25.701l1.717 24.177c1.175 11.157 10.982 19.301 21.79 18.089l1.864-.202c22.138 59.446 56.857 65.644 78.894 69.125 22.038-3.48 56.756-9.678 78.894-69.125l1.864.202c10.807 1.212 20.614-6.932 21.79-18.089l1.717-24.177c1.12-10.624-5.996-23.763-16.014-25.701z" fill="#ffc397"/><path d="m360.265 177.926-1.717 24.177c-1.175 11.157-10.982 19.301-21.79 18.089l-1.864-.202c-7.566 20.293-16.592 34.388-26.078 44.277-18.291 19.081-38.299 22.552-52.817 24.847v-214.406c38.74 0 84.523 20.917 88.251 77.517 10.019 1.938 17.135 15.077 16.015 25.701z" fill="#eaa678"/><path d="m252.46 48.717s-127.828 6.591-85.594 135.545l54.059-58.846 103.598 70.954s35.333-25.712 26.483-78.838c-8.946-53.696-66.991-74.425-98.546-68.815z" fill="#fbe280"/><path d="m324.52 196.37-68.52-46.93v-101.22c32.17-3.56 86.38 17.57 95.01 69.31 8.85 53.13-26.49 78.84-26.49 78.84z" fill="#efc859"/><path d="m207.853 63.487c-18.079 10.349-35.156 27.863-38.735 57.425 0 0 3.496-5.471 10.699-12.656 41.986-41.876 110.379-41.876 152.365 0 7.204 7.185 10.699 12.656 10.699 12.656-3.579-29.562-20.656-47.076-38.735-57.425-29.737-17.023-66.554-17.024-96.293 0z" fill="#dd4571"/><path d="m342.88 120.91s-3.49-5.47-10.7-12.65c-20.99-20.94-48.58-31.41-76.18-31.41v-26.13c16.64 0 33.28 4.26 48.15 12.77 18.08 10.35 35.15 27.86 38.73 57.42z" fill="#c12156"/><path d="m443.52 403.03v27.25c-46.75 50.27-113.46 81.72-187.52 81.72s-140.77-31.45-187.52-81.72v-27.29c0-21.99 16.74-40.36 38.63-42.41l81.44-11.8c5.05-.73 9.15-4.47 10.34-9.43l5.68-23.53h102.86l4.65 23.11c1.05 5.18 5.24 9.14 10.47 9.89l82.3 11.79c21.91 2.03 38.67 20.42 38.67 42.42z" fill="#5bbc96"/><path d="m443.52 403.03v27.25c-46.75 50.27-113.46 81.72-187.52 81.72v-196.18h51.43l4.65 23.11c1.05 5.18 5.24 9.14 10.47 9.89l82.3 11.79c21.91 2.03 38.67 20.42 38.67 42.42z" fill="#399e73"/><path d="m157.33 422.94v69.33c-11.17-4.66-21.95-10.11-32.25-16.25v-53.08z" fill="#399e73"/><path d="m386.92 422.94v53.08c-10.3 6.14-21.08 11.59-32.25 16.25v-69.33z" fill="#207f54"/></g></svg>