<svg id="Layer_1" enable-background="new 0 0 512 512" height="512" viewBox="0 0 512 512" width="512" xmlns="http://www.w3.org/2000/svg"><g><g><g><g><g><g id="XMLID_2089_"><g id="XMLID_2090_"><g id="XMLID_2091_"><g id="XMLID_2092_"><g id="XMLID_2093_"><g id="XMLID_2094_"><g id="XMLID_2095_"><g id="XMLID_2096_"><g id="XMLID_2161_"><g id="XMLID_2162_"><g id="XMLID_2163_"><g id="XMLID_2164_"><g id="XMLID_2165_"><g id="XMLID_2166_"><g id="XMLID_2167_"><path d="m0 256c0-141.385 114.615-256 256-256s256 114.615 256 256c0 68.286-26.737 130.328-70.312 176.228-46.647 49.134-112.589-63.153-185.688-63.153s-139.041 112.287-185.688 63.153c-43.576-45.9-70.312-107.942-70.312-176.228z" fill="#fbe280"/></g></g></g></g></g></g></g></g></g></g></g></g></g></g></g></g></g></g></g><path d="m512 256c0-3.933-.094-7.844-.269-11.733l-165.534-165.534 3.366 7.003-34.217-34.216-154.357 164.467 75.5 75.5s199.696 146.53 205.195 140.738c43.577-45.899 70.316-107.938 70.316-176.225z" fill="#efc859"/><path d="m199.97 250.232h112.06v118.84h-112.06z" fill="#eaa678"/><path d="m256 250.236h56.03v118.84h-56.03z" fill="#d38c5b"/><path d="m199.97 327.29h112.06v116.374h-112.06z" fill="#ffc397"/><path d="m256 327.29h56.03v116.374h-56.03z" fill="#eaa678"/><path d="m441.69 381.46v50.77c-42.24 44.48-100.28 73.81-165.14 78.95-6.78.55-13.63.82-20.55.82s-13.77-.27-20.55-.82c-64.86-5.14-122.9-34.47-165.14-78.95v-50.77c0-29.92 24.25-54.17 54.17-54.17h45.15s48.01 78.16 86.37 78.16 86.37-78.16 86.37-78.16h45.15c29.92 0 54.17 24.25 54.17 54.17z" fill="#af5e22"/><path d="m441.69 381.46v50.77c-46.65 49.13-112.59 79.77-185.69 79.77v-111.62c52.191 10.552 86.373-73.09 86.373-73.09h45.147c29.92 0 54.17 24.25 54.17 54.17z" fill="#89491d"/><path d="m157.33 419.645v72.625c-11.17-4.66-21.95-10.11-32.25-16.25v-56.375z" fill="#89491d"/><path d="m386.92 419.645v56.375c-10.3 6.14-21.08 11.59-32.25 16.25v-72.625z" fill="#683310"/><g><path d="m256 417.392c-47.626 0-86.373-38.747-86.373-86.373v-3.729h30.343v3.729c0 31.084 24.946 56.373 56.03 56.373s56.03-25.289 56.03-56.373v-3.729h30.343v3.729c0 47.626-38.747 86.373-86.373 86.373z" fill="#ea9611"/></g><g><path d="m342.37 327.29v3.73c0 40.54-28.08 74.66-65.82 83.89-6.59 1.62-13.47 2.48-20.55 2.48v-30c31.08 0 56.03-25.29 56.03-56.37v-3.73z" fill="#cc7a05"/></g><path d="m344.251 152.225c-3.728-56.6-49.511-77.517-88.251-77.517s-84.523 20.917-88.251 77.517c-10.018 1.938-17.134 15.077-16.014 25.701l1.717 24.177c1.175 11.157 10.982 19.301 21.79 18.089l1.864-.202c22.138 59.446 56.857 65.644 78.894 69.125 22.038-3.48 56.756-9.678 78.894-69.125l1.864.202c10.807 1.212 20.614-6.932 21.79-18.089l1.717-24.177c1.12-10.624-5.996-23.763-16.014-25.701z" fill="#ffc397"/><path d="m360.265 177.926-1.717 24.177c-1.175 11.157-10.982 19.301-21.79 18.089l-1.864-.202c-7.566 20.293-16.592 34.388-26.078 44.277-18.291 19.081-38.299 22.552-52.817 24.847v-214.406c38.74 0 84.523 20.917 88.251 77.517 10.019 1.938 17.135 15.077 16.015 25.701z" fill="#eaa678"/><path d="m330.715 67.884c-2.191-3.584-4.915-6.92-8.393-10.33-22.916-22.463-62.111-30.889-95.815-24.2-30.809 6.115-56.819 25.287-65.933 49.137-17.711 46.345 14.108 105.46 14.108 105.46s18.446-58.237 75.542-58.237c26.868 0 46.216-4.351 59.897-9.765 6.401 28.297 30.382 68.002 30.382 68.002 37.669-84.732 9.79-111.597-9.788-120.067z" fill="#515151"/><path d="m340.5 187.95s-23.98-39.7-30.38-68c-12.68 5.01-30.23 9.12-54.12 9.69v-98.35c25.13 1.28 49.91 10.17 66.32 26.26 3.48 3.41 6.2 6.75 8.39 10.33 19.58 8.47 47.46 35.34 9.79 120.07z" fill="#3d3d3d"/></g></svg>