<svg id="Layer_1" enable-background="new 0 0 512 512" height="512" viewBox="0 0 512 512" width="512" xmlns="http://www.w3.org/2000/svg"><g><g><g><g><g><g id="XMLID_2114_"><g id="XMLID_2115_"><g id="XMLID_2116_"><g id="XMLID_2117_"><g id="XMLID_2118_"><g id="XMLID_2119_"><g id="XMLID_2120_"><g id="XMLID_2121_"><g id="XMLID_2122_"><g id="XMLID_2123_"><g id="XMLID_2124_"><g id="XMLID_2125_"><g id="XMLID_2126_"><g id="XMLID_2127_"><g><path d="m512 256c0 70.24-28.3 133.87-74.1 180.13-46.39 46.85-110.76 20.148-181.9 20.148s-135.51 26.702-181.9-20.148c-45.8-46.26-74.1-109.89-74.1-180.13 0-141.38 114.62-256 256-256s256 114.62 256 256z" fill="#5bbc96"/></g></g></g></g></g></g></g></g></g></g></g></g></g></g></g></g></g></g></g><path d="m512 256c0-7.731-.343-15.383-1.014-22.94l-153.217-153.217-200.439 172.228 179.952 179.952 18.009 31.722c31.16.947 59.179-3.951 82.61-27.615 45.799-46.26 74.099-109.89 74.099-180.13z" fill="#309167"/><path d="m256 35.064c-34.953-4.114-160.148 29.489-122.641 176.536 9.86 38.63 49.56 63.07 67.03 69.44 26.707 9.735 29.249-5.515 55.611-21.406 26.363 15.892 28.905 31.141 55.611 21.406 17.47-6.37 57.17-30.81 67.03-69.44 37.507-147.047-87.688-180.65-122.641-176.536z" fill="#515151"/><path d="m378.64 211.6c-9.86 38.63-49.56 63.07-67.03 69.44-26.71 9.74-29.25-5.51-55.61-21.41v-224.57c34.95-4.11 160.15 29.49 122.64 176.54z" fill="#3d3d3d"/><path d="m199.97 250.232h112.06v118.84h-112.06z" fill="#eaa678"/><path d="m256 250.236h56.03v118.84h-56.03z" fill="#d38c5b"/><path d="m199.97 324.824h112.06v118.84h-112.06z" fill="#ffc397"/><path d="m256 324.824h56.03v118.84h-56.03z" fill="#eaa678"/><path d="m437.9 383.13v53c-46.39 46.85-110.76 75.87-181.9 75.87s-135.51-29.02-181.9-75.87v-53c0-32.2 26.1-58.31 58.3-58.31h67.57l56.03 71.77 56.03-71.77h67.57c32.2 0 58.3 26.11 58.3 58.31z" fill="#dd4571"/><path d="m437.9 383.13v53c-46.39 46.85-110.76 75.87-181.9 75.87v-115.41l56.03-71.77h67.57c32.2 0 58.3 26.11 58.3 58.31z" fill="#c12156"/><path d="m301.393 420.773s-15.674 9.57-13.838 28.252c1.837 18.682 24.523 35.113 24.523 35.113s36.262-32.661 22.069-63.364l-15.425-5.931z" fill="#3d3d3d"/><path d="m344.251 152.225c-3.728-56.6-49.511-77.517-88.251-77.517s-84.523 20.917-88.251 77.517c-10.018 1.938-17.134 15.077-16.014 25.701l1.717 24.177c1.175 11.157 10.982 19.301 21.79 18.089l1.864-.202c22.139 59.446 56.857 65.644 78.894 69.125 22.037-3.48 56.756-9.678 78.894-69.125l1.864.202c10.807 1.212 20.614-6.932 21.79-18.089l1.717-24.177c1.12-10.624-5.996-23.763-16.014-25.701z" fill="#ffc397"/><path d="m360.265 177.926-1.717 24.177c-1.175 11.157-10.982 19.301-21.79 18.089l-1.864-.202c-7.566 20.293-16.592 34.388-26.078 44.277-18.291 19.081-38.299 22.552-52.817 24.847v-214.406c38.74 0 84.523 20.917 88.251 77.517 10.019 1.938 17.135 15.077 16.015 25.701z" fill="#eaa678"/><path d="m256 53.084c-58.888-12.845-100.821 24.285-101.748 67.011-.935 43.086 32.288 74.332 32.288 74.332-.563-35.477 10.699-50.118 32.661-58.001 16.902-6.067 31.134-22.798 36.799-30.189 5.665 7.391 19.897 24.122 36.799 30.189 21.962 7.884 33.224 22.525 32.661 58.001 0 0 33.224-31.246 32.288-74.332-.927-42.726-42.86-79.856-101.748-67.011z" fill="#515151"/><path d="m357.75 120.1c.93 43.08-32.29 74.33-32.29 74.33.56-35.48-10.7-50.12-32.66-58-16.9-6.07-31.14-22.8-36.8-30.19v-53.16c58.89-12.84 100.82 24.29 101.75 67.02z" fill="#3d3d3d"/><path d="m356.151 296.544c13.742-26.515-.275-57.068-.275-57.068l-38.587 26.816c-2.083 1.448-3.976 3.164-5.594 5.118-14.574 17.597-9.424 32.309-2.139 41.808-1.424 1.391-2.739 2.892-3.916 4.504-12.078 16.544-6.931 30.343.062 39.359-.461.45-.906.918-1.327 1.408-27.194 31.683 9.778 54.221 9.778 54.221 43.754-17.357 42.393-53.055 37.913-72.325 8.117-15.521 6.681-32.45 4.085-43.841z" fill="#3d3d3d"/><path d="m333.542 423.004h-30.854c-4.121 0-7.462-3.341-7.462-7.462v-11.591c0-4.121 3.341-7.462 7.462-7.462h30.854c4.121 0 7.462 3.341 7.462 7.462v11.591c0 4.121-3.34 7.462-7.462 7.462z" fill="#258258"/></g></svg>