<svg id="Layer_1" enable-background="new 0 0 512 512" height="512" viewBox="0 0 512 512" width="512" xmlns="http://www.w3.org/2000/svg"><g><g><g><g><g><g id="XMLID_1980_"><g id="XMLID_1981_"><g id="XMLID_1982_"><g id="XMLID_1983_"><g id="XMLID_1984_"><g id="XMLID_1985_"><g id="XMLID_1986_"><g id="XMLID_1987_"><g id="XMLID_1988_"><g id="XMLID_1989_"><g id="XMLID_1990_"><g id="XMLID_1991_"><g id="XMLID_1992_"><g id="XMLID_1993_"><g><path d="m512 256c0 65.98-24.96 126.13-65.95 171.52-7.05 7.81-14.58 12.49-22.53 14.81-44.9 13.11-103.46-49.02-167.52-49.02-75.41 0-143.2 86.09-190.05 34.21-40.99-45.39-65.95-105.54-65.95-171.52 0-141.38 114.62-256 256-256 139.32 0 252.66 111.31 255.93 249.85.05 2.05.07 4.09.07 6.15z" fill="#dd4571"/></g></g></g></g></g></g></g></g></g></g></g></g></g></g></g></g></g></g></g><path d="m512 256c0 65.98-24.96 126.13-65.95 171.52-7.05 7.81-14.58 12.49-22.53 14.81-43.95-70.41-102.08-156.76-101.63-158.09.84-2.53 14.44-209.99 14.44-209.99l175.6 175.6c.05 2.05.07 4.09.07 6.15z" fill="#c12156"/><path d="m369.609 154.586v220.884h-227.218v-220.884c0-62.745 50.865-113.609 113.609-113.609 62.745 0 113.609 50.864 113.609 113.609z" fill="#515151"/><path d="m369.61 154.59v220.88h-113.61v-334.49c31.37 0 59.77 12.72 80.33 33.27 20.56 20.56 33.28 48.97 33.28 80.34z" fill="#3d3d3d"/><path d="m199.97 250.232h112.06v118.84h-112.06z" fill="#eaa678"/><path d="m256 250.236h56.03v118.84h-56.03z" fill="#d38c5b"/><path d="m199.97 324.82h112.06v121.31h-112.06z" fill="#ffc397"/><path d="m256 324.82h56.03v121.31h-56.03z" fill="#eaa678"/><path d="m446.05 382.27v45.25c-46.86 51.88-114.65 84.48-190.05 84.48s-143.19-32.6-190.05-84.48v-45.25c0-31.73 25.72-57.45 57.45-57.45h76.57v12.46c0 30.95 25.09 56.03 56.03 56.03 15.47 0 29.48-6.27 39.62-16.41s16.41-24.14 16.41-39.62v-12.46h76.57c31.73 0 57.45 25.72 57.45 57.45z" fill="#5bbc96"/><path d="m446.05 382.27v45.25c-46.86 51.88-114.65 84.48-190.05 84.48v-118.69c15.47 0 29.48-6.27 39.62-16.41s16.41-24.14 16.41-39.62v-12.46h76.57c31.73 0 57.45 25.72 57.45 57.45z" fill="#399e73"/><path d="m157.33 419.645v72.625c-11.17-4.66-21.95-10.11-32.25-16.25v-56.375z" fill="#399e73"/><path d="m386.92 419.645v56.375c-10.3 6.14-21.08 11.59-32.25 16.25v-72.625z" fill="#207f54"/><path d="m344.251 152.225c-3.728-56.6-49.511-77.517-88.251-77.517s-84.523 20.917-88.251 77.517c-10.018 1.938-17.134 15.077-16.014 25.701l1.717 24.177c1.175 11.157 10.982 19.301 21.79 18.089l1.864-.202c22.138 59.446 56.857 65.644 78.894 69.125 22.038-3.48 56.756-9.678 78.894-69.125l1.864.202c10.807 1.212 20.614-6.932 21.79-18.089l1.717-24.177c1.12-10.624-5.996-23.763-16.014-25.701z" fill="#ffc397"/><path d="m360.265 177.926-1.717 24.177c-1.175 11.157-10.982 19.301-21.79 18.089l-1.864-.202c-7.566 20.293-16.592 34.388-26.078 44.277-18.291 19.081-38.299 22.552-52.817 24.847v-214.406c38.74 0 84.523 20.917 88.251 77.517 10.019 1.938 17.135 15.077 16.015 25.701z" fill="#eaa678"/><path d="m290.632 65.473c-68.7-21.962-117.129 10.699-125.012 45.612-7.884 34.913 6.757 76.173 6.757 76.173 70.437-10.696 103.188-56.044 115.93-80.346l-4.292 52.685s28.326-11.759 34.758-39.733l16.222 66.112 17.268-29.418c0 .001 10.073-81.85-61.631-91.085z" fill="#515151"/><path d="m352.26 156.56-17.26 29.42-16.23-66.12c-6.43 27.98-34.75 39.74-34.75 39.74l4.29-52.69c-5.9 11.25-16.09 27-32.31 41.74v-90c10.82.74 22.41 2.91 34.63 6.82 71.71 9.24 61.63 91.09 61.63 91.09z" fill="#3d3d3d"/><path d="m199.97 324.82 56.03 68.49s-62.769 35.658-80.244-7.835c-11.825-29.433 24.214-60.655 24.214-60.655z" fill="#fff"/><path d="m314.048 324.82-56.03 68.49s62.769 35.658 80.244-7.835c11.826-29.433-24.214-60.655-24.214-60.655z" fill="#cecece"/></g></svg>