<svg id="Layer_1" enable-background="new 0 0 512 512" height="512" viewBox="0 0 512 512" width="512" xmlns="http://www.w3.org/2000/svg"><g><g><g><g><g><g id="XMLID_2261_"><g id="XMLID_2262_"><g id="XMLID_2263_"><g id="XMLID_2264_"><g id="XMLID_2265_"><g id="XMLID_2266_"><g id="XMLID_2267_"><g id="XMLID_2268_"><g id="XMLID_2269_"><g id="XMLID_2270_"><g id="XMLID_2271_"><g id="XMLID_2272_"><g id="XMLID_2273_"><g id="XMLID_2274_"><g><path d="m512 256c0 65.98-24.96 126.13-65.95 171.52-45.48 50.36-110.69 18.15-183.46 16.23-2.19-.06-4.39-.09-6.59-.09-75.41 0-143.2 35.74-190.05-16.14-40.99-45.39-65.95-105.54-65.95-171.52 0-141.38 114.62-256 256-256 125.93 0 230.62 90.93 252 210.72 2.63 14.69 4 29.83 4 45.28z" fill="#dd4571"/></g></g></g></g></g></g></g></g></g></g></g></g></g></g></g></g></g></g></g><path d="m512 256c0 65.98-24.96 126.13-65.95 171.52-45.48 50.36-110.69 18.15-183.46 16.23l-139.93-139.93 248.13-230.31 137.21 137.21c2.63 14.69 4 29.83 4 45.28z" fill="#c12156"/><g><path d="m381.575 127.001c14.641-87.284-85.594-76.021-85.594-76.021l-38.796.563-29.502-10.923s-113.187 5.291-98.546 92.575-6.479 135.148-6.479 170.625h269.053c0-33.787-24.777-89.536-10.136-176.819z" fill="#fbe280"/><path d="m391.71 303.82h-135.71v-252.72l1.18.44 38.8-.56s1.8-.2 4.88-.34c19.92-.91 93.4.78 80.71 76.36-14.64 87.28 10.14 143.03 10.14 176.82z" fill="#efc859"/><path d="m199.97 250.232h112.06v118.84h-112.06z" fill="#eaa678"/><path d="m256 250.236h56.03v118.84h-56.03z" fill="#d38c5b"/></g><path d="m199.97 324.824h112.06v118.84h-112.06z" fill="#ffc397"/><path d="m256 324.824h56.03v118.84h-56.03z" fill="#eaa678"/><path d="m446.05 382.27v45.25c-46.86 51.88-114.65 84.48-190.05 84.48s-143.19-32.6-190.05-84.48v-45.25c0-31.73 25.72-57.45 57.45-57.45h76.57v12.46c0 30.95 25.09 56.03 56.03 56.03 15.47 0 29.48-6.27 39.62-16.41s16.41-24.14 16.41-39.62v-12.46h76.57c31.73 0 57.45 25.72 57.45 57.45z" fill="#ea9611"/><path d="m446.05 382.27v45.25c-46.86 51.88-114.65 84.48-190.05 84.48v-118.69c15.47 0 29.48-6.27 39.62-16.41s16.41-24.14 16.41-39.62v-12.46h76.57c31.73 0 57.45 25.72 57.45 57.45z" fill="#cc7a05"/><path d="m157.33 419.645v72.625c-11.17-4.66-21.95-10.11-32.25-16.25v-56.375z" fill="#cc7a05"/><path d="m386.92 419.645v56.375c-10.3 6.14-21.08 11.59-32.25 16.25v-72.625z" fill="#af5e22"/><path d="m365.151 324.82c0-40.402-53.121-35.705-53.121-35.705 0 79.95-56.02 95.126-56.03 95.129-.01-.003-56.03-15.179-56.03-95.129 0 0-53.121-4.696-53.121 35.705 0 36.121 33.974 90.021 109.151 92.572s0 0 0 0c75.177-2.551 109.151-56.451 109.151-92.572z" fill="#336b90"/><path d="m365.15 324.82c0 18.06-8.49 40.56-26.38 58.87s-45.18 32.43-82.77 33.7v-33.15c.01 0 56.03-15.18 56.03-95.13 0 0 53.12-4.69 53.12 35.71z" fill="#205077"/><path d="m344.251 152.225c-3.728-56.6-49.511-77.517-88.251-77.517s-84.523 20.917-88.251 77.517c-10.018 1.938-17.134 15.077-16.014 25.701l1.717 24.177c1.175 11.157 10.982 19.301 21.79 18.089l1.864-.202c22.138 59.446 56.857 65.644 78.894 69.125 22.038-3.48 56.756-9.678 78.894-69.125l1.864.202c10.807 1.212 20.614-6.932 21.79-18.089l1.717-24.177c1.12-10.624-5.996-23.763-16.014-25.701z" fill="#ffc397"/><path d="m360.265 177.926-1.717 24.177c-1.175 11.157-10.982 19.301-21.79 18.089l-1.864-.202c-7.566 20.293-16.592 34.388-26.078 44.277-18.291 19.081-38.299 22.552-52.817 24.847v-214.406c38.74 0 84.523 20.917 88.251 77.517 10.019 1.938 17.135 15.077 16.015 25.701z" fill="#eaa678"/><path d="m353.568 110.328c-1.883-8.188-5.522-15.668-10.497-22.035-12.297-15.735-41.056-37.315-41.056-37.315-27.47-8.174-54.586-11.275-74.332-10.359-63.233 2.934-84.79 45.575-82.215 82.361 2.241 32.021 32.661 76.866 32.661 76.866l5.977-33.428c70.953-4.505 102.376-65.385 102.376-65.385l.22-.708 38.171 62.152 6.424 37.37 29.084-59.895z" fill="#fbe280"/><path d="m360.38 139.95-29.08 59.9-6.43-37.37-38.17-62.15-.22.7s-9.7 18.79-30.48 36.26v-95.61c13.96 1.49 29.33 4.42 44.86 8.96.38.11.77.23 1.15.34 0 0 28.76 21.58 41.06 37.31 4.98 6.37 8.61 13.85 10.5 22.04z" fill="#efc859"/></g></svg>