<svg id="Layer_1" enable-background="new 0 0 512 512" height="512" viewBox="0 0 512 512" width="512" xmlns="http://www.w3.org/2000/svg"><g><g><g><g><g><g id="XMLID_2146_"><g id="XMLID_2147_"><g id="XMLID_2148_"><g id="XMLID_2149_"><g id="XMLID_2150_"><g id="XMLID_2151_"><g id="XMLID_2152_"><g id="XMLID_2153_"><g id="XMLID_2154_"><g id="XMLID_2155_"><g id="XMLID_2156_"><g id="XMLID_2157_"><g id="XMLID_2158_"><g id="XMLID_2159_"><g id="XMLID_2160_"><path d="m0 256c0-141.385 114.615-256 256-256s256 114.615 256 256c0 68.286-26.737 130.328-70.312 176.228-46.647 49.134-112.59-16.898-185.688-16.898s-139.041 66.033-185.688 16.898c-43.576-45.9-70.312-107.942-70.312-176.228z" fill="#336b90"/></g></g></g></g></g></g></g></g></g></g></g></g></g></g></g></g></g></g></g><path d="m511.834 246.702-157.164-157.163-75.165 194.009 111.867 166.407c18.483 1.927 35.387-2.002 50.315-17.727 43.576-45.9 70.313-107.942 70.313-176.228 0-3.113-.056-6.212-.166-9.298z" fill="#205077"/><path d="m375.543 150.771c-3.003-47.052-26.95-74.36-52.631-90.179-40.902-25.196-92.921-25.196-133.823 0-25.681 15.82-49.628 43.128-52.631 90.179-6.757 105.867-22.525 207.228-22.525 207.228h284.135c-.001 0-15.768-101.361-22.525-207.228z" fill="#af5e22"/><path d="m398.07 358h-142.07v-316.3c23.23 0 46.46 6.3 66.91 18.89 25.68 15.82 49.63 43.13 52.63 90.18 6.76 105.87 22.53 207.23 22.53 207.23z" fill="#89491d"/><path d="m204.569 255.11h102.861v109.084h-102.861z" fill="#eaa678"/><path d="m256 255.113h51.431v109.084h-51.431z" fill="#d38c5b"/><g><path d="m327.704 329.289h-143.408v-48.84c0-9.995 8.103-18.098 18.098-18.098h107.213c9.995 0 18.098 8.103 18.098 18.098v48.84z" fill="#5bbc96"/><path d="m327.7 280.445v48.846h-71.7v-66.936h53.61c9.99 0 18.09 8.1 18.09 18.09z" fill="#399e73"/></g><path d="m441.69 381.46v50.77c-46.65 49.13-112.59 79.77-185.69 79.77s-139.04-30.64-185.69-79.77v-50.77c0-29.92 24.25-54.17 54.17-54.17h131.52l30.583 9.47 21.608-9.47h79.329c29.92 0 54.17 24.25 54.17 54.17z" fill="#fff"/><path d="m441.69 381.46v50.77c-46.65 49.13-112.59 79.77-185.69 79.77v-176.366l52.191-8.344h79.329c29.92 0 54.17 24.25 54.17 54.17z" fill="#dbdbdb"/><path d="m157.33 405.45v86.82c-11.17-4.66-21.95-10.11-32.25-16.25v-70.57z" fill="#dbdbdb"/><path d="m386.92 405.45v70.57c-10.3 6.14-21.08 11.59-32.25 16.25v-86.82z" fill="#bfbfbf"/><path d="m256 327.29h52.191v137.454h-52.191z" fill="#207f54"/><path d="m344.251 152.225c-3.728-56.6-49.511-77.517-88.251-77.517s-84.523 20.917-88.251 77.517c-10.018 1.938-17.134 15.077-16.014 25.701l1.717 24.177c1.175 11.157 10.982 19.301 21.79 18.089l1.864-.202c22.139 59.446 56.857 65.644 78.894 69.125 22.037-3.48 56.756-9.678 78.894-69.125l1.864.202c10.807 1.212 20.614-6.932 21.79-18.089l1.717-24.177c1.12-10.624-5.996-23.763-16.014-25.701z" fill="#ffc397"/><path d="m360.265 177.926-1.717 24.177c-1.175 11.157-10.982 19.301-21.79 18.089l-1.864-.202c-7.566 20.293-16.592 34.388-26.078 44.277-18.291 19.081-38.299 22.552-52.817 24.847v-214.406c38.74 0 84.523 20.917 88.251 77.517 10.019 1.938 17.135 15.077 16.015 25.701z" fill="#eaa678"/><path d="m348.652 111.79c-20.549-52.807-92.652-52.807-92.652-52.807s-72.103 0-92.652 52.807c-3.635 9.342-4.57 19.605-2.983 29.556 1.87 11.722 5.554 30.281 11.881 45.634l20.197-43.371 3.366 18.512h120.383l3.366-18.512 20.197 43.371c6.327-15.353 10.011-33.912 11.88-45.634 1.587-9.951.653-20.214-2.983-29.556z" fill="#af5e22"/><path d="m351.64 141.35c-1.87 11.72-5.56 30.28-11.89 45.63l-20.19-43.37-3.37 18.51h-60.19v-103.14s72.1 0 92.65 52.81c3.64 9.34 4.57 19.61 2.99 29.56z" fill="#89491d"/></g></svg>