<svg id="Layer_1" enable-background="new 0 0 512 512" height="512" viewBox="0 0 512 512" width="512" xmlns="http://www.w3.org/2000/svg"><g><g><g><g><g><g id="XMLID_2183_"><g id="XMLID_2184_"><g id="XMLID_2185_"><g id="XMLID_2186_"><g id="XMLID_2187_"><g id="XMLID_2188_"><g id="XMLID_2189_"><g id="XMLID_2190_"><g id="XMLID_2275_"><g id="XMLID_2276_"><g id="XMLID_2277_"><g id="XMLID_2278_"><g id="XMLID_2279_"><g id="XMLID_2280_"><g id="XMLID_2281_"><path d="m0 256c0-141.385 114.615-256 256-256s256 114.615 256 256c0 68.286-26.737 130.328-70.312 176.228-46.647 49.134-112.589 11.436-185.688 11.436s-139.041 37.699-185.688-11.436c-43.576-45.9-70.312-107.942-70.312-176.228z" fill="#5de9f4"/></g></g></g></g></g></g></g></g></g></g></g></g></g></g></g></g></g></g></g><path d="m133.374 244.909 209.379 209.379c37.939 5.716 71.721 6.606 98.934-22.06 43.576-45.9 70.313-107.942 70.313-176.228 0-2.111-.026-4.216-.077-6.314l-160.898-160.899z" fill="#4bc5ef"/><path d="m199.97 256h112.06v75.598h-112.06z" fill="#eaa678"/><path d="m256 256.002h56.03v75.599h-56.03z" fill="#d38c5b"/><path d="m199.97 327.29h112.06v116.374h-112.06z" fill="#ffc397"/><path d="m256 327.29h56.03v116.374h-56.03z" fill="#eaa678"/><path d="m441.69 381.46v50.77c-42.24 44.48-100.28 73.81-165.14 78.95-6.78.55-13.63.82-20.55.82s-13.77-.27-20.55-.82c-64.86-5.14-122.9-34.47-165.14-78.95v-50.77c0-29.92 24.25-54.17 54.17-54.17h45.15s48.01 78.16 86.37 78.16 86.37-78.16 86.37-78.16h45.15c29.92 0 54.17 24.25 54.17 54.17z" fill="#dd4571"/><path d="m441.69 381.46v50.77c-46.65 49.13-112.59 79.77-185.69 79.77v-111.62c52.191 10.552 86.373-73.09 86.373-73.09h45.147c29.92 0 54.17 24.25 54.17 54.17z" fill="#c12156"/><path d="m157.33 419.645v72.625c-11.17-4.66-21.95-10.11-32.25-16.25v-56.375z" fill="#c12156"/><path d="m386.92 419.645v56.375c-10.3 6.14-21.08 11.59-32.25 16.25v-72.625z" fill="#990541"/><g><g><path d="m256 417.392c-47.627 0-86.373-38.747-86.373-86.373v-3.729h30.343v3.729c0 31.084 24.946 56.373 56.03 56.373s56.03-25.289 56.03-56.373v-3.729h30.343v3.729c0 47.626-38.747 86.373-86.373 86.373z" fill="#fbe280"/></g></g><g><path d="m342.37 327.29v3.73c0 40.54-28.08 74.66-65.82 83.89-6.59 1.62-13.47 2.48-20.55 2.48v-30c31.08 0 56.03-25.29 56.03-56.37v-3.73z" fill="#efc859"/></g><path d="m344.251 152.225c-3.728-56.6-49.511-77.517-88.251-77.517s-84.523 20.917-88.251 77.517c-10.018 1.938-17.134 15.077-16.014 25.701l1.717 24.177c1.175 11.157 10.982 19.301 21.79 18.089l1.864-.202c22.139 59.446 56.857 65.644 78.894 69.125 22.037-3.48 56.756-9.678 78.894-69.125l1.864.202c10.807 1.212 20.614-6.932 21.79-18.089l1.717-24.177c1.12-10.624-5.996-23.763-16.014-25.701z" fill="#ffc397"/><path d="m360.265 177.926-1.717 24.177c-1.175 11.157-10.982 19.301-21.79 18.089l-1.864-.202c-7.566 20.293-16.592 34.388-26.078 44.277-18.291 19.081-38.299 22.552-52.817 24.847v-214.406c38.74 0 84.523 20.917 88.251 77.517 10.019 1.938 17.135 15.077 16.015 25.701z" fill="#eaa678"/><path d="m258.608 43.659h-7.497c-65.024 0-117.737 52.713-117.737 117.737v83.513h55.382c-25.706-133.244 67.244-142.967 67.244-142.967s2.669 35.902 36.362 51.15c40.92 18.519 30.878 91.817 30.878 91.817h52.557v-84.061c0-64.722-52.467-117.189-117.189-117.189z" fill="#515151"/><path d="m375.8 160.85v84.06h-52.56s10.04-73.3-30.88-91.82c-33.69-15.25-36.36-51.15-36.36-51.15v-58.28h2.61c64.72 0 117.19 52.47 117.19 117.19z" fill="#3d3d3d"/></g></svg>