<svg id="Layer_1" enable-background="new 0 0 512 512" height="512" viewBox="0 0 512 512" width="512" xmlns="http://www.w3.org/2000/svg"><g><g><g><g><g><g id="XMLID_2211_"><g id="XMLID_2212_"><g id="XMLID_2213_"><g id="XMLID_2214_"><g id="XMLID_2215_"><g id="XMLID_2216_"><g id="XMLID_2217_"><g id="XMLID_2218_"><g id="XMLID_2219_"><g id="XMLID_2220_"><g id="XMLID_2221_"><g id="XMLID_2222_"><g id="XMLID_2223_"><g id="XMLID_2224_"><g id="XMLID_2225_"><path d="m0 256c0-141.385 114.615-256 256-256s256 114.615 256 256c0 59.61-20.374 114.462-54.539 157.971-46.867 59.687-119.686 42.489-201.461 42.489s-154.594 17.198-201.462-42.489c-34.164-43.509-54.538-98.361-54.538-157.971z" fill="#fbe280"/></g></g></g></g></g></g></g></g></g></g></g></g></g></g></g></g></g></g></g><path d="m457.461 413.971c34.165-43.509 54.539-98.361 54.539-157.971 0-3.507-.071-6.998-.21-10.471l-142.18-142.18c-83.143-35.487-207.354 113.581-207.354 113.581l104.301 104.301 44.976 136.841c58.793 2.228 109.99 1.667 145.928-44.101z" fill="#efc859"/><g><path d="m199.97 250.232h112.06v118.84h-112.06z" fill="#eaa678"/><path d="m256 250.236h56.03v118.84h-56.03z" fill="#d38c5b"/><path d="m345.92 495.75c-10.96 4.12-22.28 7.5-33.89 10.09-18.03 4.04-36.78 6.16-56.03 6.16s-38-2.12-56.03-6.16c-11.61-2.59-22.93-5.97-33.89-10.09l33.89-170.926 56.03 36.316 56.03-36.316z" fill="#c12156"/><path d="m345.92 495.75c-10.96 4.12-22.28 7.5-33.89 10.09-18.03 4.04-36.78 6.16-56.03 6.16v-150.86l56.03-36.316z" fill="#990541"/><path d="m199.97 324.82v181.02c-58.58-13.07-109.59-46.23-145.43-91.87v-32.737c0-31.156 25.257-56.413 56.413-56.413z" fill="#5bbc96"/><path d="m457.46 381.233v32.737c-35.84 45.64-86.85 78.8-145.43 91.87v-181.02h55.333 33.684c31.156 0 56.413 25.257 56.413 56.413z" fill="#399e73"/><path d="m146.16 425.84v61.45c-11.23-5.33-22-11.46-32.25-18.32v-43.13z" fill="#399e73"/><path d="m398.53 425.84v42.84c-10.25 6.88-21.02 13.04-32.25 18.4v-61.24z" fill="#207f54"/><path d="m344.251 152.225c-3.728-56.6-49.511-77.517-88.251-77.517s-84.523 20.917-88.251 77.517c-10.018 1.938-17.134 15.077-16.014 25.701l1.717 24.177c1.175 11.157 10.982 19.301 21.79 18.089l1.864-.202c22.138 59.446 56.857 65.644 78.894 69.125 22.038-3.48 56.756-9.678 78.894-69.125l1.864.202c10.807 1.212 20.614-6.932 21.79-18.089l1.717-24.177c1.12-10.624-5.996-23.763-16.014-25.701z" fill="#ffc397"/><path d="m360.265 177.926-1.717 24.177c-1.175 11.157-10.982 19.301-21.79 18.089l-1.864-.202c-7.566 20.293-16.592 34.388-26.078 44.277-18.291 19.081-38.299 22.552-52.817 24.847v-214.406c38.74 0 84.523 20.917 88.251 77.517 10.019 1.938 17.135 15.077 16.015 25.701z" fill="#eaa678"/><path d="m369.609 103.349s-40.685-56.312-113.609-56.312c-20.598 0-37.399 6.29-50.906 15.316-.278-.024-33.899-2.83-47.358 20.723-13.515 23.651-1.142 70.534 12.373 91.933l15.767 13.803 7.251-47.71c46.541 13.986 90.44 4.723 122.814-8.124l8.486 55.834 15.767-13.803c9.21-14.583 17.89-41.001 18.207-63.837 7.218-4.652 11.208-7.823 11.208-7.823z" fill="#515151"/><path d="m315.941 132.979 8.486 55.834 15.767-13.803c9.21-14.583 17.89-41.001 18.207-63.837 7.217-4.653 11.208-7.824 11.208-7.824s-40.684-56.311-113.609-56.311v100.426c22.341-1.861 42.763-7.668 59.941-14.485z" fill="#3d3d3d"/></g></g></svg>