<svg id="Layer_1" enable-background="new 0 0 512 512" height="512" viewBox="0 0 512 512" width="512" xmlns="http://www.w3.org/2000/svg"><g><g><g><g><g><g id="XMLID_2241_"><g id="XMLID_2242_"><g id="XMLID_2243_"><g id="XMLID_2244_"><g id="XMLID_2245_"><g id="XMLID_2246_"><g id="XMLID_2247_"><g id="XMLID_2248_"><g id="XMLID_2249_"><g id="XMLID_2250_"><g id="XMLID_2251_"><g id="XMLID_2252_"><g id="XMLID_2253_"><g id="XMLID_2254_"><g id="XMLID_2255_"><path d="m0 256c0-141.385 114.615-256 256-256s256 114.615 256 256c0 64.771-24.055 123.924-63.717 169.012-46.916 53.333-115.669 15.646-192.283 15.646s-145.367 37.687-192.283-15.646c-39.662-45.088-63.717-104.241-63.717-169.012z" fill="#5bbc96"/></g></g></g></g></g></g></g></g></g></g></g></g></g></g></g></g></g></g></g><path d="m448.283 425.012c39.663-45.088 63.717-104.241 63.717-169.012 0-9.464-.514-18.808-1.515-28.006l-153.286-153.286-101.199 294.367 74.482 79.534c46.131 7.129 86.749 11.702 117.801-23.597z" fill="#309167"/><path d="m333.159 53.795c-34.168-17.457-77.159-5.244-77.159-5.244s-42.991-12.213-77.159 5.244-45.171 59.128-45.171 117.129v106.08c0 33.47 27.133 60.603 60.604 60.603h123.453c33.47 0 60.604-27.133 60.604-60.603v-106.08c-.001-58.002-11.004-99.672-45.172-117.129z" fill="#af5e22"/><path d="m378.33 170.92v106.08c0 33.47-27.13 60.61-60.6 60.61h-61.73v-289.06s42.99-12.21 77.16 5.24c34.17 17.46 45.17 59.13 45.17 117.13z" fill="#89491d"/><path d="m199.97 250.232h112.06v118.84h-112.06z" fill="#eaa678"/><path d="m256 250.236h56.03v118.84h-56.03z" fill="#d38c5b"/><path d="m345.92 495.75c-10.96 4.12-22.28 7.5-33.89 10.09-18.03 4.04-36.78 6.16-56.03 6.16s-38-2.12-56.03-6.16c-11.61-2.59-22.93-5.97-33.89-10.09v-165.7h89.92l35.892 12.02 20.138-12.02h33.89z" fill="#fff"/><path d="m345.92 495.75c-10.96 4.12-22.28 7.5-33.89 10.09-18.03 4.04-36.78 6.16-56.03 6.16v-181.95h93.907z" fill="#cecece"/><g><g><path d="m198.09 505.42c-52.98-12.25-99.65-40.94-134.37-80.41v-47.124c0-26.419 21.417-47.836 47.836-47.836h52.014z" fill="#336b90"/><path d="m198.72 505.56c-.21-.04-.42-.09-.63-.14-13.4-3.1-26.4-7.25-38.9-12.36l10.01-49.72-41.67-29.28 36.04-84.01h6.76z" fill="#fbe280"/></g><g><path d="m448.28 377.886v47.124c-34.72 39.47-81.39 68.16-134.37 80.41l34.52-175.37h52.014c26.419 0 47.836 21.417 47.836 47.836z" fill="#205077"/><path d="m342.8 443.34 10.01 49.72c-12.5 5.11-25.5 9.26-38.9 12.36-.21.05-.42.1-.63.14l28.39-175.51h6.76l36.04 84.01z" fill="#efc859"/></g></g><path d="m344.251 152.225c-3.728-56.6-49.511-77.517-88.251-77.517s-84.523 20.917-88.251 77.517c-10.018 1.938-17.134 15.077-16.014 25.701l1.717 24.177c1.175 11.157 10.982 19.301 21.79 18.089l1.864-.202c22.138 59.446 56.857 65.644 78.894 69.125 22.038-3.48 56.756-9.678 78.894-69.125l1.864.202c10.807 1.212 20.614-6.932 21.79-18.089l1.717-24.177c1.12-10.624-5.996-23.763-16.014-25.701z" fill="#ffc397"/><path d="m360.265 177.926-1.717 24.177c-1.175 11.157-10.982 19.301-21.79 18.089l-1.864-.202c-7.566 20.293-16.592 34.388-26.078 44.277-18.291 19.081-38.299 22.552-52.817 24.847v-214.406c38.74 0 84.523 20.917 88.251 77.517 10.019 1.938 17.135 15.077 16.015 25.701z" fill="#eaa678"/><path d="m338.067 101.942c-11.486-23.261-36.588-45.332-82.067-35.195-45.48-10.136-70.581 11.935-82.067 35.195-11.262 22.806-28.558 48.374-26.185 85.312 3.871 60.254 26.467 65.134 26.467 65.134 61.943-22.9 7.699-92.585 40.545-108.494 36.039-17.457 41.24-42.797 41.24-42.797s5.201 25.34 41.241 42.797c32.845 15.91-21.399 85.594 40.545 108.494 0 0 22.595-4.88 26.467-65.134 2.372-36.938-14.923-62.506-26.186-85.312z" fill="#af5e22"/><path d="m364.25 187.25c-3.87 60.26-26.46 65.14-26.46 65.14-61.95-22.9-7.7-92.59-40.55-108.5-36.04-17.45-41.24-42.79-41.24-42.79v-34.35c45.48-10.14 70.58 11.93 82.07 35.19 11.26 22.81 28.56 48.38 26.18 85.31z" fill="#89491d"/></g></svg>