<svg id="Layer_1" enable-background="new 0 0 512 512" height="512" viewBox="0 0 512 512" width="512" xmlns="http://www.w3.org/2000/svg"><g><g><g><g><g><g id="XMLID_818_"><g id="XMLID_857_"><g id="XMLID_933_"><g id="XMLID_936_"><g id="XMLID_937_"><g id="XMLID_938_"><g id="XMLID_939_"><g id="XMLID_940_"><g id="XMLID_941_"><g id="XMLID_957_"><g id="XMLID_958_"><g id="XMLID_959_"><g id="XMLID_960_"><g id="XMLID_962_"><g><path d="m512 256c0 68.13-26.62 130.04-70.01 175.91-46.67 49.32-112.74 14.886-185.99 14.886s-139.32 34.434-185.99-14.886c-43.39-45.87-70.01-107.78-70.01-175.91 0-141.38 114.62-256 256-256s256 114.62 256 256z" fill="#5de9f4"/></g></g></g></g></g></g></g></g></g></g></g></g></g></g></g></g></g></g></g><path d="m510.636 229.438-154.73-154.73-43.876 163.171 123.405 200.309c2.225-1.924 4.411-4.012 6.555-6.278 43.39-45.87 70.01-107.78 70.01-175.91 0-8.969-.464-17.831-1.364-26.562z" fill="#4bc5ef"/><g><path d="m393.084 264c21.727-21.727 34.61-66.772-7.755-91.892-35.858-21.262 5.248-73.885-43.419-111.667-37.539-29.142-70.44-22.353-85.91-17.835-15.47-4.518-46.959-11.307-84.498 17.836-48.668 37.782-8.973 90.405-44.831 111.667-42.365 25.12-29.481 70.166-7.755 91.892 38.385 38.386-42.782 41.487-20.422 105.075h315.011c22.361-63.589-58.807-66.69-20.421-105.076z" fill="#af5e22"/><path d="m413.51 369.08h-157.51v-326.47c15.47-4.52 48.37-11.31 85.91 17.83 48.67 37.78 7.56 90.41 43.42 111.67 42.36 25.12 29.48 70.16 7.75 91.89-29.63 29.64 11.99 38.24 22.22 69.89 3.02 9.34 3.31 20.69-1.79 35.19z" fill="#89491d"/><path d="m199.97 250.232h112.06v118.84h-112.06z" fill="#eaa678"/><path d="m256 250.236h56.03v118.84h-56.03z" fill="#d38c5b"/><path d="m344.251 152.225c-3.728-56.6-49.511-77.517-88.251-77.517s-84.523 20.917-88.251 77.517c-10.018 1.938-17.134 15.077-16.014 25.701l1.717 24.177c1.175 11.157 10.982 19.301 21.79 18.089l1.864-.202c22.138 59.446 56.857 65.644 78.894 69.125 22.038-3.48 56.756-9.678 78.894-69.125l1.864.202c10.807 1.212 20.614-6.932 21.79-18.089l1.717-24.177c1.12-10.624-5.996-23.763-16.014-25.701z" fill="#ffc397"/><path d="m360.265 177.926-1.717 24.177c-1.175 11.157-10.982 19.301-21.79 18.089l-1.864-.202c-7.566 20.293-16.592 34.388-26.078 44.277-18.291 19.081-38.299 22.552-52.817 24.847v-214.406c38.74 0 84.523 20.917 88.251 77.517 10.019 1.938 17.135 15.077 16.015 25.701z" fill="#eaa678"/><path d="m418.045 432.155h-324.09v-36.821c0-37.578 30.463-68.042 68.042-68.042h188.007c37.578 0 68.042 30.463 68.042 68.042v36.821z" fill="#ffc397"/><path d="m418.05 395.33v36.82h-162.05v-104.86h94c28.27 0 52.52 17.25 62.79 41.79 3.39 8.08 5.26 16.94 5.26 26.25z" fill="#eaa678"/><path d="m344.759 101.416c-23.651-43.172-88.759-38.761-88.759-38.761s-65.108-4.411-88.759 38.761c-13.068 23.854-8.259 54.81 9.01 76.209l27.78-44.674 17.269 22.9 17.269-22.9 17.43 22.9 17.43-22.9 17.269 22.9 17.269-22.9 27.781 44.674c17.27-21.399 22.078-52.355 9.011-76.209z" fill="#af5e22"/><path d="m441.99 379.35v52.56c-46.67 49.32-112.74 80.09-185.99 80.09s-139.32-30.77-185.99-80.09v-52.56c0-28.75 23.31-52.06 52.06-52.06h39.93l44.74 50.98c26.1 29.75 72.42 29.75 98.52 0l44.74-50.98h39.93c28.75 0 52.06 23.31 52.06 52.06z" fill="#dd4571"/><path d="m441.99 379.35v52.56c-46.67 49.32-112.74 80.09-185.99 80.09v-111.42c18.1 0 36.21-7.44 49.26-22.31l8.07-9.19 36.67-41.79h39.93c9.21 0 17.87 2.39 25.37 6.6 15.93 8.9 26.69 25.92 26.69 45.46z" fill="#c12156"/><path d="m157.33 416.283v75.987c-11.17-4.66-21.95-10.11-32.25-16.25v-59.737z" fill="#c12156"/><path d="m386.92 416.283v59.737c-10.3 6.14-21.08 11.59-32.25 16.25v-75.987z" fill="#990541"/><path d="m335.75 177.62-27.78-44.67-17.27 22.9-17.27-22.9-17.43 22.9v-93.2s65.11-4.41 88.76 38.77c13.07 23.85 8.26 54.81-9.01 76.2z" fill="#89491d"/></g></g></svg>