<svg id="Layer_1" enable-background="new 0 0 512 512" height="512" viewBox="0 0 512 512" width="512" xmlns="http://www.w3.org/2000/svg"><g><g><g><g><g><g id="XMLID_769_"><g id="XMLID_770_"><g id="XMLID_771_"><g id="XMLID_772_"><g id="XMLID_773_"><g id="XMLID_774_"><g id="XMLID_775_"><g id="XMLID_776_"><g id="XMLID_777_"><g id="XMLID_778_"><g id="XMLID_779_"><g id="XMLID_780_"><g id="XMLID_781_"><g id="XMLID_782_"><g><path d="m77.51 439.51c-47.81-46.51-77.51-111.54-77.51-183.51 0-141.38 114.62-256 256-256s256 114.62 256 256c0 73.03-30.58 138.92-79.64 185.55z" fill="#336b90"/></g></g></g></g></g></g></g></g></g></g></g></g></g></g></g></g></g></g></g><path d="m510.881 231.962-150.5-150.501-87.486 201.577-92.055-53.794-67.093 35.447 65.739 65.739c-5.764 3.247-14.66 8.447-21.009 12.179l-25.01-25.01 13.107 56.387 122.615 66.626 163.171.938c49.06-46.63 79.64-112.52 79.64-185.55 0-8.107-.381-16.124-1.119-24.038z" fill="#205077"/><path d="m256 31.214c-78.85 0-146.381 48.271-142.254 233.477h284.507c4.127-185.206-63.403-233.477-142.253-233.477z" fill="#ea9611"/><path d="m398.25 264.69h-142.25v-233.48c78.85 0 146.38 48.28 142.25 233.48z" fill="#cc7a05"/><path d="m199.97 250.232h112.06v118.84h-112.06z" fill="#eaa678"/><path d="m256 250.236h56.03v118.84h-56.03z" fill="#d38c5b"/><path d="m344.251 152.225c-3.728-56.6-49.511-77.517-88.251-77.517s-84.523 20.917-88.251 77.517c-10.018 1.938-17.134 15.077-16.014 25.701l1.717 24.177c1.175 11.157 10.982 19.301 21.79 18.089l1.864-.202c22.139 59.446 56.857 65.644 78.894 69.125 22.037-3.48 56.756-9.678 78.894-69.125l1.864.202c10.807 1.212 20.614-6.932 21.79-18.089l1.717-24.177c1.12-10.624-5.996-23.763-16.014-25.701z" fill="#ffc397"/><path d="m360.265 177.926-1.717 24.177c-1.175 11.157-10.982 19.301-21.79 18.089l-1.864-.202c-7.566 20.293-16.592 34.388-26.078 44.277-18.291 19.081-38.299 22.552-52.817 24.847v-214.406c38.74 0 84.523 20.917 88.251 77.517 10.019 1.938 17.135 15.077 16.015 25.701z" fill="#eaa678"/><path d="m256.017 52.049c-56.981 0-103.532 31.497-92.365 113.104l5.44 27.488h15.462l11.418-52.309 9.455 18.822 8.047 16.02s45.814-10.308 77.311-47.818l6.872 28.634s14.603-4.581 19.757-14.031l7.445 50.682h15.462s8.806-28.719 7.415-48.964c-1.926-28.074-12.853-91.628-91.719-91.628z" fill="#ea9611"/><path d="m340.32 192.64h-15.46l-7.44-50.68c-5.16 9.45-19.76 14.03-19.76 14.03l-6.87-28.63c-10.73 12.78-23.12 22.4-34.79 29.53v-104.84h.02c78.86 0 89.79 63.55 91.72 91.63 1.39 20.24-7.42 48.96-7.42 48.96z" fill="#cc7a05"/><path d="m386.38 324.82v151.53c-38.19 22.65-82.77 35.65-130.38 35.65s-92.19-13-130.38-35.65v-151.53h74.35l56.03 44.26 56.03-44.26z" fill="#5bbc96"/><path d="m386.38 324.82v151.53c-5.86 3.47-11.86 6.72-18.01 9.73-33.92 16.6-72.06 25.92-112.37 25.92v-142.92l56.03-44.26z" fill="#399e73"/><g><path d="m233.764 387.105-9.348 81.173c-.72 6.255 4.17 11.742 10.467 11.742 5.376 0 9.889-4.047 10.474-9.391l9.138-83.524z" fill="#efefef"/><path d="m278.236 387.105 9.348 81.173c.72 6.255-4.171 11.742-10.467 11.742-5.376 0-9.889-4.047-10.474-9.391l-9.138-83.524z" fill="#dbdbdb"/></g><path d="m141.5 336.92v148.1c-5.4-2.7-10.7-5.6-15.88-8.67-17.49-10.37-33.63-22.76-48.11-36.84v-102.59c0-15.06 12.21-27.26 27.27-27.26h9.45c15.06 0 27.27 12.2 27.27 27.26z" fill="#399e73"/><path d="m432.36 336.92v104.63c-13.93 13.25-29.35 24.94-45.98 34.8-5.86 3.47-11.86 6.72-18.01 9.73v-149.16c0-15.06 12.21-27.26 27.27-27.26h9.45c15.06 0 27.27 12.2 27.27 27.26z" fill="#258258"/><path d="m312.03 305.735-56.03 51.868-56.03-51.868-24.51 19.089 80.54 75.67 80.54-75.67z" fill="#efefef"/><path d="m256 350.535-45.786-12.127c-7.6-2.013-15.045 3.717-15.045 11.579v38.177c0 7.866 7.452 13.596 15.054 11.576l45.777-12.165 45.776 12.165c7.602 2.02 15.054-3.71 15.054-11.576v-38.177c0-7.862-7.445-13.591-15.045-11.579z" fill="#dbdbdb"/><path d="m258.761 399.182h-5.521c-9.322 0-16.949-7.627-16.949-16.949v-26.357c0-9.322 7.627-16.949 16.949-16.949h5.521c9.322 0 16.948 7.627 16.948 16.949v26.357c0 9.322-7.627 16.949-16.948 16.949z" fill="#dd4571"/><path d="m256 399.18v1.31l-1.39-1.31z" fill="#edcb5f"/><path d="m315.53 344.56c.83 1.62 1.3 3.46 1.3 5.43v38.17c0 7.87-7.45 13.6-15.05 11.58l-29.19-7.76c-3.07 4.35-8.13 7.2-13.83 7.2h-1.37l-1.39 1.31-1.39-1.31h1.39v-30.1l19.55-15.45 15.76-12.44 20.72-16.37h24.51z" fill="#5bbc96"/><path d="m336.54 324.82-21.01 19.74-39.82 37.41-8.99 8.45-9.33 8.76-1.39 1.31-1.39-1.31h1.39v-41.58l10.68-9.89 4.08-3.77 41.27-38.21z" fill="#dbdbdb"/><path d="m316.83 349.99v38.17c0 7.87-7.45 13.6-15.05 11.58l-29.19-7.76-5.87-1.56-10.72-2.85v-37.03l10.68-2.83 5.92-1.57 18.71-4.95 10.48-2.78c5.69-1.51 11.29 1.33 13.74 6.15.83 1.62 1.3 3.46 1.3 5.43z" fill="#bfbfbf"/><path d="m275.71 355.88v26.35c0 3.62-1.15 6.99-3.12 9.75-3.07 4.35-8.13 7.2-13.83 7.2h-2.76v-60.25h2.76c4.67 0 8.92 1.92 12 5.01.67.68 1.29 1.41 1.84 2.2 1.55 2.17 2.59 4.73 2.95 7.49.11.74.16 1.49.16 2.25z" fill="#c12156"/></g></svg>