<svg id="Layer_1" enable-background="new 0 0 512 512" height="512" viewBox="0 0 512 512" width="512" xmlns="http://www.w3.org/2000/svg"><g><g><g><g><g><g id="XMLID_666_"><g id="XMLID_667_"><g id="XMLID_668_"><g id="XMLID_669_"><g id="XMLID_670_"><g id="XMLID_671_"><g id="XMLID_672_"><g id="XMLID_673_"><g id="XMLID_674_"><g id="XMLID_675_"><g id="XMLID_676_"><g id="XMLID_677_"><g id="XMLID_678_"><g id="XMLID_679_"><g><path d="m512 256c0 63.99-23.49 122.5-62.3 167.38-46.94 54.28-116.31-39.136-193.7-39.136-77.79 0-147.47 93.056-194.42 38.296-38.39-44.77-61.58-102.95-61.58-166.54 0-141.38 114.62-256 256-256s256 114.62 256 256z" fill="#5bbc96"/></g></g></g></g></g></g></g></g></g></g></g></g></g></g></g></g></g></g></g><path d="m512 256c0-3.063-.057-6.113-.164-9.15l-157.166-157.166-21.59 219.976 104.875 124.066c4.055-2.58 7.973-5.983 11.745-10.346 38.81-44.88 62.3-103.39 62.3-167.38z" fill="#309167"/><path d="m376.212 132.857c-25.34-91.225-120.574-87.002-120.574-87.002s-95.234-4.223-120.574 87.002-44.6 212.015 16.555 212.015h104.019s42.864 0 104.019 0c61.155-.001 41.896-120.79 16.555-212.015z" fill="#515151"/><path d="m391.48 324.82c-6.4 12.6-16.63 20.05-31.82 20.05h-103.66v-299.02c6.37-.17 95.78-.95 120.21 87.01 19.05 68.56 34.66 153.83 15.27 191.96z" fill="#3d3d3d"/><path d="m199.97 256h112.06v118.84h-112.06z" fill="#eaa678"/><path d="m256 256.003h56.03v118.84h-56.03z" fill="#d38c5b"/><path d="m199.97 324.824h112.06v118.84h-112.06z" fill="#ffc397"/><path d="m256 324.824h56.03v118.84h-56.03z" fill="#eaa678"/><path d="m344.251 152.225c-3.728-56.6-49.511-77.517-88.251-77.517s-84.523 20.917-88.251 77.517c-10.018 1.938-17.134 15.077-16.014 25.701l1.717 24.177c1.175 11.157 10.982 19.301 21.79 18.089l1.864-.202c22.139 59.446 56.857 65.644 78.894 69.125 22.037-3.48 56.756-9.678 78.894-69.125l1.864.202c10.807 1.212 20.614-6.932 21.79-18.089l1.717-24.177c1.12-10.624-5.996-23.763-16.014-25.701z" fill="#ffc397"/><path d="m360.265 177.926-1.717 24.177c-1.175 11.157-10.982 19.301-21.79 18.089l-1.864-.202c-7.566 20.293-16.592 34.388-26.078 44.277-18.291 19.081-38.299 22.552-52.817 24.847v-214.406c38.74 0 84.523 20.917 88.251 77.517 10.019 1.938 17.135 15.077 16.015 25.701z" fill="#eaa678"/><path d="m323.44 79.642c-36.04-23.651-67.44-20.272-67.44-20.272s-31.4-3.379-67.44 20.272-39.231 98.284-39.231 98.284c34.35 0 45.698-12.062 59.503-41.972 16.894-36.603 47.168-22.525 47.168-22.525s30.274-14.078 47.168 22.525c13.805 29.91 25.153 41.972 59.503 41.972 0 0-3.191-74.633-39.231-98.284z" fill="#515151"/><g><path d="m312.03 324.82v10.385c0 30.945-3.928 70.205-34.873 70.205l-21.157-14.175c-30.945 0-56.03-25.085-56.03-56.03v-10.385l-83.615 128.601 139.283 32.659 140.007-32.659z" fill="#fff"/></g><g><path d="m395.65 453.42-139.65 32.58v-94.77c27.64 0 50.62-20.02 55.2-46.36.55-3.14.83-6.37.83-9.67v-10.38l13.04 20.05 18.94 29.13z" fill="#dbdbdb"/></g><path d="m449.7 376.04v47.34c-46.94 54.28-116.31 88.62-193.7 88.62-77.79 0-147.47-34.7-194.42-89.46v-46.5c0-28.29 22.93-51.22 51.21-51.22h46.77c2.53 113.08 96.08 146 96.08 146s93.55-32.92 96.08-146h46.76c28.29 0 51.22 22.93 51.22 51.22z" fill="#af5e22"/><path d="m449.7 376.04v47.34c-46.94 54.28-116.31 88.62-193.7 88.62v-41.31c5.23-1.96 66.13-26.11 88.01-96.69 2.77-8.95 4.92-18.64 6.25-29.13.8-6.38 1.3-13.06 1.46-20.05h46.76c28.29 0 51.22 22.93 51.22 51.22z" fill="#89491d"/><g><path d="m199.97 324.82s.214 84.059 56.03 146.002c0 0-91.855 2.44-96.079-146.002z" fill="#ea9611"/><path d="m312.03 324.82s-.214 84.059-56.03 146.002c0 0 91.855 2.44 96.079-146.002z" fill="#cc7a05"/></g><path d="m362.67 177.93c-34.35 0-45.7-12.07-59.5-41.98-16.9-36.6-47.17-22.52-47.17-22.52v-54.06s31.4-3.38 67.44 20.27 39.23 98.29 39.23 98.29z" fill="#3d3d3d"/></g></svg>