<svg id="Layer_1" enable-background="new 0 0 512 512" height="512" viewBox="0 0 512 512" width="512" xmlns="http://www.w3.org/2000/svg"><g><g><g><g><g><g id="XMLID_574_"><g id="XMLID_575_"><g id="XMLID_576_"><g id="XMLID_577_"><g id="XMLID_578_"><g id="XMLID_579_"><g id="XMLID_580_"><g id="XMLID_581_"><g id="XMLID_582_"><g id="XMLID_583_"><g id="XMLID_584_"><g id="XMLID_585_"><g id="XMLID_586_"><g id="XMLID_587_"><g><path d="m512 256c0 70.12-28.2 133.67-73.88 179.9-22.58 22.86-342.09 22.44-364.24.01-45.67-46.24-73.88-109.78-73.88-179.91 0-141.38 114.62-256 256-256s256 114.62 256 256z" fill="#dd4571"/></g></g></g></g></g></g></g></g></g></g></g></g></g></g></g></g></g></g></g><path d="m511.838 246.927-146.923-146.923-1.097 3.513-31.359-31.359-25.029 211.897 123.251 155.813c3.517-1.234 6.045-2.556 7.439-3.968 45.68-46.23 73.88-109.78 73.88-179.9 0-3.037-.057-6.061-.162-9.073z" fill="#c12156"/><g><circle cx="194.962" cy="221.104" fill="#ea9611" r="42.922"/><path d="m404.847 208.488c0-12.677-6.127-23.922-15.58-30.939 3.906-5.408 6.215-12.045 6.215-19.226 0-14.439-9.312-26.696-22.255-31.114.024-.586.045-1.173.045-1.765 0-23.705-19.217-42.922-42.922-42.922s-42.922 19.217-42.922 42.922 19.217 42.922 42.922 42.922c.313 0 .622-.017.934-.024 1.573 4.92 4.273 9.334 7.796 12.943-6.953 6.967-11.253 16.583-11.253 27.203 0 7.981-12.128 8.413-7.97 14.561-3.593 2.683-3.548 15.04-8.141 15.04-25.479 0-47.211 16.008-55.714 38.51-8.503-22.503-30.234-38.51-55.714-38.51-4.594 0 11.616-4.012 7.321-3.027-2.6-3.658-3.727-6.327-7.321-9.01 4.158-6.149-16.111-9.584-16.111-17.565 0-10.621-4.3-20.236-11.253-27.203 3.523-3.609 6.223-8.023 7.796-12.943.311.007.621.024.934.024 23.705 0 42.922-19.217 42.922-42.922s-19.217-42.922-42.922-42.922-42.922 19.217-42.922 42.922c0 .592.021 1.179.045 1.765-12.943 4.419-22.255 16.675-22.255 31.114 0 7.181 2.309 13.818 6.215 19.226-9.453 7.018-15.58 18.262-15.58 30.939 0 11.074 4.681 21.049 12.164 28.075-6.419 7.502-10.305 17.236-10.305 27.884 0 20.048 13.746 36.883 32.326 41.601 4.087 28.905 28.915 51.142 58.948 51.142 25.479 0 47.211-16.008 55.714-38.51 8.503 22.503 30.234 38.51 55.714 38.51 30.033 0 54.861-22.237 58.948-51.142 18.58-4.719 32.326-21.553 32.326-41.601 0-10.648-3.885-20.382-10.305-27.884 7.479-7.024 12.16-16.999 12.16-28.074z" fill="#fbe280"/><path d="m392.68 236.56c6.42 7.5 10.31 17.24 10.31 27.89 0 20.04-13.75 36.88-32.33 41.6-4.08 28.9-28.91 51.14-58.95 51.14-25.48 0-47.21-16.01-55.71-38.51v-42.08c8.5-22.5 30.23-38.51 55.71-38.51 4.6 0 4.55-12.36 8.15-15.04-4.16-6.15 7.97-6.58 7.97-14.56 0-10.62 4.3-20.24 11.25-27.2-3.2-3.29-5.73-7.24-7.35-11.64-.16-.43-.31-.87-.45-1.31-.31.01-.62.03-.93.03-1.88 0-3.74-.12-5.56-.36-16.22-2.09-29.6-13.25-34.91-28.22-1.58-4.48-2.45-9.31-2.45-14.35 0-23.7 19.21-42.92 42.92-42.92 4.39 0 8.62.66 12.61 1.88 17.55 5.39 30.31 21.73 30.31 41.04 0 .6-.02 1.18-.04 1.77 12.94 4.42 22.25 16.67 22.25 31.11 0 7.18-2.31 13.82-6.21 19.23 9.45 7.02 15.58 18.26 15.58 30.94 0 11.07-4.68 21.05-12.17 28.07z" fill="#efc859"/><path d="m199.97 250.232h112.06v118.84h-112.06z" fill="#eaa678"/><path d="m256 250.236h56.03v118.84h-56.03z" fill="#d38c5b"/><path d="m199.97 324.824h112.06v118.84h-112.06z" fill="#ffc397"/><path d="m256 324.824h56.03v118.84h-56.03z" fill="#eaa678"/><path d="m438.12 378.51v57.39c-22.58 22.86-49.43 41.49-79.26 54.59-31.48 13.83-66.27 21.51-102.86 21.51-37.24 0-72.62-7.95-104.54-22.25l160.57-164.93h72.4c29.65 0 53.69 24.04 53.69 53.69z" fill="#309167"/><path d="m344.251 152.225c-3.728-56.6-49.511-77.517-88.251-77.517s-84.523 20.917-88.251 77.517c-10.018 1.938-17.134 15.077-16.014 25.701l1.717 24.177c1.175 11.157 10.982 19.301 21.79 18.089l1.864-.202c22.138 59.446 56.857 65.644 78.894 69.125 22.038-3.48 56.756-9.678 78.894-69.125l1.864.202c10.807 1.212 20.614-6.932 21.79-18.089l1.717-24.177c1.12-10.624-5.996-23.763-16.014-25.701z" fill="#ffc397"/><path d="m360.265 177.926-1.717 24.177c-1.175 11.157-10.982 19.301-21.79 18.089l-1.864-.202c-7.566 20.293-16.592 34.388-26.078 44.277-18.291 19.081-38.299 22.552-52.817 24.847v-214.406c38.74 0 84.523 20.917 88.251 77.517 10.019 1.938 17.135 15.077 16.015 25.701z" fill="#eaa678"/><path d="m341.622 82.521c-20.318-27.766-58.31-39.106-85.622-28.407-27.312-10.699-65.304.641-85.622 28.407-24.654 33.693-16.691 83.071-16.691 83.071 47.195 17.531 54.73-23.163 54.73-23.163 42.721-4.778 47.565-33.679 47.582-33.782.017.103 4.861 29.004 47.582 33.782 0 0 7.536 40.694 54.73 23.163.001 0 7.965-49.377-16.689-83.071z" fill="#fbe280"/><path d="m358.31 165.59c-10.82 4.02-19.55 4.98-26.58 4.06-2.53-.32-4.84-.89-6.94-1.64-17.64-6.29-21.21-25.58-21.21-25.58-5.08-.57-9.63-1.48-13.7-2.64-30.1-8.61-33.86-31.05-33.88-31.14v-54.54c27.31-10.69 65.3.64 85.62 28.41.46.62.9 1.25 1.34 1.88 23.03 33.62 15.35 81.19 15.35 81.19z" fill="#efc859"/><g><path d="m358.86 490.49c-31.48 13.83-66.27 21.51-102.86 21.51-71.25 0-135.71-29.11-182.12-76.09v-57.396c0-29.65 24.04-53.69 53.69-53.69h72.4z" fill="#5bbc96"/></g><g><path d="m358.86 490.49c-31.48 13.83-66.27 21.51-102.86 21.51v-128.76z" fill="#48a87e"/></g></g></g></svg>